{
  "header": {
    "keySignatures": [],
    "meta": [],
    "name": "CHARLIE AND LOLA THEME MIDI by RUSYAIDI",
    "ppq": 96,
    "tempos": [
      {
        "bpm": 120,
        "ticks": 0
      },
      {
        "bpm": 150,
        "ticks": 0
      },
      {
        "bpm": 150,
        "ticks": 0
      },
      {
        "bpm": 150,
        "ticks": 0
      },
      {
        "bpm": 150,
        "ticks": 13824
      }
    ],
    "timeSignatures": [
      {
        "ticks": 0,
        "timeSignature": [4, 4],
        "measures": 0
      }
    ]
  },
  "tracks": [
    {
      "channel": 0,
      "controlChanges": {},
      "pitchBends": [],
      "instrument": {
        "family": "piano",
        "number": 0,
        "name": "acoustic grand piano"
      },
      "name": "",
      "notes": [],
      "endOfTrackTicks": 13843
    },
    {
      "channel": 0,
      "controlChanges": {
        "6": [
          {
            "number": 6,
            "ticks": 0,
            "time": 0,
            "value": 0.09448818897637795
          },
          {
            "number": 6,
            "ticks": 0,
            "time": 0,
            "value": 0.09448818897637795
          },
          {
            "number": 6,
            "ticks": 0,
            "time": 0,
            "value": 0.09448818897637795
          }
        ],
        "7": [
          {
            "number": 7,
            "ticks": 0,
            "time": 0,
            "value": 0.7874015748031497
          },
          {
            "number": 7,
            "ticks": 0,
            "time": 0,
            "value": 0.7874015748031497
          },
          {
            "number": 7,
            "ticks": 0,
            "time": 0,
            "value": 0.7874015748031497
          },
          {
            "number": 7,
            "ticks": 0,
            "time": 0,
            "value": 0.7874015748031497
          },
          {
            "number": 7,
            "ticks": 0,
            "time": 0,
            "value": 0.7874015748031497
          },
          {
            "number": 7,
            "ticks": 0,
            "time": 0,
            "value": 0.7874015748031497
          }
        ],
        "10": [
          {
            "number": 10,
            "ticks": 0,
            "time": 0,
            "value": 0.5039370078740157
          },
          {
            "number": 10,
            "ticks": 0,
            "time": 0,
            "value": 0.5039370078740157
          },
          {
            "number": 10,
            "ticks": 0,
            "time": 0,
            "value": 0.5039370078740157
          },
          {
            "number": 10,
            "ticks": 0,
            "time": 0,
            "value": 0.5039370078740157
          },
          {
            "number": 10,
            "ticks": 0,
            "time": 0,
            "value": 0.5039370078740157
          },
          {
            "number": 10,
            "ticks": 0,
            "time": 0,
            "value": 0.5039370078740157
          }
        ],
        "91": [
          {
            "number": 91,
            "ticks": 0,
            "time": 0,
            "value": 0
          },
          {
            "number": 91,
            "ticks": 0,
            "time": 0,
            "value": 0
          },
          {
            "number": 91,
            "ticks": 0,
            "time": 0,
            "value": 0
          },
          {
            "number": 91,
            "ticks": 0,
            "time": 0,
            "value": 0
          }
        ],
        "93": [
          {
            "number": 93,
            "ticks": 0,
            "time": 0,
            "value": 0
          },
          {
            "number": 93,
            "ticks": 0,
            "time": 0,
            "value": 0
          },
          {
            "number": 93,
            "ticks": 0,
            "time": 0,
            "value": 0
          },
          {
            "number": 93,
            "ticks": 0,
            "time": 0,
            "value": 0
          }
        ],
        "100": [
          {
            "number": 100,
            "ticks": 0,
            "time": 0,
            "value": 0
          },
          {
            "number": 100,
            "ticks": 0,
            "time": 0,
            "value": 0
          },
          {
            "number": 100,
            "ticks": 0,
            "time": 0,
            "value": 0
          }
        ],
        "101": [
          {
            "number": 101,
            "ticks": 0,
            "time": 0,
            "value": 0
          },
          {
            "number": 101,
            "ticks": 0,
            "time": 0,
            "value": 0
          },
          {
            "number": 101,
            "ticks": 0,
            "time": 0,
            "value": 0
          }
        ]
      },
      "pitchBends": [
        {
          "ticks": 0,
          "time": 0,
          "value": 0
        },
        {
          "ticks": 0,
          "time": 0,
          "value": 0
        },
        {
          "ticks": 0,
          "time": 0,
          "value": 0
        },
        {
          "ticks": 0,
          "time": 0,
          "value": 0
        }
      ],
      "instrument": {
        "family": "piano",
        "number": 0,
        "name": "acoustic grand piano"
      },
      "name": "Whistle",
      "notes": [],
      "endOfTrackTicks": 13843
    },
    {
      "channel": 0,
      "controlChanges": {
        "6": [
          {
            "number": 6,
            "ticks": 13824,
            "time": 57.6,
            "value": 0.09448818897637795
          },
          {
            "number": 6,
            "ticks": 13825,
            "time": 57.60416666666667,
            "value": 0.09448818897637795
          }
        ],
        "7": [
          {
            "number": 7,
            "ticks": 13824,
            "time": 57.6,
            "value": 0.7874015748031497
          },
          {
            "number": 7,
            "ticks": 13824,
            "time": 57.6,
            "value": 0.7874015748031497
          },
          {
            "number": 7,
            "ticks": 13825,
            "time": 57.60416666666667,
            "value": 0.7874015748031497
          }
        ],
        "10": [
          {
            "number": 10,
            "ticks": 13824,
            "time": 57.6,
            "value": 0.5039370078740157
          },
          {
            "number": 10,
            "ticks": 13824,
            "time": 57.6,
            "value": 0.5039370078740157
          },
          {
            "number": 10,
            "ticks": 13825,
            "time": 57.60416666666667,
            "value": 0.5039370078740157
          }
        ],
        "91": [
          {
            "number": 91,
            "ticks": 0,
            "time": 0,
            "value": 0
          },
          {
            "number": 91,
            "ticks": 13824,
            "time": 57.6,
            "value": 0
          },
          {
            "number": 91,
            "ticks": 13824,
            "time": 57.6,
            "value": 0
          },
          {
            "number": 91,
            "ticks": 13825,
            "time": 57.60416666666667,
            "value": 0
          }
        ],
        "93": [
          {
            "number": 93,
            "ticks": 0,
            "time": 0,
            "value": 0
          },
          {
            "number": 93,
            "ticks": 13824,
            "time": 57.6,
            "value": 0
          },
          {
            "number": 93,
            "ticks": 13824,
            "time": 57.6,
            "value": 0
          },
          {
            "number": 93,
            "ticks": 13825,
            "time": 57.60416666666667,
            "value": 0
          }
        ],
        "100": [
          {
            "number": 100,
            "ticks": 13824,
            "time": 57.6,
            "value": 0
          },
          {
            "number": 100,
            "ticks": 13825,
            "time": 57.60416666666667,
            "value": 0
          }
        ],
        "101": [
          {
            "number": 101,
            "ticks": 13824,
            "time": 57.6,
            "value": 0
          },
          {
            "number": 101,
            "ticks": 13825,
            "time": 57.60416666666667,
            "value": 0
          }
        ]
      },
      "pitchBends": [
        {
          "ticks": 13824,
          "time": 57.6,
          "value": 0
        },
        {
          "ticks": 13825,
          "time": 57.60416666666667,
          "value": 0
        }
      ],
      "instrument": {
        "family": "pipe",
        "number": 78,
        "name": "whistle"
      },
      "name": "",
      "notes": [
        {
          "duration": 0.19583333333333286,
          "durationTicks": 47,
          "midi": 95,
          "name": "B6",
          "ticks": 5856,
          "time": 24.400000000000002,
          "velocity": 0.6299212598425197
        },
        {
          "duration": 0.19583333333333286,
          "durationTicks": 47,
          "midi": 97,
          "name": "C#7",
          "ticks": 5904,
          "time": 24.6,
          "velocity": 0.6299212598425197
        },
        {
          "duration": 0.1958333333333364,
          "durationTicks": 47,
          "midi": 95,
          "name": "B6",
          "ticks": 5952,
          "time": 24.8,
          "velocity": 0.6299212598425197
        },
        {
          "duration": 0.1958333333333364,
          "durationTicks": 47,
          "midi": 93,
          "name": "A6",
          "ticks": 6000,
          "time": 25,
          "velocity": 0.6299212598425197
        },
        {
          "duration": 0.5958333333333314,
          "durationTicks": 143,
          "midi": 93,
          "name": "A6",
          "ticks": 6096,
          "time": 25.400000000000002,
          "velocity": 0.6299212598425197
        },
        {
          "duration": 0.39583333333333215,
          "durationTicks": 95,
          "midi": 93,
          "name": "A6",
          "ticks": 6384,
          "time": 26.6,
          "velocity": 0.6299212598425197
        },
        {
          "duration": 0.0625,
          "durationTicks": 15,
          "midi": 91,
          "name": "G6",
          "ticks": 6480,
          "time": 27,
          "velocity": 0.6299212598425197
        },
        {
          "duration": 0.33333333333333215,
          "durationTicks": 80,
          "midi": 93,
          "name": "A6",
          "ticks": 6495,
          "time": 27.0625,
          "velocity": 0.6299212598425197
        },
        {
          "duration": 0.1958333333333293,
          "durationTicks": 47,
          "midi": 91,
          "name": "G6",
          "ticks": 6576,
          "time": 27.400000000000002,
          "velocity": 0.6299212598425197
        },
        {
          "duration": 0.39583333333333215,
          "durationTicks": 95,
          "midi": 90,
          "name": "F#6",
          "ticks": 6624,
          "time": 27.6,
          "velocity": 0.6299212598425197
        },
        {
          "duration": 0.1958333333333293,
          "durationTicks": 47,
          "midi": 83,
          "name": "B5",
          "ticks": 6768,
          "time": 28.200000000000003,
          "velocity": 0.6299212598425197
        },
        {
          "duration": 0.1958333333333293,
          "durationTicks": 47,
          "midi": 85,
          "name": "C#6",
          "ticks": 6816,
          "time": 28.400000000000002,
          "velocity": 0.6299212598425197
        },
        {
          "duration": 0.5958333333333314,
          "durationTicks": 143,
          "midi": 83,
          "name": "B5",
          "ticks": 6864,
          "time": 28.6,
          "velocity": 0.6299212598425197
        },
        {
          "duration": 0.1958333333333293,
          "durationTicks": 47,
          "midi": 83,
          "name": "B5",
          "ticks": 7248,
          "time": 30.200000000000003,
          "velocity": 0.6299212598425197
        },
        {
          "duration": 0.1958333333333293,
          "durationTicks": 47,
          "midi": 81,
          "name": "A5",
          "ticks": 7296,
          "time": 30.400000000000002,
          "velocity": 0.6299212598425197
        },
        {
          "duration": 0.19583333333333286,
          "durationTicks": 47,
          "midi": 83,
          "name": "B5",
          "ticks": 7344,
          "time": 30.6,
          "velocity": 0.6299212598425197
        },
        {
          "duration": 0.19583333333333286,
          "durationTicks": 47,
          "midi": 85,
          "name": "C#6",
          "ticks": 7392,
          "time": 30.8,
          "velocity": 0.6299212598425197
        },
        {
          "duration": 0.19583333333333286,
          "durationTicks": 47,
          "midi": 86,
          "name": "D6",
          "ticks": 7440,
          "time": 31,
          "velocity": 0.6299212598425197
        },
        {
          "duration": 0.1958333333333293,
          "durationTicks": 47,
          "midi": 88,
          "name": "E6",
          "ticks": 7488,
          "time": 31.200000000000003,
          "velocity": 0.6299212598425197
        },
        {
          "duration": 0.1958333333333293,
          "durationTicks": 47,
          "midi": 90,
          "name": "F#6",
          "ticks": 7536,
          "time": 31.400000000000002,
          "velocity": 0.6299212598425197
        },
        {
          "duration": 0.19583333333333286,
          "durationTicks": 47,
          "midi": 91,
          "name": "G6",
          "ticks": 7584,
          "time": 31.6,
          "velocity": 0.6299212598425197
        },
        {
          "duration": 0.19583333333333286,
          "durationTicks": 47,
          "midi": 93,
          "name": "A6",
          "ticks": 7632,
          "time": 31.8,
          "velocity": 0.6299212598425197
        }
      ]
    },
    {
      "channel": 0,
      "controlChanges": {
        "6": [
          {
            "number": 6,
            "ticks": 0,
            "time": 0,
            "value": 0.09448818897637795
          },
          {
            "number": 6,
            "ticks": 0,
            "time": 0,
            "value": 0.09448818897637795
          },
          {
            "number": 6,
            "ticks": 0,
            "time": 0,
            "value": 0.09448818897637795
          }
        ],
        "7": [
          {
            "number": 7,
            "ticks": 0,
            "time": 0,
            "value": 0.7874015748031497
          },
          {
            "number": 7,
            "ticks": 0,
            "time": 0,
            "value": 0.7874015748031497
          },
          {
            "number": 7,
            "ticks": 0,
            "time": 0,
            "value": 0.7874015748031497
          },
          {
            "number": 7,
            "ticks": 0,
            "time": 0,
            "value": 0.7874015748031497
          },
          {
            "number": 7,
            "ticks": 0,
            "time": 0,
            "value": 0.7874015748031497
          },
          {
            "number": 7,
            "ticks": 0,
            "time": 0,
            "value": 0.7874015748031497
          }
        ],
        "10": [
          {
            "number": 10,
            "ticks": 0,
            "time": 0,
            "value": 0.5039370078740157
          },
          {
            "number": 10,
            "ticks": 0,
            "time": 0,
            "value": 0.5039370078740157
          },
          {
            "number": 10,
            "ticks": 0,
            "time": 0,
            "value": 0.5039370078740157
          },
          {
            "number": 10,
            "ticks": 0,
            "time": 0,
            "value": 0.5039370078740157
          },
          {
            "number": 10,
            "ticks": 0,
            "time": 0,
            "value": 0.5039370078740157
          },
          {
            "number": 10,
            "ticks": 0,
            "time": 0,
            "value": 0.5039370078740157
          }
        ],
        "91": [
          {
            "number": 91,
            "ticks": 0,
            "time": 0,
            "value": 0
          },
          {
            "number": 91,
            "ticks": 0,
            "time": 0,
            "value": 0
          },
          {
            "number": 91,
            "ticks": 0,
            "time": 0,
            "value": 0
          },
          {
            "number": 91,
            "ticks": 0,
            "time": 0,
            "value": 0
          }
        ],
        "93": [
          {
            "number": 93,
            "ticks": 0,
            "time": 0,
            "value": 0
          },
          {
            "number": 93,
            "ticks": 0,
            "time": 0,
            "value": 0
          },
          {
            "number": 93,
            "ticks": 0,
            "time": 0,
            "value": 0
          },
          {
            "number": 93,
            "ticks": 0,
            "time": 0,
            "value": 0
          }
        ],
        "100": [
          {
            "number": 100,
            "ticks": 0,
            "time": 0,
            "value": 0
          },
          {
            "number": 100,
            "ticks": 0,
            "time": 0,
            "value": 0
          },
          {
            "number": 100,
            "ticks": 0,
            "time": 0,
            "value": 0
          }
        ],
        "101": [
          {
            "number": 101,
            "ticks": 0,
            "time": 0,
            "value": 0
          },
          {
            "number": 101,
            "ticks": 0,
            "time": 0,
            "value": 0
          },
          {
            "number": 101,
            "ticks": 0,
            "time": 0,
            "value": 0
          }
        ]
      },
      "pitchBends": [
        {
          "ticks": 0,
          "time": 0,
          "value": 0
        },
        {
          "ticks": 0,
          "time": 0,
          "value": 0
        },
        {
          "ticks": 0,
          "time": 0,
          "value": 0
        },
        {
          "ticks": 0,
          "time": 0,
          "value": 0
        }
      ],
      "instrument": {
        "family": "piano",
        "number": 0,
        "name": "acoustic grand piano"
      },
      "name": "Trumpet",
      "notes": [],
      "endOfTrackTicks": 13843
    },
    {
      "channel": 1,
      "controlChanges": {
        "2": [
          {
            "number": 2,
            "ticks": 0,
            "time": 0,
            "value": 0.8740157480314961
          },
          {
            "number": 2,
            "ticks": 7320,
            "time": 30.5,
            "value": 0.3858267716535433
          },
          {
            "number": 2,
            "ticks": 7335,
            "time": 30.5625,
            "value": 0.3937007874015748
          },
          {
            "number": 2,
            "ticks": 7343,
            "time": 30.59583333333333,
            "value": 0.4015748031496063
          },
          {
            "number": 2,
            "ticks": 7350,
            "time": 30.625,
            "value": 0.4094488188976378
          },
          {
            "number": 2,
            "ticks": 7358,
            "time": 30.65833333333333,
            "value": 0.41732283464566927
          },
          {
            "number": 2,
            "ticks": 7365,
            "time": 30.6875,
            "value": 0.4251968503937008
          },
          {
            "number": 2,
            "ticks": 7373,
            "time": 30.72083333333333,
            "value": 0.4330708661417323
          },
          {
            "number": 2,
            "ticks": 7381,
            "time": 30.75416666666667,
            "value": 0.4409448818897638
          },
          {
            "number": 2,
            "ticks": 7388,
            "time": 30.78333333333333,
            "value": 0.44881889763779526
          },
          {
            "number": 2,
            "ticks": 7396,
            "time": 30.81666666666667,
            "value": 0.4566929133858268
          },
          {
            "number": 2,
            "ticks": 7403,
            "time": 30.84583333333333,
            "value": 0.4645669291338583
          },
          {
            "number": 2,
            "ticks": 7411,
            "time": 30.87916666666667,
            "value": 0.47244094488188976
          },
          {
            "number": 2,
            "ticks": 7419,
            "time": 30.9125,
            "value": 0.48031496062992124
          },
          {
            "number": 2,
            "ticks": 7426,
            "time": 30.94166666666667,
            "value": 0.4881889763779528
          },
          {
            "number": 2,
            "ticks": 7434,
            "time": 30.975,
            "value": 0.49606299212598426
          },
          {
            "number": 2,
            "ticks": 7441,
            "time": 31.00416666666667,
            "value": 0.5039370078740157
          },
          {
            "number": 2,
            "ticks": 7449,
            "time": 31.0375,
            "value": 0.5118110236220472
          },
          {
            "number": 2,
            "ticks": 7457,
            "time": 31.070833333333333,
            "value": 0.5196850393700787
          },
          {
            "number": 2,
            "ticks": 7464,
            "time": 31.1,
            "value": 0.5275590551181102
          },
          {
            "number": 2,
            "ticks": 7472,
            "time": 31.133333333333333,
            "value": 0.5354330708661418
          },
          {
            "number": 2,
            "ticks": 7479,
            "time": 31.1625,
            "value": 0.5433070866141733
          },
          {
            "number": 2,
            "ticks": 7487,
            "time": 31.195833333333333,
            "value": 0.5511811023622047
          },
          {
            "number": 2,
            "ticks": 7495,
            "time": 31.22916666666667,
            "value": 0.5590551181102362
          },
          {
            "number": 2,
            "ticks": 7502,
            "time": 31.258333333333333,
            "value": 0.5669291338582677
          },
          {
            "number": 2,
            "ticks": 7510,
            "time": 31.29166666666667,
            "value": 0.5748031496062992
          },
          {
            "number": 2,
            "ticks": 7517,
            "time": 31.320833333333333,
            "value": 0.5826771653543307
          },
          {
            "number": 2,
            "ticks": 7525,
            "time": 31.35416666666667,
            "value": 0.5905511811023622
          },
          {
            "number": 2,
            "ticks": 7533,
            "time": 31.387500000000003,
            "value": 0.5984251968503937
          },
          {
            "number": 2,
            "ticks": 7540,
            "time": 31.41666666666667,
            "value": 0.6062992125984252
          },
          {
            "number": 2,
            "ticks": 7548,
            "time": 31.450000000000003,
            "value": 0.6141732283464567
          },
          {
            "number": 2,
            "ticks": 7555,
            "time": 31.47916666666667,
            "value": 0.6220472440944882
          },
          {
            "number": 2,
            "ticks": 7563,
            "time": 31.512500000000003,
            "value": 0.6299212598425197
          },
          {
            "number": 2,
            "ticks": 7571,
            "time": 31.545833333333334,
            "value": 0.6377952755905512
          },
          {
            "number": 2,
            "ticks": 7578,
            "time": 31.575000000000003,
            "value": 0.6456692913385826
          },
          {
            "number": 2,
            "ticks": 7586,
            "time": 31.608333333333334,
            "value": 0.6535433070866141
          },
          {
            "number": 2,
            "ticks": 7593,
            "time": 31.637500000000003,
            "value": 0.6614173228346457
          },
          {
            "number": 2,
            "ticks": 7601,
            "time": 31.670833333333334,
            "value": 0.6692913385826772
          },
          {
            "number": 2,
            "ticks": 7609,
            "time": 31.70416666666667,
            "value": 0.6771653543307087
          },
          {
            "number": 2,
            "ticks": 7616,
            "time": 31.733333333333334,
            "value": 0.6850393700787402
          },
          {
            "number": 2,
            "ticks": 7624,
            "time": 31.76666666666667,
            "value": 0.6929133858267716
          },
          {
            "number": 2,
            "ticks": 7631,
            "time": 31.795833333333334,
            "value": 0.7007874015748031
          },
          {
            "number": 2,
            "ticks": 7639,
            "time": 31.82916666666667,
            "value": 0.7086614173228346
          },
          {
            "number": 2,
            "ticks": 7647,
            "time": 31.8625,
            "value": 0.7165354330708661
          },
          {
            "number": 2,
            "ticks": 7654,
            "time": 31.89166666666667,
            "value": 0.7244094488188977
          },
          {
            "number": 2,
            "ticks": 7662,
            "time": 31.925,
            "value": 0.7322834645669292
          },
          {
            "number": 2,
            "ticks": 7669,
            "time": 31.95416666666667,
            "value": 0.7401574803149606
          },
          {
            "number": 2,
            "ticks": 7677,
            "time": 31.9875,
            "value": 0.7480314960629921
          },
          {
            "number": 2,
            "ticks": 8256,
            "time": 34.4,
            "value": 0.25984251968503935
          },
          {
            "number": 2,
            "ticks": 8260,
            "time": 34.41666666666667,
            "value": 0.2677165354330709
          },
          {
            "number": 2,
            "ticks": 8263,
            "time": 34.42916666666667,
            "value": 0.2755905511811024
          },
          {
            "number": 2,
            "ticks": 8265,
            "time": 34.4375,
            "value": 0.28346456692913385
          },
          {
            "number": 2,
            "ticks": 8268,
            "time": 34.45,
            "value": 0.29133858267716534
          },
          {
            "number": 2,
            "ticks": 8270,
            "time": 34.458333333333336,
            "value": 0.2992125984251969
          },
          {
            "number": 2,
            "ticks": 8272,
            "time": 34.46666666666667,
            "value": 0.30708661417322836
          },
          {
            "number": 2,
            "ticks": 8275,
            "time": 34.47916666666667,
            "value": 0.31496062992125984
          },
          {
            "number": 2,
            "ticks": 8277,
            "time": 34.487500000000004,
            "value": 0.3228346456692913
          },
          {
            "number": 2,
            "ticks": 8280,
            "time": 34.5,
            "value": 0.33070866141732286
          },
          {
            "number": 2,
            "ticks": 8282,
            "time": 34.50833333333333,
            "value": 0.33858267716535434
          },
          {
            "number": 2,
            "ticks": 8284,
            "time": 34.51666666666667,
            "value": 0.3464566929133858
          },
          {
            "number": 2,
            "ticks": 8287,
            "time": 34.52916666666667,
            "value": 0.3543307086614173
          },
          {
            "number": 2,
            "ticks": 8289,
            "time": 34.5375,
            "value": 0.36220472440944884
          },
          {
            "number": 2,
            "ticks": 8292,
            "time": 34.550000000000004,
            "value": 0.3700787401574803
          },
          {
            "number": 2,
            "ticks": 8294,
            "time": 34.55833333333333,
            "value": 0.3779527559055118
          },
          {
            "number": 2,
            "ticks": 8296,
            "time": 34.56666666666667,
            "value": 0.3858267716535433
          },
          {
            "number": 2,
            "ticks": 8299,
            "time": 34.57916666666667,
            "value": 0.3937007874015748
          },
          {
            "number": 2,
            "ticks": 8301,
            "time": 34.5875,
            "value": 0.4015748031496063
          },
          {
            "number": 2,
            "ticks": 8304,
            "time": 34.6,
            "value": 0.4094488188976378
          },
          {
            "number": 2,
            "ticks": 8306,
            "time": 34.608333333333334,
            "value": 0.41732283464566927
          },
          {
            "number": 2,
            "ticks": 8308,
            "time": 34.61666666666667,
            "value": 0.4251968503937008
          },
          {
            "number": 2,
            "ticks": 8311,
            "time": 34.62916666666667,
            "value": 0.4330708661417323
          },
          {
            "number": 2,
            "ticks": 8313,
            "time": 34.6375,
            "value": 0.4409448818897638
          },
          {
            "number": 2,
            "ticks": 8316,
            "time": 34.65,
            "value": 0.44881889763779526
          },
          {
            "number": 2,
            "ticks": 8318,
            "time": 34.65833333333333,
            "value": 0.4566929133858268
          },
          {
            "number": 2,
            "ticks": 8320,
            "time": 34.66666666666667,
            "value": 0.4645669291338583
          },
          {
            "number": 2,
            "ticks": 8323,
            "time": 34.67916666666667,
            "value": 0.47244094488188976
          },
          {
            "number": 2,
            "ticks": 8325,
            "time": 34.6875,
            "value": 0.48031496062992124
          },
          {
            "number": 2,
            "ticks": 8328,
            "time": 34.7,
            "value": 0.4881889763779528
          },
          {
            "number": 2,
            "ticks": 8330,
            "time": 34.708333333333336,
            "value": 0.49606299212598426
          },
          {
            "number": 2,
            "ticks": 8332,
            "time": 34.71666666666667,
            "value": 0.5039370078740157
          },
          {
            "number": 2,
            "ticks": 8335,
            "time": 34.72916666666667,
            "value": 0.5118110236220472
          },
          {
            "number": 2,
            "ticks": 8337,
            "time": 34.737500000000004,
            "value": 0.5196850393700787
          },
          {
            "number": 2,
            "ticks": 8340,
            "time": 34.75,
            "value": 0.5275590551181102
          },
          {
            "number": 2,
            "ticks": 8342,
            "time": 34.75833333333333,
            "value": 0.5354330708661418
          },
          {
            "number": 2,
            "ticks": 8344,
            "time": 34.76666666666667,
            "value": 0.5433070866141733
          },
          {
            "number": 2,
            "ticks": 8347,
            "time": 34.77916666666667,
            "value": 0.5511811023622047
          },
          {
            "number": 2,
            "ticks": 8349,
            "time": 34.7875,
            "value": 0.5590551181102362
          },
          {
            "number": 2,
            "ticks": 8352,
            "time": 34.800000000000004,
            "value": 0.5669291338582677
          },
          {
            "number": 2,
            "ticks": 8354,
            "time": 34.80833333333333,
            "value": 0.5748031496062992
          },
          {
            "number": 2,
            "ticks": 8356,
            "time": 34.81666666666667,
            "value": 0.5826771653543307
          },
          {
            "number": 2,
            "ticks": 8359,
            "time": 34.82916666666667,
            "value": 0.5905511811023622
          },
          {
            "number": 2,
            "ticks": 8361,
            "time": 34.8375,
            "value": 0.5984251968503937
          },
          {
            "number": 2,
            "ticks": 8364,
            "time": 34.85,
            "value": 0.6062992125984252
          },
          {
            "number": 2,
            "ticks": 8366,
            "time": 34.858333333333334,
            "value": 0.6141732283464567
          },
          {
            "number": 2,
            "ticks": 8368,
            "time": 34.86666666666667,
            "value": 0.6220472440944882
          },
          {
            "number": 2,
            "ticks": 8371,
            "time": 34.87916666666667,
            "value": 0.6299212598425197
          },
          {
            "number": 2,
            "ticks": 8373,
            "time": 34.8875,
            "value": 0.6377952755905512
          },
          {
            "number": 2,
            "ticks": 8376,
            "time": 34.9,
            "value": 0.6456692913385826
          },
          {
            "number": 2,
            "ticks": 8378,
            "time": 34.90833333333333,
            "value": 0.6535433070866141
          },
          {
            "number": 2,
            "ticks": 8380,
            "time": 34.91666666666667,
            "value": 0.6614173228346457
          },
          {
            "number": 2,
            "ticks": 8383,
            "time": 34.92916666666667,
            "value": 0.6692913385826772
          },
          {
            "number": 2,
            "ticks": 8385,
            "time": 34.9375,
            "value": 0.6771653543307087
          },
          {
            "number": 2,
            "ticks": 8388,
            "time": 34.95,
            "value": 0.6850393700787402
          },
          {
            "number": 2,
            "ticks": 8390,
            "time": 34.958333333333336,
            "value": 0.6929133858267716
          },
          {
            "number": 2,
            "ticks": 8392,
            "time": 34.96666666666667,
            "value": 0.7007874015748031
          },
          {
            "number": 2,
            "ticks": 8395,
            "time": 34.97916666666667,
            "value": 0.7086614173228346
          },
          {
            "number": 2,
            "ticks": 8397,
            "time": 34.987500000000004,
            "value": 0.7165354330708661
          },
          {
            "number": 2,
            "ticks": 8400,
            "time": 35,
            "value": 0.7244094488188977
          },
          {
            "number": 2,
            "ticks": 8402,
            "time": 35.00833333333333,
            "value": 0.7322834645669292
          },
          {
            "number": 2,
            "ticks": 8404,
            "time": 35.01666666666667,
            "value": 0.7401574803149606
          },
          {
            "number": 2,
            "ticks": 8407,
            "time": 35.02916666666667,
            "value": 0.7480314960629921
          },
          {
            "number": 2,
            "ticks": 8409,
            "time": 35.0375,
            "value": 0.7559055118110236
          },
          {
            "number": 2,
            "ticks": 8412,
            "time": 35.050000000000004,
            "value": 0.7637795275590551
          },
          {
            "number": 2,
            "ticks": 8414,
            "time": 35.05833333333333,
            "value": 0.7716535433070866
          },
          {
            "number": 2,
            "ticks": 8416,
            "time": 35.06666666666667,
            "value": 0.7795275590551181
          },
          {
            "number": 2,
            "ticks": 8419,
            "time": 35.07916666666667,
            "value": 0.7874015748031497
          },
          {
            "number": 2,
            "ticks": 8421,
            "time": 35.0875,
            "value": 0.7952755905511811
          },
          {
            "number": 2,
            "ticks": 8424,
            "time": 35.1,
            "value": 0.8031496062992126
          },
          {
            "number": 2,
            "ticks": 8426,
            "time": 35.108333333333334,
            "value": 0.8110236220472441
          },
          {
            "number": 2,
            "ticks": 8428,
            "time": 35.11666666666667,
            "value": 0.8188976377952756
          },
          {
            "number": 2,
            "ticks": 8431,
            "time": 35.12916666666667,
            "value": 0.8267716535433071
          },
          {
            "number": 2,
            "ticks": 8433,
            "time": 35.1375,
            "value": 0.8346456692913385
          },
          {
            "number": 2,
            "ticks": 8436,
            "time": 35.15,
            "value": 0.84251968503937
          },
          {
            "number": 2,
            "ticks": 8438,
            "time": 35.15833333333333,
            "value": 0.8503937007874016
          },
          {
            "number": 2,
            "ticks": 8440,
            "time": 35.16666666666667,
            "value": 0.8582677165354331
          },
          {
            "number": 2,
            "ticks": 8443,
            "time": 35.17916666666667,
            "value": 0.8661417322834646
          },
          {
            "number": 2,
            "ticks": 8445,
            "time": 35.1875,
            "value": 0.8740157480314961
          },
          {
            "number": 2,
            "ticks": 13824,
            "time": 57.6,
            "value": 0.8740157480314961
          },
          {
            "number": 2,
            "ticks": 13825,
            "time": 57.60416666666667,
            "value": 0.8740157480314961
          }
        ],
        "6": [
          {
            "number": 6,
            "ticks": 13824,
            "time": 57.6,
            "value": 0.09448818897637795
          },
          {
            "number": 6,
            "ticks": 13825,
            "time": 57.60416666666667,
            "value": 0.09448818897637795
          }
        ],
        "7": [
          {
            "number": 7,
            "ticks": 13824,
            "time": 57.6,
            "value": 0.7874015748031497
          },
          {
            "number": 7,
            "ticks": 13824,
            "time": 57.6,
            "value": 0.7874015748031497
          },
          {
            "number": 7,
            "ticks": 13825,
            "time": 57.60416666666667,
            "value": 0.7874015748031497
          }
        ],
        "10": [
          {
            "number": 10,
            "ticks": 13824,
            "time": 57.6,
            "value": 0.5039370078740157
          },
          {
            "number": 10,
            "ticks": 13824,
            "time": 57.6,
            "value": 0.5039370078740157
          },
          {
            "number": 10,
            "ticks": 13825,
            "time": 57.60416666666667,
            "value": 0.5039370078740157
          }
        ],
        "91": [
          {
            "number": 91,
            "ticks": 0,
            "time": 0,
            "value": 0
          },
          {
            "number": 91,
            "ticks": 13824,
            "time": 57.6,
            "value": 0
          },
          {
            "number": 91,
            "ticks": 13824,
            "time": 57.6,
            "value": 0
          },
          {
            "number": 91,
            "ticks": 13825,
            "time": 57.60416666666667,
            "value": 0
          }
        ],
        "93": [
          {
            "number": 93,
            "ticks": 0,
            "time": 0,
            "value": 0
          },
          {
            "number": 93,
            "ticks": 13824,
            "time": 57.6,
            "value": 0
          },
          {
            "number": 93,
            "ticks": 13824,
            "time": 57.6,
            "value": 0
          },
          {
            "number": 93,
            "ticks": 13825,
            "time": 57.60416666666667,
            "value": 0
          }
        ],
        "100": [
          {
            "number": 100,
            "ticks": 13824,
            "time": 57.6,
            "value": 0
          },
          {
            "number": 100,
            "ticks": 13825,
            "time": 57.60416666666667,
            "value": 0
          }
        ],
        "101": [
          {
            "number": 101,
            "ticks": 13824,
            "time": 57.6,
            "value": 0
          },
          {
            "number": 101,
            "ticks": 13825,
            "time": 57.60416666666667,
            "value": 0
          }
        ]
      },
      "pitchBends": [
        {
          "ticks": 13824,
          "time": 57.6,
          "value": 0
        },
        {
          "ticks": 13825,
          "time": 57.60416666666667,
          "value": 0
        }
      ],
      "instrument": {
        "family": "brass",
        "number": 56,
        "name": "trumpet"
      },
      "name": "",
      "notes": [
        {
          "duration": 0.19583333333333286,
          "durationTicks": 47,
          "midi": 73,
          "name": "C#5",
          "ticks": 2784,
          "time": 11.600000000000001,
          "velocity": 0.8818897637795275
        },
        {
          "duration": 0.09583333333333321,
          "durationTicks": 23,
          "midi": 71,
          "name": "B4",
          "ticks": 2880,
          "time": 12,
          "velocity": 0.8818897637795275
        },
        {
          "duration": 0.19583333333333286,
          "durationTicks": 47,
          "midi": 69,
          "name": "A4",
          "ticks": 2928,
          "time": 12.200000000000001,
          "velocity": 0.8818897637795275
        },
        {
          "duration": 0.3958333333333339,
          "durationTicks": 95,
          "midi": 69,
          "name": "A4",
          "ticks": 3024,
          "time": 12.600000000000001,
          "velocity": 0.8818897637795275
        },
        {
          "duration": 0.09583333333333321,
          "durationTicks": 23,
          "midi": 66,
          "name": "F#4",
          "ticks": 3168,
          "time": 13.200000000000001,
          "velocity": 0.8818897637795275
        },
        {
          "duration": 0.09583333333333499,
          "durationTicks": 23,
          "midi": 66,
          "name": "F#4",
          "ticks": 3216,
          "time": 13.4,
          "velocity": 0.8818897637795275
        },
        {
          "duration": 0.09583333333333321,
          "durationTicks": 23,
          "midi": 69,
          "name": "A4",
          "ticks": 3264,
          "time": 13.600000000000001,
          "velocity": 0.8818897637795275
        },
        {
          "duration": 0.19583333333333464,
          "durationTicks": 47,
          "midi": 73,
          "name": "C#5",
          "ticks": 3312,
          "time": 13.8,
          "velocity": 0.8818897637795275
        },
        {
          "duration": 0.3958333333333339,
          "durationTicks": 95,
          "midi": 73,
          "name": "C#5",
          "ticks": 3408,
          "time": 14.200000000000001,
          "velocity": 0.8818897637795275
        },
        {
          "duration": 0.09583333333333321,
          "durationTicks": 23,
          "midi": 74,
          "name": "D5",
          "ticks": 3504,
          "time": 14.600000000000001,
          "velocity": 0.8818897637795275
        },
        {
          "duration": 0.3958333333333339,
          "durationTicks": 95,
          "midi": 74,
          "name": "D5",
          "ticks": 3552,
          "time": 14.8,
          "velocity": 0.8818897637795275
        },
        {
          "duration": 0.19583333333333464,
          "durationTicks": 47,
          "midi": 66,
          "name": "F#4",
          "ticks": 3696,
          "time": 15.4,
          "velocity": 0.8818897637795275
        },
        {
          "duration": 0.3958333333333357,
          "durationTicks": 95,
          "midi": 67,
          "name": "G4",
          "ticks": 3792,
          "time": 15.8,
          "velocity": 0.8818897637795275
        },
        {
          "duration": 0.09583333333333144,
          "durationTicks": 23,
          "midi": 64,
          "name": "E4",
          "ticks": 3936,
          "time": 16.400000000000002,
          "velocity": 0.8818897637795275
        },
        {
          "duration": 0.09583333333333499,
          "durationTicks": 23,
          "midi": 64,
          "name": "E4",
          "ticks": 3984,
          "time": 16.6,
          "velocity": 0.8818897637795275
        },
        {
          "duration": 0.19583333333333286,
          "durationTicks": 47,
          "midi": 76,
          "name": "E5",
          "ticks": 4032,
          "time": 16.8,
          "velocity": 0.8818897637795275
        },
        {
          "duration": 0.1958333333333364,
          "durationTicks": 47,
          "midi": 74,
          "name": "D5",
          "ticks": 4128,
          "time": 17.2,
          "velocity": 0.8818897637795275
        },
        {
          "duration": 0.19583333333333286,
          "durationTicks": 47,
          "midi": 73,
          "name": "C#5",
          "ticks": 4224,
          "time": 17.6,
          "velocity": 0.8818897637795275
        },
        {
          "duration": 0.09583333333333499,
          "durationTicks": 23,
          "midi": 74,
          "name": "D5",
          "ticks": 4272,
          "time": 17.8,
          "velocity": 0.8818897637795275
        },
        {
          "duration": 0.09583333333333499,
          "durationTicks": 23,
          "midi": 76,
          "name": "E5",
          "ticks": 4320,
          "time": 18,
          "velocity": 0.8818897637795275
        },
        {
          "duration": 0.1958333333333364,
          "durationTicks": 47,
          "midi": 69,
          "name": "A4",
          "ticks": 4368,
          "time": 18.2,
          "velocity": 0.8818897637795275
        },
        {
          "duration": 0.19583333333333286,
          "durationTicks": 47,
          "midi": 67,
          "name": "G4",
          "ticks": 4464,
          "time": 18.6,
          "velocity": 0.8818897637795275
        },
        {
          "duration": 0.3958333333333357,
          "durationTicks": 95,
          "midi": 69,
          "name": "A4",
          "ticks": 4560,
          "time": 19,
          "velocity": 0.8818897637795275
        },
        {
          "duration": 0.09583333333333499,
          "durationTicks": 23,
          "midi": 66,
          "name": "F#4",
          "ticks": 4704,
          "time": 19.6,
          "velocity": 0.8818897637795275
        },
        {
          "duration": 0.09583333333333499,
          "durationTicks": 23,
          "midi": 66,
          "name": "F#4",
          "ticks": 4752,
          "time": 19.8,
          "velocity": 0.8818897637795275
        },
        {
          "duration": 0.09583333333333499,
          "durationTicks": 23,
          "midi": 69,
          "name": "A4",
          "ticks": 4800,
          "time": 20,
          "velocity": 0.8818897637795275
        },
        {
          "duration": 0.19583333333333286,
          "durationTicks": 47,
          "midi": 73,
          "name": "C#5",
          "ticks": 4848,
          "time": 20.200000000000003,
          "velocity": 0.8818897637795275
        },
        {
          "duration": 0.3958333333333357,
          "durationTicks": 95,
          "midi": 76,
          "name": "E5",
          "ticks": 4944,
          "time": 20.6,
          "velocity": 0.8818897637795275
        },
        {
          "duration": 0.3958333333333357,
          "durationTicks": 95,
          "midi": 73,
          "name": "C#5",
          "ticks": 4944,
          "time": 20.6,
          "velocity": 0.8818897637795275
        },
        {
          "duration": 0.09583333333333499,
          "durationTicks": 23,
          "midi": 78,
          "name": "F#5",
          "ticks": 5040,
          "time": 21,
          "velocity": 0.8818897637795275
        },
        {
          "duration": 0.09583333333333499,
          "durationTicks": 23,
          "midi": 74,
          "name": "D5",
          "ticks": 5040,
          "time": 21,
          "velocity": 0.8818897637795275
        },
        {
          "duration": 0.39583333333333215,
          "durationTicks": 95,
          "midi": 78,
          "name": "F#5",
          "ticks": 5088,
          "time": 21.200000000000003,
          "velocity": 0.8818897637795275
        },
        {
          "duration": 0.39583333333333215,
          "durationTicks": 95,
          "midi": 74,
          "name": "D5",
          "ticks": 5088,
          "time": 21.200000000000003,
          "velocity": 0.8818897637795275
        },
        {
          "duration": 0.1958333333333364,
          "durationTicks": 47,
          "midi": 66,
          "name": "F#4",
          "ticks": 5232,
          "time": 21.8,
          "velocity": 0.8818897637795275
        },
        {
          "duration": 0.39583333333333215,
          "durationTicks": 95,
          "midi": 67,
          "name": "G4",
          "ticks": 5328,
          "time": 22.200000000000003,
          "velocity": 0.8818897637795275
        },
        {
          "duration": 0.09583333333333499,
          "durationTicks": 23,
          "midi": 64,
          "name": "E4",
          "ticks": 5472,
          "time": 22.8,
          "velocity": 0.8818897637795275
        },
        {
          "duration": 0.09583333333333499,
          "durationTicks": 23,
          "midi": 64,
          "name": "E4",
          "ticks": 5520,
          "time": 23,
          "velocity": 0.8818897637795275
        },
        {
          "duration": 0.09583333333333144,
          "durationTicks": 23,
          "midi": 76,
          "name": "E5",
          "ticks": 5568,
          "time": 23.200000000000003,
          "velocity": 0.8818897637795275
        },
        {
          "duration": 0.19583333333333286,
          "durationTicks": 47,
          "midi": 74,
          "name": "D5",
          "ticks": 5616,
          "time": 23.400000000000002,
          "velocity": 0.8818897637795275
        },
        {
          "duration": 0.1958333333333364,
          "durationTicks": 47,
          "midi": 73,
          "name": "C#5",
          "ticks": 5712,
          "time": 23.8,
          "velocity": 0.8818897637795275
        },
        {
          "duration": 0.09583333333333144,
          "durationTicks": 23,
          "midi": 69,
          "name": "A4",
          "ticks": 7296,
          "time": 30.400000000000002,
          "velocity": 0.3858267716535433
        },
        {
          "duration": 0.09583333333333144,
          "durationTicks": 23,
          "midi": 71,
          "name": "B4",
          "ticks": 7344,
          "time": 30.6,
          "velocity": 0.4251968503937008
        },
        {
          "duration": 0.09583333333333144,
          "durationTicks": 23,
          "midi": 73,
          "name": "C#5",
          "ticks": 7392,
          "time": 30.8,
          "velocity": 0.47244094488188976
        },
        {
          "duration": 0.09583333333333144,
          "durationTicks": 23,
          "midi": 74,
          "name": "D5",
          "ticks": 7440,
          "time": 31,
          "velocity": 0.5196850393700787
        },
        {
          "duration": 0.09583333333333144,
          "durationTicks": 23,
          "midi": 76,
          "name": "E5",
          "ticks": 7488,
          "time": 31.200000000000003,
          "velocity": 0.5669291338582677
        },
        {
          "duration": 0.09583333333333144,
          "durationTicks": 23,
          "midi": 78,
          "name": "F#5",
          "ticks": 7536,
          "time": 31.400000000000002,
          "velocity": 0.6141732283464567
        },
        {
          "duration": 0.09583333333333144,
          "durationTicks": 23,
          "midi": 79,
          "name": "G5",
          "ticks": 7584,
          "time": 31.6,
          "velocity": 0.6614173228346457
        },
        {
          "duration": 0.09583333333333144,
          "durationTicks": 23,
          "midi": 81,
          "name": "A5",
          "ticks": 7632,
          "time": 31.8,
          "velocity": 0.7086614173228346
        },
        {
          "duration": 0.09583333333333144,
          "durationTicks": 23,
          "midi": 69,
          "name": "A4",
          "ticks": 7680,
          "time": 32,
          "velocity": 0.7559055118110236
        },
        {
          "duration": 0.19583333333333286,
          "durationTicks": 47,
          "midi": 71,
          "name": "B4",
          "ticks": 7728,
          "time": 32.2,
          "velocity": 0.7559055118110236
        },
        {
          "duration": 0.19583333333333286,
          "durationTicks": 47,
          "midi": 73,
          "name": "C#5",
          "ticks": 7824,
          "time": 32.6,
          "velocity": 0.7559055118110236
        },
        {
          "duration": 0.19583333333333286,
          "durationTicks": 47,
          "midi": 76,
          "name": "E5",
          "ticks": 7920,
          "time": 33,
          "velocity": 0.7559055118110236
        },
        {
          "duration": 0.19583333333333286,
          "durationTicks": 47,
          "midi": 73,
          "name": "C#5",
          "ticks": 7920,
          "time": 33,
          "velocity": 0.7559055118110236
        },
        {
          "duration": 0.3958333333333357,
          "durationTicks": 95,
          "midi": 76,
          "name": "E5",
          "ticks": 8016,
          "time": 33.4,
          "velocity": 0.7559055118110236
        },
        {
          "duration": 0.3958333333333357,
          "durationTicks": 95,
          "midi": 73,
          "name": "C#5",
          "ticks": 8016,
          "time": 33.4,
          "velocity": 0.7559055118110236
        },
        {
          "duration": 0.09583333333333144,
          "durationTicks": 23,
          "midi": 78,
          "name": "F#5",
          "ticks": 8112,
          "time": 33.800000000000004,
          "velocity": 0.7559055118110236
        },
        {
          "duration": 0.09583333333333144,
          "durationTicks": 23,
          "midi": 74,
          "name": "D5",
          "ticks": 8112,
          "time": 33.800000000000004,
          "velocity": 0.7559055118110236
        },
        {
          "duration": 2.7958333333333343,
          "durationTicks": 671,
          "midi": 78,
          "name": "F#5",
          "ticks": 8160,
          "time": 34,
          "velocity": 0.25984251968503935
        },
        {
          "duration": 2.7958333333333343,
          "durationTicks": 671,
          "midi": 69,
          "name": "A4",
          "ticks": 8160,
          "time": 34,
          "velocity": 0.25984251968503935
        },
        {
          "duration": 0.19583333333333286,
          "durationTicks": 47,
          "midi": 66,
          "name": "F#4",
          "ticks": 9600,
          "time": 40,
          "velocity": 0.8818897637795275
        },
        {
          "duration": 0.09583333333333144,
          "durationTicks": 23,
          "midi": 63,
          "name": "D#4",
          "ticks": 9696,
          "time": 40.400000000000006,
          "velocity": 0.8818897637795275
        },
        {
          "duration": 0.09583333333333144,
          "durationTicks": 23,
          "midi": 63,
          "name": "D#4",
          "ticks": 9744,
          "time": 40.6,
          "velocity": 0.8818897637795275
        },
        {
          "duration": 0.09583333333333144,
          "durationTicks": 23,
          "midi": 66,
          "name": "F#4",
          "ticks": 9792,
          "time": 40.800000000000004,
          "velocity": 0.8818897637795275
        },
        {
          "duration": 0.19583333333333286,
          "durationTicks": 47,
          "midi": 70,
          "name": "A#4",
          "ticks": 9840,
          "time": 41,
          "velocity": 0.8818897637795275
        },
        {
          "duration": 0.3958333333333286,
          "durationTicks": 95,
          "midi": 70,
          "name": "A#4",
          "ticks": 9936,
          "time": 41.400000000000006,
          "velocity": 0.8818897637795275
        },
        {
          "duration": 0.09583333333333144,
          "durationTicks": 23,
          "midi": 71,
          "name": "B4",
          "ticks": 10032,
          "time": 41.800000000000004,
          "velocity": 0.8818897637795275
        },
        {
          "duration": 0.3958333333333357,
          "durationTicks": 95,
          "midi": 71,
          "name": "B4",
          "ticks": 10080,
          "time": 42,
          "velocity": 0.8818897637795275
        },
        {
          "duration": 0.19583333333333286,
          "durationTicks": 47,
          "midi": 63,
          "name": "D#4",
          "ticks": 10224,
          "time": 42.6,
          "velocity": 0.8818897637795275
        },
        {
          "duration": 0.3958333333333357,
          "durationTicks": 95,
          "midi": 64,
          "name": "E4",
          "ticks": 10320,
          "time": 43,
          "velocity": 0.8818897637795275
        },
        {
          "duration": 0.09583333333333144,
          "durationTicks": 23,
          "midi": 61,
          "name": "C#4",
          "ticks": 10464,
          "time": 43.6,
          "velocity": 0.8818897637795275
        },
        {
          "duration": 0.09583333333333144,
          "durationTicks": 23,
          "midi": 61,
          "name": "C#4",
          "ticks": 10512,
          "time": 43.800000000000004,
          "velocity": 0.8818897637795275
        },
        {
          "duration": 0.19583333333333286,
          "durationTicks": 47,
          "midi": 73,
          "name": "C#5",
          "ticks": 10560,
          "time": 44,
          "velocity": 0.8818897637795275
        },
        {
          "duration": 0.19583333333332575,
          "durationTicks": 47,
          "midi": 71,
          "name": "B4",
          "ticks": 10656,
          "time": 44.400000000000006,
          "velocity": 0.8818897637795275
        },
        {
          "duration": 0.19583333333333286,
          "durationTicks": 47,
          "midi": 70,
          "name": "A#4",
          "ticks": 10752,
          "time": 44.800000000000004,
          "velocity": 0.8818897637795275
        },
        {
          "duration": 0.09583333333333144,
          "durationTicks": 23,
          "midi": 71,
          "name": "B4",
          "ticks": 10800,
          "time": 45,
          "velocity": 0.8818897637795275
        },
        {
          "duration": 0.09583333333333144,
          "durationTicks": 23,
          "midi": 73,
          "name": "C#5",
          "ticks": 10848,
          "time": 45.2,
          "velocity": 0.8818897637795275
        },
        {
          "duration": 0.19583333333332575,
          "durationTicks": 47,
          "midi": 66,
          "name": "F#4",
          "ticks": 10896,
          "time": 45.400000000000006,
          "velocity": 0.8818897637795275
        },
        {
          "duration": 0.19583333333333286,
          "durationTicks": 47,
          "midi": 64,
          "name": "E4",
          "ticks": 10992,
          "time": 45.800000000000004,
          "velocity": 0.8818897637795275
        },
        {
          "duration": 0.3958333333333286,
          "durationTicks": 95,
          "midi": 66,
          "name": "F#4",
          "ticks": 11088,
          "time": 46.2,
          "velocity": 0.8818897637795275
        },
        {
          "duration": 0.09583333333333144,
          "durationTicks": 23,
          "midi": 63,
          "name": "D#4",
          "ticks": 11232,
          "time": 46.800000000000004,
          "velocity": 0.8818897637795275
        },
        {
          "duration": 0.09583333333333144,
          "durationTicks": 23,
          "midi": 63,
          "name": "D#4",
          "ticks": 11280,
          "time": 47,
          "velocity": 0.8818897637795275
        },
        {
          "duration": 0.09583333333333144,
          "durationTicks": 23,
          "midi": 66,
          "name": "F#4",
          "ticks": 11328,
          "time": 47.2,
          "velocity": 0.8818897637795275
        },
        {
          "duration": 0.19583333333332575,
          "durationTicks": 47,
          "midi": 70,
          "name": "A#4",
          "ticks": 11376,
          "time": 47.400000000000006,
          "velocity": 0.8818897637795275
        },
        {
          "duration": 0.3958333333333286,
          "durationTicks": 95,
          "midi": 73,
          "name": "C#5",
          "ticks": 11472,
          "time": 47.800000000000004,
          "velocity": 0.8818897637795275
        },
        {
          "duration": 0.3958333333333286,
          "durationTicks": 95,
          "midi": 70,
          "name": "A#4",
          "ticks": 11472,
          "time": 47.800000000000004,
          "velocity": 0.8818897637795275
        },
        {
          "duration": 0.09583333333333144,
          "durationTicks": 23,
          "midi": 75,
          "name": "D#5",
          "ticks": 11568,
          "time": 48.2,
          "velocity": 0.8818897637795275
        },
        {
          "duration": 0.09583333333333144,
          "durationTicks": 23,
          "midi": 71,
          "name": "B4",
          "ticks": 11568,
          "time": 48.2,
          "velocity": 0.8818897637795275
        },
        {
          "duration": 0.3958333333333286,
          "durationTicks": 95,
          "midi": 75,
          "name": "D#5",
          "ticks": 11616,
          "time": 48.400000000000006,
          "velocity": 0.8818897637795275
        },
        {
          "duration": 0.3958333333333286,
          "durationTicks": 95,
          "midi": 71,
          "name": "B4",
          "ticks": 11616,
          "time": 48.400000000000006,
          "velocity": 0.8818897637795275
        },
        {
          "duration": 0.19583333333333286,
          "durationTicks": 47,
          "midi": 63,
          "name": "D#4",
          "ticks": 11760,
          "time": 49,
          "velocity": 0.8818897637795275
        },
        {
          "duration": 0.3958333333333286,
          "durationTicks": 95,
          "midi": 64,
          "name": "E4",
          "ticks": 11856,
          "time": 49.400000000000006,
          "velocity": 0.8818897637795275
        },
        {
          "duration": 0.09583333333333144,
          "durationTicks": 23,
          "midi": 61,
          "name": "C#4",
          "ticks": 12000,
          "time": 50,
          "velocity": 0.8818897637795275
        },
        {
          "duration": 0.09583333333333144,
          "durationTicks": 23,
          "midi": 61,
          "name": "C#4",
          "ticks": 12048,
          "time": 50.2,
          "velocity": 0.8818897637795275
        },
        {
          "duration": 0.09583333333333144,
          "durationTicks": 23,
          "midi": 73,
          "name": "C#5",
          "ticks": 12096,
          "time": 50.400000000000006,
          "velocity": 0.8818897637795275
        },
        {
          "duration": 0.19583333333333286,
          "durationTicks": 47,
          "midi": 71,
          "name": "B4",
          "ticks": 12144,
          "time": 50.6,
          "velocity": 0.8818897637795275
        },
        {
          "duration": 0.19583333333333286,
          "durationTicks": 47,
          "midi": 70,
          "name": "A#4",
          "ticks": 12240,
          "time": 51,
          "velocity": 0.8818897637795275
        },
        {
          "duration": 0.09583333333333854,
          "durationTicks": 23,
          "midi": 66,
          "name": "F#4",
          "ticks": 12384,
          "time": 51.6,
          "velocity": 0.8818897637795275
        },
        {
          "duration": 0.09583333333333854,
          "durationTicks": 23,
          "midi": 66,
          "name": "F#4",
          "ticks": 12432,
          "time": 51.800000000000004,
          "velocity": 0.8818897637795275
        },
        {
          "duration": 0.09583333333333854,
          "durationTicks": 23,
          "midi": 75,
          "name": "D#5",
          "ticks": 12480,
          "time": 52,
          "velocity": 0.8818897637795275
        },
        {
          "duration": 0.3958333333333357,
          "durationTicks": 95,
          "midi": 73,
          "name": "C#5",
          "ticks": 12528,
          "time": 52.2,
          "velocity": 0.8818897637795275
        },
        {
          "duration": 0.09583333333333854,
          "durationTicks": 23,
          "midi": 66,
          "name": "F#4",
          "ticks": 12768,
          "time": 53.2,
          "velocity": 0.8818897637795275
        },
        {
          "duration": 0.09583333333333144,
          "durationTicks": 23,
          "midi": 66,
          "name": "F#4",
          "ticks": 12816,
          "time": 53.400000000000006,
          "velocity": 0.8818897637795275
        },
        {
          "duration": 0.09583333333333854,
          "durationTicks": 23,
          "midi": 75,
          "name": "D#5",
          "ticks": 12864,
          "time": 53.6,
          "velocity": 0.8818897637795275
        },
        {
          "duration": 0.3958333333333357,
          "durationTicks": 95,
          "midi": 73,
          "name": "C#5",
          "ticks": 12912,
          "time": 53.800000000000004,
          "velocity": 0.8818897637795275
        }
      ]
    },
    {
      "channel": 2,
      "controlChanges": {
        "6": [
          {
            "number": 6,
            "ticks": 0,
            "time": 0,
            "value": 0.09448818897637795
          },
          {
            "number": 6,
            "ticks": 0,
            "time": 0,
            "value": 0.09448818897637795
          },
          {
            "number": 6,
            "ticks": 0,
            "time": 0,
            "value": 0.09448818897637795
          }
        ],
        "7": [
          {
            "number": 7,
            "ticks": 0,
            "time": 0,
            "value": 0.7874015748031497
          },
          {
            "number": 7,
            "ticks": 0,
            "time": 0,
            "value": 0.7874015748031497
          },
          {
            "number": 7,
            "ticks": 0,
            "time": 0,
            "value": 0.7874015748031497
          },
          {
            "number": 7,
            "ticks": 0,
            "time": 0,
            "value": 0.7874015748031497
          },
          {
            "number": 7,
            "ticks": 0,
            "time": 0,
            "value": 0.7874015748031497
          },
          {
            "number": 7,
            "ticks": 0,
            "time": 0,
            "value": 0.7874015748031497
          }
        ],
        "10": [
          {
            "number": 10,
            "ticks": 0,
            "time": 0,
            "value": 0.5039370078740157
          },
          {
            "number": 10,
            "ticks": 0,
            "time": 0,
            "value": 0.5039370078740157
          },
          {
            "number": 10,
            "ticks": 0,
            "time": 0,
            "value": 0.5039370078740157
          },
          {
            "number": 10,
            "ticks": 0,
            "time": 0,
            "value": 0.5039370078740157
          },
          {
            "number": 10,
            "ticks": 0,
            "time": 0,
            "value": 0.5039370078740157
          },
          {
            "number": 10,
            "ticks": 0,
            "time": 0,
            "value": 0.5039370078740157
          }
        ],
        "91": [
          {
            "number": 91,
            "ticks": 0,
            "time": 0,
            "value": 0
          },
          {
            "number": 91,
            "ticks": 0,
            "time": 0,
            "value": 0
          },
          {
            "number": 91,
            "ticks": 0,
            "time": 0,
            "value": 0
          },
          {
            "number": 91,
            "ticks": 0,
            "time": 0,
            "value": 0
          }
        ],
        "93": [
          {
            "number": 93,
            "ticks": 0,
            "time": 0,
            "value": 0
          },
          {
            "number": 93,
            "ticks": 0,
            "time": 0,
            "value": 0
          },
          {
            "number": 93,
            "ticks": 0,
            "time": 0,
            "value": 0
          },
          {
            "number": 93,
            "ticks": 0,
            "time": 0,
            "value": 0
          }
        ],
        "100": [
          {
            "number": 100,
            "ticks": 0,
            "time": 0,
            "value": 0
          },
          {
            "number": 100,
            "ticks": 0,
            "time": 0,
            "value": 0
          },
          {
            "number": 100,
            "ticks": 0,
            "time": 0,
            "value": 0
          }
        ],
        "101": [
          {
            "number": 101,
            "ticks": 0,
            "time": 0,
            "value": 0
          },
          {
            "number": 101,
            "ticks": 0,
            "time": 0,
            "value": 0
          },
          {
            "number": 101,
            "ticks": 0,
            "time": 0,
            "value": 0
          }
        ]
      },
      "pitchBends": [
        {
          "ticks": 0,
          "time": 0,
          "value": 0
        },
        {
          "ticks": 0,
          "time": 0,
          "value": 0
        },
        {
          "ticks": 0,
          "time": 0,
          "value": 0
        },
        {
          "ticks": 0,
          "time": 0,
          "value": 0
        }
      ],
      "instrument": {
        "family": "piano",
        "number": 0,
        "name": "acoustic grand piano"
      },
      "name": "Glockenspiel",
      "notes": [],
      "endOfTrackTicks": 13843
    },
    {
      "channel": 2,
      "controlChanges": {
        "6": [
          {
            "number": 6,
            "ticks": 13824,
            "time": 57.6,
            "value": 0.09448818897637795
          },
          {
            "number": 6,
            "ticks": 13825,
            "time": 57.60416666666667,
            "value": 0.09448818897637795
          }
        ],
        "7": [
          {
            "number": 7,
            "ticks": 13824,
            "time": 57.6,
            "value": 0.7874015748031497
          },
          {
            "number": 7,
            "ticks": 13824,
            "time": 57.6,
            "value": 0.7874015748031497
          },
          {
            "number": 7,
            "ticks": 13825,
            "time": 57.60416666666667,
            "value": 0.7874015748031497
          }
        ],
        "10": [
          {
            "number": 10,
            "ticks": 13824,
            "time": 57.6,
            "value": 0.5039370078740157
          },
          {
            "number": 10,
            "ticks": 13824,
            "time": 57.6,
            "value": 0.5039370078740157
          },
          {
            "number": 10,
            "ticks": 13825,
            "time": 57.60416666666667,
            "value": 0.5039370078740157
          }
        ],
        "91": [
          {
            "number": 91,
            "ticks": 0,
            "time": 0,
            "value": 0
          },
          {
            "number": 91,
            "ticks": 13824,
            "time": 57.6,
            "value": 0
          },
          {
            "number": 91,
            "ticks": 13824,
            "time": 57.6,
            "value": 0
          },
          {
            "number": 91,
            "ticks": 13825,
            "time": 57.60416666666667,
            "value": 0
          }
        ],
        "93": [
          {
            "number": 93,
            "ticks": 0,
            "time": 0,
            "value": 0
          },
          {
            "number": 93,
            "ticks": 13824,
            "time": 57.6,
            "value": 0
          },
          {
            "number": 93,
            "ticks": 13824,
            "time": 57.6,
            "value": 0
          },
          {
            "number": 93,
            "ticks": 13825,
            "time": 57.60416666666667,
            "value": 0
          }
        ],
        "100": [
          {
            "number": 100,
            "ticks": 13824,
            "time": 57.6,
            "value": 0
          },
          {
            "number": 100,
            "ticks": 13825,
            "time": 57.60416666666667,
            "value": 0
          }
        ],
        "101": [
          {
            "number": 101,
            "ticks": 13824,
            "time": 57.6,
            "value": 0
          },
          {
            "number": 101,
            "ticks": 13825,
            "time": 57.60416666666667,
            "value": 0
          }
        ]
      },
      "pitchBends": [
        {
          "ticks": 13824,
          "time": 57.6,
          "value": 0
        },
        {
          "ticks": 13825,
          "time": 57.60416666666667,
          "value": 0
        }
      ],
      "instrument": {
        "family": "chromatic percussion",
        "number": 9,
        "name": "glockenspiel"
      },
      "name": "",
      "notes": [
        {
          "duration": 0.9958333333333333,
          "durationTicks": 239,
          "midi": 90,
          "name": "F#6",
          "ticks": 144,
          "time": 0.6000000000000001,
          "velocity": 0.7559055118110236
        },
        {
          "duration": 0.39583333333333304,
          "durationTicks": 95,
          "midi": 81,
          "name": "A5",
          "ticks": 672,
          "time": 2.8000000000000003,
          "velocity": 0.7559055118110236
        },
        {
          "duration": 0.5958333333333337,
          "durationTicks": 143,
          "midi": 83,
          "name": "B5",
          "ticks": 768,
          "time": 3.2,
          "velocity": 0.7559055118110236
        },
        {
          "duration": 0.9958333333333331,
          "durationTicks": 239,
          "midi": 90,
          "name": "F#6",
          "ticks": 912,
          "time": 3.8000000000000003,
          "velocity": 0.7559055118110236
        },
        {
          "duration": 0.19583333333333375,
          "durationTicks": 47,
          "midi": 90,
          "name": "F#6",
          "ticks": 1248,
          "time": 5.2,
          "velocity": 0.6299212598425197
        },
        {
          "duration": 0.19583333333333375,
          "durationTicks": 47,
          "midi": 90,
          "name": "F#6",
          "ticks": 1296,
          "time": 5.4,
          "velocity": 0.6299212598425197
        },
        {
          "duration": 0.19583333333333375,
          "durationTicks": 47,
          "midi": 93,
          "name": "A6",
          "ticks": 1344,
          "time": 5.6000000000000005,
          "velocity": 0.6299212598425197
        },
        {
          "duration": 0.39583333333333304,
          "durationTicks": 95,
          "midi": 97,
          "name": "C#7",
          "ticks": 1392,
          "time": 5.800000000000001,
          "velocity": 0.6299212598425197
        },
        {
          "duration": 0.39583333333333304,
          "durationTicks": 95,
          "midi": 97,
          "name": "C#7",
          "ticks": 1488,
          "time": 6.2,
          "velocity": 0.6299212598425197
        },
        {
          "duration": 0.5958333333333332,
          "durationTicks": 143,
          "midi": 93,
          "name": "A6",
          "ticks": 1536,
          "time": 6.4,
          "velocity": 0.6299212598425197
        },
        {
          "duration": 0.5958333333333332,
          "durationTicks": 143,
          "midi": 90,
          "name": "F#6",
          "ticks": 1536,
          "time": 6.4,
          "velocity": 0.6299212598425197
        },
        {
          "duration": 0.5958333333333332,
          "durationTicks": 143,
          "midi": 86,
          "name": "D6",
          "ticks": 1536,
          "time": 6.4,
          "velocity": 0.6299212598425197
        },
        {
          "duration": 0.19583333333333286,
          "durationTicks": 47,
          "midi": 98,
          "name": "D7",
          "ticks": 1584,
          "time": 6.6000000000000005,
          "velocity": 0.6299212598425197
        },
        {
          "duration": 0.19583333333333286,
          "durationTicks": 47,
          "midi": 98,
          "name": "D7",
          "ticks": 1632,
          "time": 6.800000000000001,
          "velocity": 0.6299212598425197
        },
        {
          "duration": 0.9958333333333336,
          "durationTicks": 239,
          "midi": 90,
          "name": "F#6",
          "ticks": 1680,
          "time": 7,
          "velocity": 0.7559055118110236
        },
        {
          "duration": 0.39583333333333215,
          "durationTicks": 95,
          "midi": 81,
          "name": "A5",
          "ticks": 2208,
          "time": 9.200000000000001,
          "velocity": 0.7559055118110236
        },
        {
          "duration": 0.5958333333333314,
          "durationTicks": 143,
          "midi": 83,
          "name": "B5",
          "ticks": 2304,
          "time": 9.600000000000001,
          "velocity": 0.7559055118110236
        },
        {
          "duration": 0.9958333333333318,
          "durationTicks": 239,
          "midi": 90,
          "name": "F#6",
          "ticks": 2448,
          "time": 10.200000000000001,
          "velocity": 0.7559055118110236
        },
        {
          "duration": 0.39583333333333215,
          "durationTicks": 95,
          "midi": 97,
          "name": "C#7",
          "ticks": 2784,
          "time": 11.600000000000001,
          "velocity": 0.7559055118110236
        },
        {
          "duration": 0.19583333333333286,
          "durationTicks": 47,
          "midi": 95,
          "name": "B6",
          "ticks": 2880,
          "time": 12,
          "velocity": 0.7559055118110236
        },
        {
          "duration": 0.19583333333333286,
          "durationTicks": 47,
          "midi": 93,
          "name": "A6",
          "ticks": 2928,
          "time": 12.200000000000001,
          "velocity": 0.7559055118110236
        },
        {
          "duration": 0.5958333333333332,
          "durationTicks": 143,
          "midi": 93,
          "name": "A6",
          "ticks": 3024,
          "time": 12.600000000000001,
          "velocity": 0.7559055118110236
        },
        {
          "duration": 0.19583333333333464,
          "durationTicks": 47,
          "midi": 90,
          "name": "F#6",
          "ticks": 3168,
          "time": 13.200000000000001,
          "velocity": 0.7559055118110236
        },
        {
          "duration": 0.19583333333333464,
          "durationTicks": 47,
          "midi": 90,
          "name": "F#6",
          "ticks": 3216,
          "time": 13.4,
          "velocity": 0.7559055118110236
        },
        {
          "duration": 0.19583333333333286,
          "durationTicks": 47,
          "midi": 93,
          "name": "A6",
          "ticks": 3264,
          "time": 13.600000000000001,
          "velocity": 0.7559055118110236
        },
        {
          "duration": 0.19583333333333464,
          "durationTicks": 47,
          "midi": 97,
          "name": "C#7",
          "ticks": 3312,
          "time": 13.8,
          "velocity": 0.7559055118110236
        },
        {
          "duration": 0.3958333333333339,
          "durationTicks": 95,
          "midi": 97,
          "name": "C#7",
          "ticks": 3408,
          "time": 14.200000000000001,
          "velocity": 0.7559055118110236
        },
        {
          "duration": 0.19583333333333286,
          "durationTicks": 47,
          "midi": 98,
          "name": "D7",
          "ticks": 3504,
          "time": 14.600000000000001,
          "velocity": 0.7559055118110236
        },
        {
          "duration": 0.3958333333333339,
          "durationTicks": 95,
          "midi": 98,
          "name": "D7",
          "ticks": 3552,
          "time": 14.8,
          "velocity": 0.7559055118110236
        },
        {
          "duration": 0.3958333333333339,
          "durationTicks": 95,
          "midi": 90,
          "name": "F#6",
          "ticks": 3696,
          "time": 15.4,
          "velocity": 0.7559055118110236
        },
        {
          "duration": 0.595833333333335,
          "durationTicks": 143,
          "midi": 91,
          "name": "G6",
          "ticks": 3792,
          "time": 15.8,
          "velocity": 0.7559055118110236
        },
        {
          "duration": 0.19583333333333286,
          "durationTicks": 47,
          "midi": 88,
          "name": "E6",
          "ticks": 3936,
          "time": 16.400000000000002,
          "velocity": 0.7559055118110236
        },
        {
          "duration": 0.19583333333333286,
          "durationTicks": 47,
          "midi": 88,
          "name": "E6",
          "ticks": 3984,
          "time": 16.6,
          "velocity": 0.7559055118110236
        },
        {
          "duration": 0.3958333333333357,
          "durationTicks": 95,
          "midi": 100,
          "name": "E7",
          "ticks": 4032,
          "time": 16.8,
          "velocity": 0.7559055118110236
        },
        {
          "duration": 0.3958333333333357,
          "durationTicks": 95,
          "midi": 98,
          "name": "D7",
          "ticks": 4128,
          "time": 17.2,
          "velocity": 0.7559055118110236
        },
        {
          "duration": 0.19583333333333286,
          "durationTicks": 47,
          "midi": 97,
          "name": "C#7",
          "ticks": 4224,
          "time": 17.6,
          "velocity": 0.7559055118110236
        },
        {
          "duration": 0.19583333333333286,
          "durationTicks": 47,
          "midi": 98,
          "name": "D7",
          "ticks": 4272,
          "time": 17.8,
          "velocity": 0.7559055118110236
        },
        {
          "duration": 0.1958333333333364,
          "durationTicks": 47,
          "midi": 100,
          "name": "E7",
          "ticks": 4320,
          "time": 18,
          "velocity": 0.7559055118110236
        },
        {
          "duration": 0.3958333333333357,
          "durationTicks": 95,
          "midi": 93,
          "name": "A6",
          "ticks": 4368,
          "time": 18.2,
          "velocity": 0.7559055118110236
        },
        {
          "duration": 0.39583333333333215,
          "durationTicks": 95,
          "midi": 91,
          "name": "G6",
          "ticks": 4464,
          "time": 18.6,
          "velocity": 0.7559055118110236
        },
        {
          "duration": 0.3958333333333357,
          "durationTicks": 95,
          "midi": 93,
          "name": "A6",
          "ticks": 4560,
          "time": 19,
          "velocity": 0.7559055118110236
        },
        {
          "duration": 0.19583333333333286,
          "durationTicks": 47,
          "midi": 90,
          "name": "F#6",
          "ticks": 4704,
          "time": 19.6,
          "velocity": 0.7559055118110236
        },
        {
          "duration": 0.1958333333333364,
          "durationTicks": 47,
          "midi": 90,
          "name": "F#6",
          "ticks": 4752,
          "time": 19.8,
          "velocity": 0.7559055118110236
        },
        {
          "duration": 0.1958333333333364,
          "durationTicks": 47,
          "midi": 93,
          "name": "A6",
          "ticks": 4800,
          "time": 20,
          "velocity": 0.7559055118110236
        },
        {
          "duration": 0.19583333333333286,
          "durationTicks": 47,
          "midi": 97,
          "name": "C#7",
          "ticks": 4848,
          "time": 20.200000000000003,
          "velocity": 0.7559055118110236
        },
        {
          "duration": 0.3958333333333357,
          "durationTicks": 95,
          "midi": 97,
          "name": "C#7",
          "ticks": 4944,
          "time": 20.6,
          "velocity": 0.7559055118110236
        },
        {
          "duration": 0.1958333333333364,
          "durationTicks": 47,
          "midi": 98,
          "name": "D7",
          "ticks": 5040,
          "time": 21,
          "velocity": 0.7559055118110236
        },
        {
          "duration": 0.39583333333333215,
          "durationTicks": 95,
          "midi": 98,
          "name": "D7",
          "ticks": 5088,
          "time": 21.200000000000003,
          "velocity": 0.7559055118110236
        },
        {
          "duration": 0.3958333333333357,
          "durationTicks": 95,
          "midi": 90,
          "name": "F#6",
          "ticks": 5232,
          "time": 21.8,
          "velocity": 0.7559055118110236
        },
        {
          "duration": 0.5958333333333314,
          "durationTicks": 143,
          "midi": 91,
          "name": "G6",
          "ticks": 5328,
          "time": 22.200000000000003,
          "velocity": 0.7559055118110236
        },
        {
          "duration": 0.1958333333333364,
          "durationTicks": 47,
          "midi": 88,
          "name": "E6",
          "ticks": 5472,
          "time": 22.8,
          "velocity": 0.7559055118110236
        },
        {
          "duration": 0.1958333333333364,
          "durationTicks": 47,
          "midi": 88,
          "name": "E6",
          "ticks": 5520,
          "time": 23,
          "velocity": 0.7559055118110236
        },
        {
          "duration": 0.19583333333333286,
          "durationTicks": 47,
          "midi": 100,
          "name": "E7",
          "ticks": 5568,
          "time": 23.200000000000003,
          "velocity": 0.7559055118110236
        },
        {
          "duration": 0.39583333333333215,
          "durationTicks": 95,
          "midi": 98,
          "name": "D7",
          "ticks": 5616,
          "time": 23.400000000000002,
          "velocity": 0.7559055118110236
        },
        {
          "duration": 0.1958333333333364,
          "durationTicks": 47,
          "midi": 97,
          "name": "C#7",
          "ticks": 5712,
          "time": 23.8,
          "velocity": 0.7559055118110236
        },
        {
          "duration": 0.19583333333332575,
          "durationTicks": 47,
          "midi": 88,
          "name": "E6",
          "ticks": 9216,
          "time": 38.400000000000006,
          "velocity": 0.7559055118110236
        },
        {
          "duration": 0.19583333333333286,
          "durationTicks": 47,
          "midi": 90,
          "name": "F#6",
          "ticks": 9264,
          "time": 38.6,
          "velocity": 0.7559055118110236
        },
        {
          "duration": 0.19583333333333286,
          "durationTicks": 47,
          "midi": 91,
          "name": "G6",
          "ticks": 9312,
          "time": 38.800000000000004,
          "velocity": 0.7559055118110236
        },
        {
          "duration": 0.19583333333333286,
          "durationTicks": 47,
          "midi": 93,
          "name": "A6",
          "ticks": 9360,
          "time": 39,
          "velocity": 0.7559055118110236
        },
        {
          "duration": 0.19583333333333286,
          "durationTicks": 47,
          "midi": 95,
          "name": "B6",
          "ticks": 9408,
          "time": 39.2,
          "velocity": 0.7559055118110236
        },
        {
          "duration": 0.19583333333332575,
          "durationTicks": 47,
          "midi": 97,
          "name": "C#7",
          "ticks": 9456,
          "time": 39.400000000000006,
          "velocity": 0.7559055118110236
        },
        {
          "duration": 0.19583333333333286,
          "durationTicks": 47,
          "midi": 98,
          "name": "D7",
          "ticks": 9504,
          "time": 39.6,
          "velocity": 0.7559055118110236
        },
        {
          "duration": 0.19583333333333286,
          "durationTicks": 47,
          "midi": 100,
          "name": "E7",
          "ticks": 9552,
          "time": 39.800000000000004,
          "velocity": 0.7559055118110236
        },
        {
          "duration": 0.3958333333333357,
          "durationTicks": 95,
          "midi": 102,
          "name": "F#7",
          "ticks": 9600,
          "time": 40,
          "velocity": 0.7559055118110236
        },
        {
          "duration": 0.3958333333333357,
          "durationTicks": 95,
          "midi": 90,
          "name": "F#6",
          "ticks": 9600,
          "time": 40,
          "velocity": 0.7559055118110236
        },
        {
          "duration": 0.19583333333332575,
          "durationTicks": 47,
          "midi": 87,
          "name": "D#6",
          "ticks": 9696,
          "time": 40.400000000000006,
          "velocity": 0.7559055118110236
        },
        {
          "duration": 0.19583333333333286,
          "durationTicks": 47,
          "midi": 87,
          "name": "D#6",
          "ticks": 9744,
          "time": 40.6,
          "velocity": 0.7559055118110236
        },
        {
          "duration": 0.19583333333333286,
          "durationTicks": 47,
          "midi": 90,
          "name": "F#6",
          "ticks": 9792,
          "time": 40.800000000000004,
          "velocity": 0.7559055118110236
        },
        {
          "duration": 0.19583333333333286,
          "durationTicks": 47,
          "midi": 94,
          "name": "A#6",
          "ticks": 9840,
          "time": 41,
          "velocity": 0.7559055118110236
        },
        {
          "duration": 0.3958333333333286,
          "durationTicks": 95,
          "midi": 94,
          "name": "A#6",
          "ticks": 9936,
          "time": 41.400000000000006,
          "velocity": 0.7559055118110236
        },
        {
          "duration": 0.19583333333333286,
          "durationTicks": 47,
          "midi": 95,
          "name": "B6",
          "ticks": 10032,
          "time": 41.800000000000004,
          "velocity": 0.7559055118110236
        },
        {
          "duration": 0.3958333333333357,
          "durationTicks": 95,
          "midi": 95,
          "name": "B6",
          "ticks": 10080,
          "time": 42,
          "velocity": 0.7559055118110236
        },
        {
          "duration": 0.3958333333333357,
          "durationTicks": 95,
          "midi": 87,
          "name": "D#6",
          "ticks": 10224,
          "time": 42.6,
          "velocity": 0.7559055118110236
        },
        {
          "duration": 0.5958333333333314,
          "durationTicks": 143,
          "midi": 88,
          "name": "E6",
          "ticks": 10320,
          "time": 43,
          "velocity": 0.7559055118110236
        },
        {
          "duration": 0.19583333333333286,
          "durationTicks": 47,
          "midi": 85,
          "name": "C#6",
          "ticks": 10464,
          "time": 43.6,
          "velocity": 0.7559055118110236
        },
        {
          "duration": 0.19583333333333286,
          "durationTicks": 47,
          "midi": 85,
          "name": "C#6",
          "ticks": 10512,
          "time": 43.800000000000004,
          "velocity": 0.7559055118110236
        },
        {
          "duration": 0.3958333333333357,
          "durationTicks": 95,
          "midi": 97,
          "name": "C#7",
          "ticks": 10560,
          "time": 44,
          "velocity": 0.7559055118110236
        },
        {
          "duration": 0.3958333333333286,
          "durationTicks": 95,
          "midi": 95,
          "name": "B6",
          "ticks": 10656,
          "time": 44.400000000000006,
          "velocity": 0.7559055118110236
        },
        {
          "duration": 0.19583333333333286,
          "durationTicks": 47,
          "midi": 94,
          "name": "A#6",
          "ticks": 10752,
          "time": 44.800000000000004,
          "velocity": 0.7559055118110236
        },
        {
          "duration": 0.19583333333333286,
          "durationTicks": 47,
          "midi": 95,
          "name": "B6",
          "ticks": 10800,
          "time": 45,
          "velocity": 0.7559055118110236
        },
        {
          "duration": 0.19583333333333286,
          "durationTicks": 47,
          "midi": 97,
          "name": "C#7",
          "ticks": 10848,
          "time": 45.2,
          "velocity": 0.7559055118110236
        },
        {
          "duration": 0.3958333333333286,
          "durationTicks": 95,
          "midi": 90,
          "name": "F#6",
          "ticks": 10896,
          "time": 45.400000000000006,
          "velocity": 0.7559055118110236
        },
        {
          "duration": 0.3958333333333286,
          "durationTicks": 95,
          "midi": 88,
          "name": "E6",
          "ticks": 10992,
          "time": 45.800000000000004,
          "velocity": 0.7559055118110236
        },
        {
          "duration": 0.3958333333333286,
          "durationTicks": 95,
          "midi": 90,
          "name": "F#6",
          "ticks": 11088,
          "time": 46.2,
          "velocity": 0.7559055118110236
        },
        {
          "duration": 0.19583333333333286,
          "durationTicks": 47,
          "midi": 87,
          "name": "D#6",
          "ticks": 11232,
          "time": 46.800000000000004,
          "velocity": 0.7559055118110236
        },
        {
          "duration": 0.19583333333333286,
          "durationTicks": 47,
          "midi": 87,
          "name": "D#6",
          "ticks": 11280,
          "time": 47,
          "velocity": 0.7559055118110236
        },
        {
          "duration": 0.19583333333333286,
          "durationTicks": 47,
          "midi": 90,
          "name": "F#6",
          "ticks": 11328,
          "time": 47.2,
          "velocity": 0.7559055118110236
        },
        {
          "duration": 0.19583333333332575,
          "durationTicks": 47,
          "midi": 94,
          "name": "A#6",
          "ticks": 11376,
          "time": 47.400000000000006,
          "velocity": 0.7559055118110236
        },
        {
          "duration": 0.3958333333333286,
          "durationTicks": 95,
          "midi": 94,
          "name": "A#6",
          "ticks": 11472,
          "time": 47.800000000000004,
          "velocity": 0.7559055118110236
        },
        {
          "duration": 0.19583333333333286,
          "durationTicks": 47,
          "midi": 95,
          "name": "B6",
          "ticks": 11568,
          "time": 48.2,
          "velocity": 0.7559055118110236
        },
        {
          "duration": 0.3958333333333286,
          "durationTicks": 95,
          "midi": 95,
          "name": "B6",
          "ticks": 11616,
          "time": 48.400000000000006,
          "velocity": 0.7559055118110236
        },
        {
          "duration": 0.3958333333333357,
          "durationTicks": 95,
          "midi": 87,
          "name": "D#6",
          "ticks": 11760,
          "time": 49,
          "velocity": 0.7559055118110236
        },
        {
          "duration": 0.5958333333333314,
          "durationTicks": 143,
          "midi": 88,
          "name": "E6",
          "ticks": 11856,
          "time": 49.400000000000006,
          "velocity": 0.7559055118110236
        },
        {
          "duration": 0.19583333333333286,
          "durationTicks": 47,
          "midi": 85,
          "name": "C#6",
          "ticks": 12000,
          "time": 50,
          "velocity": 0.7559055118110236
        },
        {
          "duration": 0.19583333333333286,
          "durationTicks": 47,
          "midi": 85,
          "name": "C#6",
          "ticks": 12048,
          "time": 50.2,
          "velocity": 0.7559055118110236
        },
        {
          "duration": 0.19583333333332575,
          "durationTicks": 47,
          "midi": 97,
          "name": "C#7",
          "ticks": 12096,
          "time": 50.400000000000006,
          "velocity": 0.7559055118110236
        },
        {
          "duration": 0.3958333333333357,
          "durationTicks": 95,
          "midi": 95,
          "name": "B6",
          "ticks": 12144,
          "time": 50.6,
          "velocity": 0.7559055118110236
        },
        {
          "duration": 0.19583333333333286,
          "durationTicks": 47,
          "midi": 94,
          "name": "A#6",
          "ticks": 12240,
          "time": 51,
          "velocity": 0.7559055118110236
        },
        {
          "duration": 0.19583333333333997,
          "durationTicks": 47,
          "midi": 90,
          "name": "F#6",
          "ticks": 12384,
          "time": 51.6,
          "velocity": 0.7559055118110236
        },
        {
          "duration": 0.19583333333333286,
          "durationTicks": 47,
          "midi": 90,
          "name": "F#6",
          "ticks": 12432,
          "time": 51.800000000000004,
          "velocity": 0.7559055118110236
        },
        {
          "duration": 0.19583333333333997,
          "durationTicks": 47,
          "midi": 99,
          "name": "D#7",
          "ticks": 12480,
          "time": 52,
          "velocity": 0.7559055118110236
        },
        {
          "duration": 0.3958333333333357,
          "durationTicks": 95,
          "midi": 97,
          "name": "C#7",
          "ticks": 12528,
          "time": 52.2,
          "velocity": 0.7559055118110236
        },
        {
          "duration": 0.19583333333333997,
          "durationTicks": 47,
          "midi": 90,
          "name": "F#6",
          "ticks": 12768,
          "time": 53.2,
          "velocity": 0.7559055118110236
        },
        {
          "duration": 0.19583333333333286,
          "durationTicks": 47,
          "midi": 90,
          "name": "F#6",
          "ticks": 12816,
          "time": 53.400000000000006,
          "velocity": 0.7559055118110236
        },
        {
          "duration": 0.19583333333333997,
          "durationTicks": 47,
          "midi": 99,
          "name": "D#7",
          "ticks": 12864,
          "time": 53.6,
          "velocity": 0.7559055118110236
        },
        {
          "duration": 0.3958333333333357,
          "durationTicks": 95,
          "midi": 97,
          "name": "C#7",
          "ticks": 12912,
          "time": 53.800000000000004,
          "velocity": 0.7559055118110236
        },
        {
          "duration": 0.19583333333333286,
          "durationTicks": 47,
          "midi": 99,
          "name": "D#7",
          "ticks": 13056,
          "time": 54.400000000000006,
          "velocity": 0.7559055118110236
        },
        {
          "duration": 0.19583333333333997,
          "durationTicks": 47,
          "midi": 99,
          "name": "D#7",
          "ticks": 13104,
          "time": 54.6,
          "velocity": 0.7559055118110236
        },
        {
          "duration": 0.19583333333333286,
          "durationTicks": 47,
          "midi": 99,
          "name": "D#7",
          "ticks": 13152,
          "time": 54.800000000000004,
          "velocity": 0.7559055118110236
        },
        {
          "duration": 0.3958333333333428,
          "durationTicks": 95,
          "midi": 99,
          "name": "D#7",
          "ticks": 13200,
          "time": 55,
          "velocity": 0.7559055118110236
        },
        {
          "duration": 0.3958333333333357,
          "durationTicks": 95,
          "midi": 97,
          "name": "C#7",
          "ticks": 13296,
          "time": 55.400000000000006,
          "velocity": 0.7559055118110236
        },
        {
          "duration": 0.3958333333333357,
          "durationTicks": 95,
          "midi": 99,
          "name": "D#7",
          "ticks": 13392,
          "time": 55.800000000000004,
          "velocity": 0.7559055118110236
        },
        {
          "duration": 0.19583333333333997,
          "durationTicks": 47,
          "midi": 102,
          "name": "F#7",
          "ticks": 13488,
          "time": 56.2,
          "velocity": 0.7559055118110236
        },
        {
          "duration": 0.3958333333333357,
          "durationTicks": 95,
          "midi": 99,
          "name": "D#7",
          "ticks": 13536,
          "time": 56.400000000000006,
          "velocity": 0.7559055118110236
        },
        {
          "duration": 0.7958333333333343,
          "durationTicks": 191,
          "midi": 107,
          "name": "B7",
          "ticks": 13632,
          "time": 56.800000000000004,
          "velocity": 0.7559055118110236
        },
        {
          "duration": 0.7958333333333343,
          "durationTicks": 191,
          "midi": 102,
          "name": "F#7",
          "ticks": 13632,
          "time": 56.800000000000004,
          "velocity": 0.7559055118110236
        },
        {
          "duration": 0.7958333333333343,
          "durationTicks": 191,
          "midi": 99,
          "name": "D#7",
          "ticks": 13632,
          "time": 56.800000000000004,
          "velocity": 0.7559055118110236
        },
        {
          "duration": 0.7958333333333343,
          "durationTicks": 191,
          "midi": 95,
          "name": "B6",
          "ticks": 13632,
          "time": 56.800000000000004,
          "velocity": 0.7559055118110236
        }
      ]
    },
    {
      "channel": 0,
      "controlChanges": {
        "6": [
          {
            "number": 6,
            "ticks": 0,
            "time": 0,
            "value": 0.09448818897637795
          },
          {
            "number": 6,
            "ticks": 0,
            "time": 0,
            "value": 0.09448818897637795
          },
          {
            "number": 6,
            "ticks": 0,
            "time": 0,
            "value": 0.09448818897637795
          }
        ],
        "7": [
          {
            "number": 7,
            "ticks": 0,
            "time": 0,
            "value": 0.7874015748031497
          },
          {
            "number": 7,
            "ticks": 0,
            "time": 0,
            "value": 0.7874015748031497
          },
          {
            "number": 7,
            "ticks": 0,
            "time": 0,
            "value": 0.7874015748031497
          },
          {
            "number": 7,
            "ticks": 0,
            "time": 0,
            "value": 0.7874015748031497
          },
          {
            "number": 7,
            "ticks": 0,
            "time": 0,
            "value": 0.7874015748031497
          },
          {
            "number": 7,
            "ticks": 0,
            "time": 0,
            "value": 0.7874015748031497
          }
        ],
        "10": [
          {
            "number": 10,
            "ticks": 0,
            "time": 0,
            "value": 0.5039370078740157
          },
          {
            "number": 10,
            "ticks": 0,
            "time": 0,
            "value": 0.5039370078740157
          },
          {
            "number": 10,
            "ticks": 0,
            "time": 0,
            "value": 0.5039370078740157
          },
          {
            "number": 10,
            "ticks": 0,
            "time": 0,
            "value": 0.5039370078740157
          },
          {
            "number": 10,
            "ticks": 0,
            "time": 0,
            "value": 0.5039370078740157
          },
          {
            "number": 10,
            "ticks": 0,
            "time": 0,
            "value": 0.5039370078740157
          }
        ],
        "91": [
          {
            "number": 91,
            "ticks": 0,
            "time": 0,
            "value": 0
          },
          {
            "number": 91,
            "ticks": 0,
            "time": 0,
            "value": 0
          },
          {
            "number": 91,
            "ticks": 0,
            "time": 0,
            "value": 0
          },
          {
            "number": 91,
            "ticks": 0,
            "time": 0,
            "value": 0
          }
        ],
        "93": [
          {
            "number": 93,
            "ticks": 0,
            "time": 0,
            "value": 0
          },
          {
            "number": 93,
            "ticks": 0,
            "time": 0,
            "value": 0
          },
          {
            "number": 93,
            "ticks": 0,
            "time": 0,
            "value": 0
          },
          {
            "number": 93,
            "ticks": 0,
            "time": 0,
            "value": 0
          }
        ],
        "100": [
          {
            "number": 100,
            "ticks": 0,
            "time": 0,
            "value": 0
          },
          {
            "number": 100,
            "ticks": 0,
            "time": 0,
            "value": 0
          },
          {
            "number": 100,
            "ticks": 0,
            "time": 0,
            "value": 0
          }
        ],
        "101": [
          {
            "number": 101,
            "ticks": 0,
            "time": 0,
            "value": 0
          },
          {
            "number": 101,
            "ticks": 0,
            "time": 0,
            "value": 0
          },
          {
            "number": 101,
            "ticks": 0,
            "time": 0,
            "value": 0
          }
        ]
      },
      "pitchBends": [
        {
          "ticks": 0,
          "time": 0,
          "value": 0
        },
        {
          "ticks": 0,
          "time": 0,
          "value": 0
        },
        {
          "ticks": 0,
          "time": 0,
          "value": 0
        },
        {
          "ticks": 0,
          "time": 0,
          "value": 0
        }
      ],
      "instrument": {
        "family": "piano",
        "number": 0,
        "name": "acoustic grand piano"
      },
      "name": "Marimba",
      "notes": [],
      "endOfTrackTicks": 13843
    },
    {
      "channel": 3,
      "controlChanges": {
        "6": [
          {
            "number": 6,
            "ticks": 13824,
            "time": 57.6,
            "value": 0.09448818897637795
          },
          {
            "number": 6,
            "ticks": 13825,
            "time": 57.60416666666667,
            "value": 0.09448818897637795
          }
        ],
        "7": [
          {
            "number": 7,
            "ticks": 13824,
            "time": 57.6,
            "value": 0.7874015748031497
          },
          {
            "number": 7,
            "ticks": 13824,
            "time": 57.6,
            "value": 0.7874015748031497
          },
          {
            "number": 7,
            "ticks": 13825,
            "time": 57.60416666666667,
            "value": 0.7874015748031497
          }
        ],
        "10": [
          {
            "number": 10,
            "ticks": 13824,
            "time": 57.6,
            "value": 0.5039370078740157
          },
          {
            "number": 10,
            "ticks": 13824,
            "time": 57.6,
            "value": 0.5039370078740157
          },
          {
            "number": 10,
            "ticks": 13825,
            "time": 57.60416666666667,
            "value": 0.5039370078740157
          }
        ],
        "91": [
          {
            "number": 91,
            "ticks": 0,
            "time": 0,
            "value": 0
          },
          {
            "number": 91,
            "ticks": 13824,
            "time": 57.6,
            "value": 0
          },
          {
            "number": 91,
            "ticks": 13824,
            "time": 57.6,
            "value": 0
          },
          {
            "number": 91,
            "ticks": 13825,
            "time": 57.60416666666667,
            "value": 0
          }
        ],
        "93": [
          {
            "number": 93,
            "ticks": 0,
            "time": 0,
            "value": 0
          },
          {
            "number": 93,
            "ticks": 13824,
            "time": 57.6,
            "value": 0
          },
          {
            "number": 93,
            "ticks": 13824,
            "time": 57.6,
            "value": 0
          },
          {
            "number": 93,
            "ticks": 13825,
            "time": 57.60416666666667,
            "value": 0
          }
        ],
        "100": [
          {
            "number": 100,
            "ticks": 13824,
            "time": 57.6,
            "value": 0
          },
          {
            "number": 100,
            "ticks": 13825,
            "time": 57.60416666666667,
            "value": 0
          }
        ],
        "101": [
          {
            "number": 101,
            "ticks": 13824,
            "time": 57.6,
            "value": 0
          },
          {
            "number": 101,
            "ticks": 13825,
            "time": 57.60416666666667,
            "value": 0
          }
        ]
      },
      "pitchBends": [
        {
          "ticks": 13824,
          "time": 57.6,
          "value": 0
        },
        {
          "ticks": 13825,
          "time": 57.60416666666667,
          "value": 0
        }
      ],
      "instrument": {
        "family": "chromatic percussion",
        "number": 12,
        "name": "marimba"
      },
      "name": "",
      "notes": [
        {
          "duration": 0.19583333333333464,
          "durationTicks": 47,
          "midi": 76,
          "name": "E5",
          "ticks": 3072,
          "time": 12.8,
          "velocity": 0.3858267716535433
        },
        {
          "duration": 0.19583333333333464,
          "durationTicks": 47,
          "midi": 73,
          "name": "C#5",
          "ticks": 3072,
          "time": 12.8,
          "velocity": 0.3858267716535433
        },
        {
          "duration": 0.19583333333333464,
          "durationTicks": 47,
          "midi": 69,
          "name": "A4",
          "ticks": 3072,
          "time": 12.8,
          "velocity": 0.3858267716535433
        },
        {
          "duration": 0.19583333333333464,
          "durationTicks": 47,
          "midi": 66,
          "name": "F#4",
          "ticks": 3072,
          "time": 12.8,
          "velocity": 0.3858267716535433
        },
        {
          "duration": 0.19583333333333464,
          "durationTicks": 47,
          "midi": 76,
          "name": "E5",
          "ticks": 3168,
          "time": 13.200000000000001,
          "velocity": 0.3858267716535433
        },
        {
          "duration": 0.19583333333333464,
          "durationTicks": 47,
          "midi": 73,
          "name": "C#5",
          "ticks": 3168,
          "time": 13.200000000000001,
          "velocity": 0.3858267716535433
        },
        {
          "duration": 0.19583333333333464,
          "durationTicks": 47,
          "midi": 69,
          "name": "A4",
          "ticks": 3168,
          "time": 13.200000000000001,
          "velocity": 0.3858267716535433
        },
        {
          "duration": 0.19583333333333464,
          "durationTicks": 47,
          "midi": 66,
          "name": "F#4",
          "ticks": 3168,
          "time": 13.200000000000001,
          "velocity": 0.3858267716535433
        },
        {
          "duration": 0.19583333333333286,
          "durationTicks": 47,
          "midi": 76,
          "name": "E5",
          "ticks": 3264,
          "time": 13.600000000000001,
          "velocity": 0.3858267716535433
        },
        {
          "duration": 0.19583333333333286,
          "durationTicks": 47,
          "midi": 73,
          "name": "C#5",
          "ticks": 3264,
          "time": 13.600000000000001,
          "velocity": 0.3858267716535433
        },
        {
          "duration": 0.19583333333333286,
          "durationTicks": 47,
          "midi": 69,
          "name": "A4",
          "ticks": 3264,
          "time": 13.600000000000001,
          "velocity": 0.3858267716535433
        },
        {
          "duration": 0.19583333333333286,
          "durationTicks": 47,
          "midi": 66,
          "name": "F#4",
          "ticks": 3264,
          "time": 13.600000000000001,
          "velocity": 0.3858267716535433
        },
        {
          "duration": 0.19583333333333464,
          "durationTicks": 47,
          "midi": 76,
          "name": "E5",
          "ticks": 3360,
          "time": 14,
          "velocity": 0.3858267716535433
        },
        {
          "duration": 0.19583333333333464,
          "durationTicks": 47,
          "midi": 73,
          "name": "C#5",
          "ticks": 3360,
          "time": 14,
          "velocity": 0.3858267716535433
        },
        {
          "duration": 0.19583333333333464,
          "durationTicks": 47,
          "midi": 69,
          "name": "A4",
          "ticks": 3360,
          "time": 14,
          "velocity": 0.3858267716535433
        },
        {
          "duration": 0.19583333333333464,
          "durationTicks": 47,
          "midi": 66,
          "name": "F#4",
          "ticks": 3360,
          "time": 14,
          "velocity": 0.3858267716535433
        },
        {
          "duration": 0.19583333333333464,
          "durationTicks": 47,
          "midi": 74,
          "name": "D5",
          "ticks": 3456,
          "time": 14.4,
          "velocity": 0.3858267716535433
        },
        {
          "duration": 0.19583333333333464,
          "durationTicks": 47,
          "midi": 71,
          "name": "B4",
          "ticks": 3456,
          "time": 14.4,
          "velocity": 0.3858267716535433
        },
        {
          "duration": 0.19583333333333464,
          "durationTicks": 47,
          "midi": 69,
          "name": "A4",
          "ticks": 3456,
          "time": 14.4,
          "velocity": 0.3858267716535433
        },
        {
          "duration": 0.19583333333333464,
          "durationTicks": 47,
          "midi": 66,
          "name": "F#4",
          "ticks": 3456,
          "time": 14.4,
          "velocity": 0.3858267716535433
        },
        {
          "duration": 0.19583333333333464,
          "durationTicks": 47,
          "midi": 74,
          "name": "D5",
          "ticks": 3552,
          "time": 14.8,
          "velocity": 0.3858267716535433
        },
        {
          "duration": 0.19583333333333464,
          "durationTicks": 47,
          "midi": 71,
          "name": "B4",
          "ticks": 3552,
          "time": 14.8,
          "velocity": 0.3858267716535433
        },
        {
          "duration": 0.19583333333333464,
          "durationTicks": 47,
          "midi": 69,
          "name": "A4",
          "ticks": 3552,
          "time": 14.8,
          "velocity": 0.3858267716535433
        },
        {
          "duration": 0.19583333333333464,
          "durationTicks": 47,
          "midi": 66,
          "name": "F#4",
          "ticks": 3552,
          "time": 14.8,
          "velocity": 0.3858267716535433
        },
        {
          "duration": 0.19583333333333464,
          "durationTicks": 47,
          "midi": 74,
          "name": "D5",
          "ticks": 3648,
          "time": 15.200000000000001,
          "velocity": 0.3858267716535433
        },
        {
          "duration": 0.19583333333333464,
          "durationTicks": 47,
          "midi": 71,
          "name": "B4",
          "ticks": 3648,
          "time": 15.200000000000001,
          "velocity": 0.3858267716535433
        },
        {
          "duration": 0.19583333333333464,
          "durationTicks": 47,
          "midi": 69,
          "name": "A4",
          "ticks": 3648,
          "time": 15.200000000000001,
          "velocity": 0.3858267716535433
        },
        {
          "duration": 0.19583333333333464,
          "durationTicks": 47,
          "midi": 66,
          "name": "F#4",
          "ticks": 3648,
          "time": 15.200000000000001,
          "velocity": 0.3858267716535433
        },
        {
          "duration": 0.19583333333333286,
          "durationTicks": 47,
          "midi": 74,
          "name": "D5",
          "ticks": 3744,
          "time": 15.600000000000001,
          "velocity": 0.3858267716535433
        },
        {
          "duration": 0.19583333333333286,
          "durationTicks": 47,
          "midi": 71,
          "name": "B4",
          "ticks": 3744,
          "time": 15.600000000000001,
          "velocity": 0.3858267716535433
        },
        {
          "duration": 0.19583333333333286,
          "durationTicks": 47,
          "midi": 69,
          "name": "A4",
          "ticks": 3744,
          "time": 15.600000000000001,
          "velocity": 0.3858267716535433
        },
        {
          "duration": 0.19583333333333286,
          "durationTicks": 47,
          "midi": 66,
          "name": "F#4",
          "ticks": 3744,
          "time": 15.600000000000001,
          "velocity": 0.3858267716535433
        },
        {
          "duration": 0.1958333333333364,
          "durationTicks": 47,
          "midi": 79,
          "name": "G5",
          "ticks": 3840,
          "time": 16,
          "velocity": 0.3858267716535433
        },
        {
          "duration": 0.1958333333333364,
          "durationTicks": 47,
          "midi": 74,
          "name": "D5",
          "ticks": 3840,
          "time": 16,
          "velocity": 0.3858267716535433
        },
        {
          "duration": 0.1958333333333364,
          "durationTicks": 47,
          "midi": 71,
          "name": "B4",
          "ticks": 3840,
          "time": 16,
          "velocity": 0.3858267716535433
        },
        {
          "duration": 0.1958333333333364,
          "durationTicks": 47,
          "midi": 69,
          "name": "A4",
          "ticks": 3840,
          "time": 16,
          "velocity": 0.3858267716535433
        },
        {
          "duration": 0.1958333333333364,
          "durationTicks": 47,
          "midi": 67,
          "name": "G4",
          "ticks": 3840,
          "time": 16,
          "velocity": 0.3858267716535433
        },
        {
          "duration": 0.19583333333333286,
          "durationTicks": 47,
          "midi": 79,
          "name": "G5",
          "ticks": 3936,
          "time": 16.400000000000002,
          "velocity": 0.3858267716535433
        },
        {
          "duration": 0.19583333333333286,
          "durationTicks": 47,
          "midi": 74,
          "name": "D5",
          "ticks": 3936,
          "time": 16.400000000000002,
          "velocity": 0.3858267716535433
        },
        {
          "duration": 0.19583333333333286,
          "durationTicks": 47,
          "midi": 71,
          "name": "B4",
          "ticks": 3936,
          "time": 16.400000000000002,
          "velocity": 0.3858267716535433
        },
        {
          "duration": 0.19583333333333286,
          "durationTicks": 47,
          "midi": 69,
          "name": "A4",
          "ticks": 3936,
          "time": 16.400000000000002,
          "velocity": 0.3858267716535433
        },
        {
          "duration": 0.19583333333333286,
          "durationTicks": 47,
          "midi": 67,
          "name": "G4",
          "ticks": 3936,
          "time": 16.400000000000002,
          "velocity": 0.3858267716535433
        },
        {
          "duration": 0.19583333333333286,
          "durationTicks": 47,
          "midi": 79,
          "name": "G5",
          "ticks": 4032,
          "time": 16.8,
          "velocity": 0.3858267716535433
        },
        {
          "duration": 0.19583333333333286,
          "durationTicks": 47,
          "midi": 74,
          "name": "D5",
          "ticks": 4032,
          "time": 16.8,
          "velocity": 0.3858267716535433
        },
        {
          "duration": 0.19583333333333286,
          "durationTicks": 47,
          "midi": 71,
          "name": "B4",
          "ticks": 4032,
          "time": 16.8,
          "velocity": 0.3858267716535433
        },
        {
          "duration": 0.19583333333333286,
          "durationTicks": 47,
          "midi": 69,
          "name": "A4",
          "ticks": 4032,
          "time": 16.8,
          "velocity": 0.3858267716535433
        },
        {
          "duration": 0.19583333333333286,
          "durationTicks": 47,
          "midi": 67,
          "name": "G4",
          "ticks": 4032,
          "time": 16.8,
          "velocity": 0.3858267716535433
        },
        {
          "duration": 0.1958333333333364,
          "durationTicks": 47,
          "midi": 79,
          "name": "G5",
          "ticks": 4128,
          "time": 17.2,
          "velocity": 0.3858267716535433
        },
        {
          "duration": 0.1958333333333364,
          "durationTicks": 47,
          "midi": 74,
          "name": "D5",
          "ticks": 4128,
          "time": 17.2,
          "velocity": 0.3858267716535433
        },
        {
          "duration": 0.1958333333333364,
          "durationTicks": 47,
          "midi": 71,
          "name": "B4",
          "ticks": 4128,
          "time": 17.2,
          "velocity": 0.3858267716535433
        },
        {
          "duration": 0.1958333333333364,
          "durationTicks": 47,
          "midi": 69,
          "name": "A4",
          "ticks": 4128,
          "time": 17.2,
          "velocity": 0.3858267716535433
        },
        {
          "duration": 0.1958333333333364,
          "durationTicks": 47,
          "midi": 67,
          "name": "G4",
          "ticks": 4128,
          "time": 17.2,
          "velocity": 0.3858267716535433
        },
        {
          "duration": 0.19583333333333286,
          "durationTicks": 47,
          "midi": 76,
          "name": "E5",
          "ticks": 4224,
          "time": 17.6,
          "velocity": 0.3858267716535433
        },
        {
          "duration": 0.19583333333333286,
          "durationTicks": 47,
          "midi": 73,
          "name": "C#5",
          "ticks": 4224,
          "time": 17.6,
          "velocity": 0.3858267716535433
        },
        {
          "duration": 0.19583333333333286,
          "durationTicks": 47,
          "midi": 69,
          "name": "A4",
          "ticks": 4224,
          "time": 17.6,
          "velocity": 0.3858267716535433
        },
        {
          "duration": 0.19583333333333286,
          "durationTicks": 47,
          "midi": 67,
          "name": "G4",
          "ticks": 4224,
          "time": 17.6,
          "velocity": 0.3858267716535433
        },
        {
          "duration": 0.1958333333333364,
          "durationTicks": 47,
          "midi": 76,
          "name": "E5",
          "ticks": 4320,
          "time": 18,
          "velocity": 0.3858267716535433
        },
        {
          "duration": 0.1958333333333364,
          "durationTicks": 47,
          "midi": 73,
          "name": "C#5",
          "ticks": 4320,
          "time": 18,
          "velocity": 0.3858267716535433
        },
        {
          "duration": 0.1958333333333364,
          "durationTicks": 47,
          "midi": 69,
          "name": "A4",
          "ticks": 4320,
          "time": 18,
          "velocity": 0.3858267716535433
        },
        {
          "duration": 0.1958333333333364,
          "durationTicks": 47,
          "midi": 67,
          "name": "G4",
          "ticks": 4320,
          "time": 18,
          "velocity": 0.3858267716535433
        },
        {
          "duration": 0.19583333333333286,
          "durationTicks": 47,
          "midi": 76,
          "name": "E5",
          "ticks": 4416,
          "time": 18.400000000000002,
          "velocity": 0.3858267716535433
        },
        {
          "duration": 0.19583333333333286,
          "durationTicks": 47,
          "midi": 73,
          "name": "C#5",
          "ticks": 4416,
          "time": 18.400000000000002,
          "velocity": 0.3858267716535433
        },
        {
          "duration": 0.19583333333333286,
          "durationTicks": 47,
          "midi": 69,
          "name": "A4",
          "ticks": 4416,
          "time": 18.400000000000002,
          "velocity": 0.3858267716535433
        },
        {
          "duration": 0.19583333333333286,
          "durationTicks": 47,
          "midi": 67,
          "name": "G4",
          "ticks": 4416,
          "time": 18.400000000000002,
          "velocity": 0.3858267716535433
        },
        {
          "duration": 0.19583333333333286,
          "durationTicks": 47,
          "midi": 76,
          "name": "E5",
          "ticks": 4512,
          "time": 18.8,
          "velocity": 0.3858267716535433
        },
        {
          "duration": 0.19583333333333286,
          "durationTicks": 47,
          "midi": 73,
          "name": "C#5",
          "ticks": 4512,
          "time": 18.8,
          "velocity": 0.3858267716535433
        },
        {
          "duration": 0.19583333333333286,
          "durationTicks": 47,
          "midi": 69,
          "name": "A4",
          "ticks": 4512,
          "time": 18.8,
          "velocity": 0.3858267716535433
        },
        {
          "duration": 0.19583333333333286,
          "durationTicks": 47,
          "midi": 67,
          "name": "G4",
          "ticks": 4512,
          "time": 18.8,
          "velocity": 0.3858267716535433
        },
        {
          "duration": 0.19583333333333286,
          "durationTicks": 47,
          "midi": 76,
          "name": "E5",
          "ticks": 4608,
          "time": 19.200000000000003,
          "velocity": 0.3858267716535433
        },
        {
          "duration": 0.19583333333333286,
          "durationTicks": 47,
          "midi": 73,
          "name": "C#5",
          "ticks": 4608,
          "time": 19.200000000000003,
          "velocity": 0.3858267716535433
        },
        {
          "duration": 0.19583333333333286,
          "durationTicks": 47,
          "midi": 69,
          "name": "A4",
          "ticks": 4608,
          "time": 19.200000000000003,
          "velocity": 0.3858267716535433
        },
        {
          "duration": 0.19583333333333286,
          "durationTicks": 47,
          "midi": 66,
          "name": "F#4",
          "ticks": 4608,
          "time": 19.200000000000003,
          "velocity": 0.3858267716535433
        },
        {
          "duration": 0.19583333333333286,
          "durationTicks": 47,
          "midi": 76,
          "name": "E5",
          "ticks": 4704,
          "time": 19.6,
          "velocity": 0.3858267716535433
        },
        {
          "duration": 0.19583333333333286,
          "durationTicks": 47,
          "midi": 73,
          "name": "C#5",
          "ticks": 4704,
          "time": 19.6,
          "velocity": 0.3858267716535433
        },
        {
          "duration": 0.19583333333333286,
          "durationTicks": 47,
          "midi": 69,
          "name": "A4",
          "ticks": 4704,
          "time": 19.6,
          "velocity": 0.3858267716535433
        },
        {
          "duration": 0.19583333333333286,
          "durationTicks": 47,
          "midi": 66,
          "name": "F#4",
          "ticks": 4704,
          "time": 19.6,
          "velocity": 0.3858267716535433
        },
        {
          "duration": 0.1958333333333364,
          "durationTicks": 47,
          "midi": 76,
          "name": "E5",
          "ticks": 4800,
          "time": 20,
          "velocity": 0.3858267716535433
        },
        {
          "duration": 0.1958333333333364,
          "durationTicks": 47,
          "midi": 73,
          "name": "C#5",
          "ticks": 4800,
          "time": 20,
          "velocity": 0.3858267716535433
        },
        {
          "duration": 0.1958333333333364,
          "durationTicks": 47,
          "midi": 69,
          "name": "A4",
          "ticks": 4800,
          "time": 20,
          "velocity": 0.3858267716535433
        },
        {
          "duration": 0.1958333333333364,
          "durationTicks": 47,
          "midi": 66,
          "name": "F#4",
          "ticks": 4800,
          "time": 20,
          "velocity": 0.3858267716535433
        },
        {
          "duration": 0.19583333333333286,
          "durationTicks": 47,
          "midi": 76,
          "name": "E5",
          "ticks": 4896,
          "time": 20.400000000000002,
          "velocity": 0.3858267716535433
        },
        {
          "duration": 0.19583333333333286,
          "durationTicks": 47,
          "midi": 73,
          "name": "C#5",
          "ticks": 4896,
          "time": 20.400000000000002,
          "velocity": 0.3858267716535433
        },
        {
          "duration": 0.19583333333333286,
          "durationTicks": 47,
          "midi": 69,
          "name": "A4",
          "ticks": 4896,
          "time": 20.400000000000002,
          "velocity": 0.3858267716535433
        },
        {
          "duration": 0.19583333333333286,
          "durationTicks": 47,
          "midi": 66,
          "name": "F#4",
          "ticks": 4896,
          "time": 20.400000000000002,
          "velocity": 0.3858267716535433
        },
        {
          "duration": 0.1958333333333364,
          "durationTicks": 47,
          "midi": 74,
          "name": "D5",
          "ticks": 4992,
          "time": 20.8,
          "velocity": 0.3858267716535433
        },
        {
          "duration": 0.1958333333333364,
          "durationTicks": 47,
          "midi": 71,
          "name": "B4",
          "ticks": 4992,
          "time": 20.8,
          "velocity": 0.3858267716535433
        },
        {
          "duration": 0.1958333333333364,
          "durationTicks": 47,
          "midi": 69,
          "name": "A4",
          "ticks": 4992,
          "time": 20.8,
          "velocity": 0.3858267716535433
        },
        {
          "duration": 0.1958333333333364,
          "durationTicks": 47,
          "midi": 66,
          "name": "F#4",
          "ticks": 4992,
          "time": 20.8,
          "velocity": 0.3858267716535433
        },
        {
          "duration": 0.19583333333333286,
          "durationTicks": 47,
          "midi": 74,
          "name": "D5",
          "ticks": 5088,
          "time": 21.200000000000003,
          "velocity": 0.3858267716535433
        },
        {
          "duration": 0.19583333333333286,
          "durationTicks": 47,
          "midi": 71,
          "name": "B4",
          "ticks": 5088,
          "time": 21.200000000000003,
          "velocity": 0.3858267716535433
        },
        {
          "duration": 0.19583333333333286,
          "durationTicks": 47,
          "midi": 69,
          "name": "A4",
          "ticks": 5088,
          "time": 21.200000000000003,
          "velocity": 0.3858267716535433
        },
        {
          "duration": 0.19583333333333286,
          "durationTicks": 47,
          "midi": 66,
          "name": "F#4",
          "ticks": 5088,
          "time": 21.200000000000003,
          "velocity": 0.3858267716535433
        },
        {
          "duration": 0.19583333333333286,
          "durationTicks": 47,
          "midi": 74,
          "name": "D5",
          "ticks": 5184,
          "time": 21.6,
          "velocity": 0.3858267716535433
        },
        {
          "duration": 0.19583333333333286,
          "durationTicks": 47,
          "midi": 71,
          "name": "B4",
          "ticks": 5184,
          "time": 21.6,
          "velocity": 0.3858267716535433
        },
        {
          "duration": 0.19583333333333286,
          "durationTicks": 47,
          "midi": 69,
          "name": "A4",
          "ticks": 5184,
          "time": 21.6,
          "velocity": 0.3858267716535433
        },
        {
          "duration": 0.19583333333333286,
          "durationTicks": 47,
          "midi": 66,
          "name": "F#4",
          "ticks": 5184,
          "time": 21.6,
          "velocity": 0.3858267716535433
        },
        {
          "duration": 0.1958333333333364,
          "durationTicks": 47,
          "midi": 74,
          "name": "D5",
          "ticks": 5280,
          "time": 22,
          "velocity": 0.3858267716535433
        },
        {
          "duration": 0.1958333333333364,
          "durationTicks": 47,
          "midi": 71,
          "name": "B4",
          "ticks": 5280,
          "time": 22,
          "velocity": 0.3858267716535433
        },
        {
          "duration": 0.1958333333333364,
          "durationTicks": 47,
          "midi": 69,
          "name": "A4",
          "ticks": 5280,
          "time": 22,
          "velocity": 0.3858267716535433
        },
        {
          "duration": 0.1958333333333364,
          "durationTicks": 47,
          "midi": 66,
          "name": "F#4",
          "ticks": 5280,
          "time": 22,
          "velocity": 0.3858267716535433
        },
        {
          "duration": 0.19583333333333286,
          "durationTicks": 47,
          "midi": 79,
          "name": "G5",
          "ticks": 5376,
          "time": 22.400000000000002,
          "velocity": 0.3858267716535433
        },
        {
          "duration": 0.19583333333333286,
          "durationTicks": 47,
          "midi": 74,
          "name": "D5",
          "ticks": 5376,
          "time": 22.400000000000002,
          "velocity": 0.3858267716535433
        },
        {
          "duration": 0.19583333333333286,
          "durationTicks": 47,
          "midi": 71,
          "name": "B4",
          "ticks": 5376,
          "time": 22.400000000000002,
          "velocity": 0.3858267716535433
        },
        {
          "duration": 0.19583333333333286,
          "durationTicks": 47,
          "midi": 69,
          "name": "A4",
          "ticks": 5376,
          "time": 22.400000000000002,
          "velocity": 0.3858267716535433
        },
        {
          "duration": 0.19583333333333286,
          "durationTicks": 47,
          "midi": 67,
          "name": "G4",
          "ticks": 5376,
          "time": 22.400000000000002,
          "velocity": 0.3858267716535433
        },
        {
          "duration": 0.1958333333333364,
          "durationTicks": 47,
          "midi": 79,
          "name": "G5",
          "ticks": 5472,
          "time": 22.8,
          "velocity": 0.3858267716535433
        },
        {
          "duration": 0.1958333333333364,
          "durationTicks": 47,
          "midi": 74,
          "name": "D5",
          "ticks": 5472,
          "time": 22.8,
          "velocity": 0.3858267716535433
        },
        {
          "duration": 0.1958333333333364,
          "durationTicks": 47,
          "midi": 71,
          "name": "B4",
          "ticks": 5472,
          "time": 22.8,
          "velocity": 0.3858267716535433
        },
        {
          "duration": 0.1958333333333364,
          "durationTicks": 47,
          "midi": 69,
          "name": "A4",
          "ticks": 5472,
          "time": 22.8,
          "velocity": 0.3858267716535433
        },
        {
          "duration": 0.1958333333333364,
          "durationTicks": 47,
          "midi": 67,
          "name": "G4",
          "ticks": 5472,
          "time": 22.8,
          "velocity": 0.3858267716535433
        },
        {
          "duration": 0.19583333333333286,
          "durationTicks": 47,
          "midi": 79,
          "name": "G5",
          "ticks": 5568,
          "time": 23.200000000000003,
          "velocity": 0.3858267716535433
        },
        {
          "duration": 0.19583333333333286,
          "durationTicks": 47,
          "midi": 74,
          "name": "D5",
          "ticks": 5568,
          "time": 23.200000000000003,
          "velocity": 0.3858267716535433
        },
        {
          "duration": 0.19583333333333286,
          "durationTicks": 47,
          "midi": 71,
          "name": "B4",
          "ticks": 5568,
          "time": 23.200000000000003,
          "velocity": 0.3858267716535433
        },
        {
          "duration": 0.19583333333333286,
          "durationTicks": 47,
          "midi": 69,
          "name": "A4",
          "ticks": 5568,
          "time": 23.200000000000003,
          "velocity": 0.3858267716535433
        },
        {
          "duration": 0.19583333333333286,
          "durationTicks": 47,
          "midi": 67,
          "name": "G4",
          "ticks": 5568,
          "time": 23.200000000000003,
          "velocity": 0.3858267716535433
        },
        {
          "duration": 0.19583333333333286,
          "durationTicks": 47,
          "midi": 79,
          "name": "G5",
          "ticks": 5664,
          "time": 23.6,
          "velocity": 0.3858267716535433
        },
        {
          "duration": 0.19583333333333286,
          "durationTicks": 47,
          "midi": 74,
          "name": "D5",
          "ticks": 5664,
          "time": 23.6,
          "velocity": 0.3858267716535433
        },
        {
          "duration": 0.19583333333333286,
          "durationTicks": 47,
          "midi": 71,
          "name": "B4",
          "ticks": 5664,
          "time": 23.6,
          "velocity": 0.3858267716535433
        },
        {
          "duration": 0.19583333333333286,
          "durationTicks": 47,
          "midi": 69,
          "name": "A4",
          "ticks": 5664,
          "time": 23.6,
          "velocity": 0.3858267716535433
        },
        {
          "duration": 0.19583333333333286,
          "durationTicks": 47,
          "midi": 67,
          "name": "G4",
          "ticks": 5664,
          "time": 23.6,
          "velocity": 0.3858267716535433
        },
        {
          "duration": 0.19583333333333286,
          "durationTicks": 47,
          "midi": 81,
          "name": "A5",
          "ticks": 6192,
          "time": 25.8,
          "velocity": 0.3858267716535433
        },
        {
          "duration": 0.19583333333333286,
          "durationTicks": 47,
          "midi": 78,
          "name": "F#5",
          "ticks": 6192,
          "time": 25.8,
          "velocity": 0.3858267716535433
        },
        {
          "duration": 0.19583333333333286,
          "durationTicks": 47,
          "midi": 76,
          "name": "E5",
          "ticks": 6192,
          "time": 25.8,
          "velocity": 0.3858267716535433
        },
        {
          "duration": 0.19583333333333286,
          "durationTicks": 47,
          "midi": 73,
          "name": "C#5",
          "ticks": 6192,
          "time": 25.8,
          "velocity": 0.3858267716535433
        },
        {
          "duration": 0.1958333333333293,
          "durationTicks": 47,
          "midi": 81,
          "name": "A5",
          "ticks": 6288,
          "time": 26.200000000000003,
          "velocity": 0.3858267716535433
        },
        {
          "duration": 0.1958333333333293,
          "durationTicks": 47,
          "midi": 78,
          "name": "F#5",
          "ticks": 6288,
          "time": 26.200000000000003,
          "velocity": 0.3858267716535433
        },
        {
          "duration": 0.1958333333333293,
          "durationTicks": 47,
          "midi": 76,
          "name": "E5",
          "ticks": 6288,
          "time": 26.200000000000003,
          "velocity": 0.3858267716535433
        },
        {
          "duration": 0.1958333333333293,
          "durationTicks": 47,
          "midi": 73,
          "name": "C#5",
          "ticks": 6288,
          "time": 26.200000000000003,
          "velocity": 0.3858267716535433
        },
        {
          "duration": 0.19583333333333286,
          "durationTicks": 47,
          "midi": 81,
          "name": "A5",
          "ticks": 6384,
          "time": 26.6,
          "velocity": 0.3858267716535433
        },
        {
          "duration": 0.19583333333333286,
          "durationTicks": 47,
          "midi": 78,
          "name": "F#5",
          "ticks": 6384,
          "time": 26.6,
          "velocity": 0.3858267716535433
        },
        {
          "duration": 0.19583333333333286,
          "durationTicks": 47,
          "midi": 76,
          "name": "E5",
          "ticks": 6384,
          "time": 26.6,
          "velocity": 0.3858267716535433
        },
        {
          "duration": 0.19583333333333286,
          "durationTicks": 47,
          "midi": 73,
          "name": "C#5",
          "ticks": 6384,
          "time": 26.6,
          "velocity": 0.3858267716535433
        },
        {
          "duration": 0.19583333333333286,
          "durationTicks": 47,
          "midi": 83,
          "name": "B5",
          "ticks": 6480,
          "time": 27,
          "velocity": 0.3858267716535433
        },
        {
          "duration": 0.19583333333333286,
          "durationTicks": 47,
          "midi": 81,
          "name": "A5",
          "ticks": 6480,
          "time": 27,
          "velocity": 0.3858267716535433
        },
        {
          "duration": 0.19583333333333286,
          "durationTicks": 47,
          "midi": 78,
          "name": "F#5",
          "ticks": 6480,
          "time": 27,
          "velocity": 0.3858267716535433
        },
        {
          "duration": 0.19583333333333286,
          "durationTicks": 47,
          "midi": 74,
          "name": "D5",
          "ticks": 6480,
          "time": 27,
          "velocity": 0.3858267716535433
        },
        {
          "duration": 0.1958333333333293,
          "durationTicks": 47,
          "midi": 83,
          "name": "B5",
          "ticks": 6576,
          "time": 27.400000000000002,
          "velocity": 0.3858267716535433
        },
        {
          "duration": 0.1958333333333293,
          "durationTicks": 47,
          "midi": 81,
          "name": "A5",
          "ticks": 6576,
          "time": 27.400000000000002,
          "velocity": 0.3858267716535433
        },
        {
          "duration": 0.1958333333333293,
          "durationTicks": 47,
          "midi": 78,
          "name": "F#5",
          "ticks": 6576,
          "time": 27.400000000000002,
          "velocity": 0.3858267716535433
        },
        {
          "duration": 0.1958333333333293,
          "durationTicks": 47,
          "midi": 74,
          "name": "D5",
          "ticks": 6576,
          "time": 27.400000000000002,
          "velocity": 0.3858267716535433
        },
        {
          "duration": 0.19583333333333286,
          "durationTicks": 47,
          "midi": 83,
          "name": "B5",
          "ticks": 6672,
          "time": 27.8,
          "velocity": 0.3858267716535433
        },
        {
          "duration": 0.19583333333333286,
          "durationTicks": 47,
          "midi": 81,
          "name": "A5",
          "ticks": 6672,
          "time": 27.8,
          "velocity": 0.3858267716535433
        },
        {
          "duration": 0.19583333333333286,
          "durationTicks": 47,
          "midi": 78,
          "name": "F#5",
          "ticks": 6672,
          "time": 27.8,
          "velocity": 0.3858267716535433
        },
        {
          "duration": 0.19583333333333286,
          "durationTicks": 47,
          "midi": 74,
          "name": "D5",
          "ticks": 6672,
          "time": 27.8,
          "velocity": 0.3858267716535433
        },
        {
          "duration": 0.1958333333333293,
          "durationTicks": 47,
          "midi": 83,
          "name": "B5",
          "ticks": 6768,
          "time": 28.200000000000003,
          "velocity": 0.3858267716535433
        },
        {
          "duration": 0.1958333333333293,
          "durationTicks": 47,
          "midi": 81,
          "name": "A5",
          "ticks": 6768,
          "time": 28.200000000000003,
          "velocity": 0.3858267716535433
        },
        {
          "duration": 0.1958333333333293,
          "durationTicks": 47,
          "midi": 78,
          "name": "F#5",
          "ticks": 6768,
          "time": 28.200000000000003,
          "velocity": 0.3858267716535433
        },
        {
          "duration": 0.1958333333333293,
          "durationTicks": 47,
          "midi": 74,
          "name": "D5",
          "ticks": 6768,
          "time": 28.200000000000003,
          "velocity": 0.3858267716535433
        },
        {
          "duration": 0.19583333333333286,
          "durationTicks": 47,
          "midi": 81,
          "name": "A5",
          "ticks": 6864,
          "time": 28.6,
          "velocity": 0.3858267716535433
        },
        {
          "duration": 0.19583333333333286,
          "durationTicks": 47,
          "midi": 79,
          "name": "G5",
          "ticks": 6864,
          "time": 28.6,
          "velocity": 0.3858267716535433
        },
        {
          "duration": 0.19583333333333286,
          "durationTicks": 47,
          "midi": 74,
          "name": "D5",
          "ticks": 6864,
          "time": 28.6,
          "velocity": 0.3858267716535433
        },
        {
          "duration": 0.19583333333333286,
          "durationTicks": 47,
          "midi": 71,
          "name": "B4",
          "ticks": 6864,
          "time": 28.6,
          "velocity": 0.3858267716535433
        },
        {
          "duration": 0.19583333333333286,
          "durationTicks": 47,
          "midi": 81,
          "name": "A5",
          "ticks": 6960,
          "time": 29,
          "velocity": 0.3858267716535433
        },
        {
          "duration": 0.19583333333333286,
          "durationTicks": 47,
          "midi": 79,
          "name": "G5",
          "ticks": 6960,
          "time": 29,
          "velocity": 0.3858267716535433
        },
        {
          "duration": 0.19583333333333286,
          "durationTicks": 47,
          "midi": 74,
          "name": "D5",
          "ticks": 6960,
          "time": 29,
          "velocity": 0.3858267716535433
        },
        {
          "duration": 0.19583333333333286,
          "durationTicks": 47,
          "midi": 71,
          "name": "B4",
          "ticks": 6960,
          "time": 29,
          "velocity": 0.3858267716535433
        },
        {
          "duration": 0.1958333333333293,
          "durationTicks": 47,
          "midi": 81,
          "name": "A5",
          "ticks": 7056,
          "time": 29.400000000000002,
          "velocity": 0.3858267716535433
        },
        {
          "duration": 0.1958333333333293,
          "durationTicks": 47,
          "midi": 79,
          "name": "G5",
          "ticks": 7056,
          "time": 29.400000000000002,
          "velocity": 0.3858267716535433
        },
        {
          "duration": 0.1958333333333293,
          "durationTicks": 47,
          "midi": 74,
          "name": "D5",
          "ticks": 7056,
          "time": 29.400000000000002,
          "velocity": 0.3858267716535433
        },
        {
          "duration": 0.1958333333333293,
          "durationTicks": 47,
          "midi": 71,
          "name": "B4",
          "ticks": 7056,
          "time": 29.400000000000002,
          "velocity": 0.3858267716535433
        },
        {
          "duration": 0.19583333333333286,
          "durationTicks": 47,
          "midi": 81,
          "name": "A5",
          "ticks": 7152,
          "time": 29.8,
          "velocity": 0.3858267716535433
        },
        {
          "duration": 0.19583333333333286,
          "durationTicks": 47,
          "midi": 79,
          "name": "G5",
          "ticks": 7152,
          "time": 29.8,
          "velocity": 0.3858267716535433
        },
        {
          "duration": 0.19583333333333286,
          "durationTicks": 47,
          "midi": 74,
          "name": "D5",
          "ticks": 7152,
          "time": 29.8,
          "velocity": 0.3858267716535433
        },
        {
          "duration": 0.19583333333333286,
          "durationTicks": 47,
          "midi": 71,
          "name": "B4",
          "ticks": 7152,
          "time": 29.8,
          "velocity": 0.3858267716535433
        },
        {
          "duration": 0.1958333333333293,
          "durationTicks": 47,
          "midi": 81,
          "name": "A5",
          "ticks": 7248,
          "time": 30.200000000000003,
          "velocity": 0.3858267716535433
        },
        {
          "duration": 0.1958333333333293,
          "durationTicks": 47,
          "midi": 79,
          "name": "G5",
          "ticks": 7248,
          "time": 30.200000000000003,
          "velocity": 0.3858267716535433
        },
        {
          "duration": 0.1958333333333293,
          "durationTicks": 47,
          "midi": 74,
          "name": "D5",
          "ticks": 7248,
          "time": 30.200000000000003,
          "velocity": 0.3858267716535433
        },
        {
          "duration": 0.1958333333333293,
          "durationTicks": 47,
          "midi": 71,
          "name": "B4",
          "ticks": 7248,
          "time": 30.200000000000003,
          "velocity": 0.3858267716535433
        },
        {
          "duration": 0.19583333333333286,
          "durationTicks": 47,
          "midi": 81,
          "name": "A5",
          "ticks": 7344,
          "time": 30.6,
          "velocity": 0.3858267716535433
        },
        {
          "duration": 0.19583333333333286,
          "durationTicks": 47,
          "midi": 79,
          "name": "G5",
          "ticks": 7344,
          "time": 30.6,
          "velocity": 0.3858267716535433
        },
        {
          "duration": 0.19583333333333286,
          "durationTicks": 47,
          "midi": 76,
          "name": "E5",
          "ticks": 7344,
          "time": 30.6,
          "velocity": 0.3858267716535433
        },
        {
          "duration": 0.19583333333333286,
          "durationTicks": 47,
          "midi": 73,
          "name": "C#5",
          "ticks": 7344,
          "time": 30.6,
          "velocity": 0.3858267716535433
        },
        {
          "duration": 0.19583333333333286,
          "durationTicks": 47,
          "midi": 81,
          "name": "A5",
          "ticks": 7440,
          "time": 31,
          "velocity": 0.3858267716535433
        },
        {
          "duration": 0.19583333333333286,
          "durationTicks": 47,
          "midi": 79,
          "name": "G5",
          "ticks": 7440,
          "time": 31,
          "velocity": 0.3858267716535433
        },
        {
          "duration": 0.19583333333333286,
          "durationTicks": 47,
          "midi": 76,
          "name": "E5",
          "ticks": 7440,
          "time": 31,
          "velocity": 0.3858267716535433
        },
        {
          "duration": 0.19583333333333286,
          "durationTicks": 47,
          "midi": 73,
          "name": "C#5",
          "ticks": 7440,
          "time": 31,
          "velocity": 0.3858267716535433
        },
        {
          "duration": 0.1958333333333293,
          "durationTicks": 47,
          "midi": 81,
          "name": "A5",
          "ticks": 7536,
          "time": 31.400000000000002,
          "velocity": 0.3858267716535433
        },
        {
          "duration": 0.1958333333333293,
          "durationTicks": 47,
          "midi": 79,
          "name": "G5",
          "ticks": 7536,
          "time": 31.400000000000002,
          "velocity": 0.3858267716535433
        },
        {
          "duration": 0.1958333333333293,
          "durationTicks": 47,
          "midi": 76,
          "name": "E5",
          "ticks": 7536,
          "time": 31.400000000000002,
          "velocity": 0.3858267716535433
        },
        {
          "duration": 0.1958333333333293,
          "durationTicks": 47,
          "midi": 73,
          "name": "C#5",
          "ticks": 7536,
          "time": 31.400000000000002,
          "velocity": 0.3858267716535433
        },
        {
          "duration": 0.19583333333333286,
          "durationTicks": 47,
          "midi": 76,
          "name": "E5",
          "ticks": 7632,
          "time": 31.8,
          "velocity": 0.3858267716535433
        },
        {
          "duration": 0.19583333333333286,
          "durationTicks": 47,
          "midi": 73,
          "name": "C#5",
          "ticks": 7632,
          "time": 31.8,
          "velocity": 0.3858267716535433
        },
        {
          "duration": 0.19583333333333286,
          "durationTicks": 47,
          "midi": 69,
          "name": "A4",
          "ticks": 7632,
          "time": 31.8,
          "velocity": 0.3858267716535433
        },
        {
          "duration": 0.19583333333333286,
          "durationTicks": 47,
          "midi": 66,
          "name": "F#4",
          "ticks": 7632,
          "time": 31.8,
          "velocity": 0.3858267716535433
        },
        {
          "duration": 0.19583333333333286,
          "durationTicks": 47,
          "midi": 76,
          "name": "E5",
          "ticks": 7728,
          "time": 32.2,
          "velocity": 0.3858267716535433
        },
        {
          "duration": 0.19583333333333286,
          "durationTicks": 47,
          "midi": 73,
          "name": "C#5",
          "ticks": 7728,
          "time": 32.2,
          "velocity": 0.3858267716535433
        },
        {
          "duration": 0.19583333333333286,
          "durationTicks": 47,
          "midi": 69,
          "name": "A4",
          "ticks": 7728,
          "time": 32.2,
          "velocity": 0.3858267716535433
        },
        {
          "duration": 0.19583333333333286,
          "durationTicks": 47,
          "midi": 66,
          "name": "F#4",
          "ticks": 7728,
          "time": 32.2,
          "velocity": 0.3858267716535433
        },
        {
          "duration": 0.19583333333333286,
          "durationTicks": 47,
          "midi": 76,
          "name": "E5",
          "ticks": 7824,
          "time": 32.6,
          "velocity": 0.3858267716535433
        },
        {
          "duration": 0.19583333333333286,
          "durationTicks": 47,
          "midi": 73,
          "name": "C#5",
          "ticks": 7824,
          "time": 32.6,
          "velocity": 0.3858267716535433
        },
        {
          "duration": 0.19583333333333286,
          "durationTicks": 47,
          "midi": 69,
          "name": "A4",
          "ticks": 7824,
          "time": 32.6,
          "velocity": 0.3858267716535433
        },
        {
          "duration": 0.19583333333333286,
          "durationTicks": 47,
          "midi": 66,
          "name": "F#4",
          "ticks": 7824,
          "time": 32.6,
          "velocity": 0.3858267716535433
        },
        {
          "duration": 0.19583333333333286,
          "durationTicks": 47,
          "midi": 76,
          "name": "E5",
          "ticks": 7920,
          "time": 33,
          "velocity": 0.3858267716535433
        },
        {
          "duration": 0.19583333333333286,
          "durationTicks": 47,
          "midi": 73,
          "name": "C#5",
          "ticks": 7920,
          "time": 33,
          "velocity": 0.3858267716535433
        },
        {
          "duration": 0.19583333333333286,
          "durationTicks": 47,
          "midi": 69,
          "name": "A4",
          "ticks": 7920,
          "time": 33,
          "velocity": 0.3858267716535433
        },
        {
          "duration": 0.19583333333333286,
          "durationTicks": 47,
          "midi": 66,
          "name": "F#4",
          "ticks": 7920,
          "time": 33,
          "velocity": 0.3858267716535433
        },
        {
          "duration": 0.19583333333333286,
          "durationTicks": 47,
          "midi": 76,
          "name": "E5",
          "ticks": 8016,
          "time": 33.4,
          "velocity": 0.3858267716535433
        },
        {
          "duration": 0.19583333333333286,
          "durationTicks": 47,
          "midi": 73,
          "name": "C#5",
          "ticks": 8016,
          "time": 33.4,
          "velocity": 0.3858267716535433
        },
        {
          "duration": 0.19583333333333286,
          "durationTicks": 47,
          "midi": 69,
          "name": "A4",
          "ticks": 8016,
          "time": 33.4,
          "velocity": 0.3858267716535433
        },
        {
          "duration": 0.19583333333333286,
          "durationTicks": 47,
          "midi": 66,
          "name": "F#4",
          "ticks": 8016,
          "time": 33.4,
          "velocity": 0.3858267716535433
        },
        {
          "duration": 0.19583333333332575,
          "durationTicks": 47,
          "midi": 74,
          "name": "D5",
          "ticks": 8112,
          "time": 33.800000000000004,
          "velocity": 0.3858267716535433
        },
        {
          "duration": 0.19583333333332575,
          "durationTicks": 47,
          "midi": 71,
          "name": "B4",
          "ticks": 8112,
          "time": 33.800000000000004,
          "velocity": 0.3858267716535433
        },
        {
          "duration": 0.19583333333332575,
          "durationTicks": 47,
          "midi": 69,
          "name": "A4",
          "ticks": 8112,
          "time": 33.800000000000004,
          "velocity": 0.3858267716535433
        },
        {
          "duration": 0.19583333333332575,
          "durationTicks": 47,
          "midi": 66,
          "name": "F#4",
          "ticks": 8112,
          "time": 33.800000000000004,
          "velocity": 0.3858267716535433
        },
        {
          "duration": 0.19583333333333286,
          "durationTicks": 47,
          "midi": 74,
          "name": "D5",
          "ticks": 8208,
          "time": 34.2,
          "velocity": 0.3858267716535433
        },
        {
          "duration": 0.19583333333333286,
          "durationTicks": 47,
          "midi": 71,
          "name": "B4",
          "ticks": 8208,
          "time": 34.2,
          "velocity": 0.3858267716535433
        },
        {
          "duration": 0.19583333333333286,
          "durationTicks": 47,
          "midi": 69,
          "name": "A4",
          "ticks": 8208,
          "time": 34.2,
          "velocity": 0.3858267716535433
        },
        {
          "duration": 0.19583333333333286,
          "durationTicks": 47,
          "midi": 66,
          "name": "F#4",
          "ticks": 8208,
          "time": 34.2,
          "velocity": 0.3858267716535433
        },
        {
          "duration": 0.19583333333333286,
          "durationTicks": 47,
          "midi": 74,
          "name": "D5",
          "ticks": 8304,
          "time": 34.6,
          "velocity": 0.3858267716535433
        },
        {
          "duration": 0.19583333333333286,
          "durationTicks": 47,
          "midi": 71,
          "name": "B4",
          "ticks": 8304,
          "time": 34.6,
          "velocity": 0.3858267716535433
        },
        {
          "duration": 0.19583333333333286,
          "durationTicks": 47,
          "midi": 69,
          "name": "A4",
          "ticks": 8304,
          "time": 34.6,
          "velocity": 0.3858267716535433
        },
        {
          "duration": 0.19583333333333286,
          "durationTicks": 47,
          "midi": 66,
          "name": "F#4",
          "ticks": 8304,
          "time": 34.6,
          "velocity": 0.3858267716535433
        },
        {
          "duration": 0.19583333333333286,
          "durationTicks": 47,
          "midi": 76,
          "name": "E5",
          "ticks": 8400,
          "time": 35,
          "velocity": 0.3858267716535433
        },
        {
          "duration": 0.19583333333333286,
          "durationTicks": 47,
          "midi": 74,
          "name": "D5",
          "ticks": 8400,
          "time": 35,
          "velocity": 0.3858267716535433
        },
        {
          "duration": 0.19583333333333286,
          "durationTicks": 47,
          "midi": 71,
          "name": "B4",
          "ticks": 8400,
          "time": 35,
          "velocity": 0.3858267716535433
        },
        {
          "duration": 0.19583333333333286,
          "durationTicks": 47,
          "midi": 67,
          "name": "G4",
          "ticks": 8400,
          "time": 35,
          "velocity": 0.3858267716535433
        },
        {
          "duration": 0.19583333333333286,
          "durationTicks": 47,
          "midi": 76,
          "name": "E5",
          "ticks": 8496,
          "time": 35.4,
          "velocity": 0.3858267716535433
        },
        {
          "duration": 0.19583333333333286,
          "durationTicks": 47,
          "midi": 74,
          "name": "D5",
          "ticks": 8496,
          "time": 35.4,
          "velocity": 0.3858267716535433
        },
        {
          "duration": 0.19583333333333286,
          "durationTicks": 47,
          "midi": 71,
          "name": "B4",
          "ticks": 8496,
          "time": 35.4,
          "velocity": 0.3858267716535433
        },
        {
          "duration": 0.19583333333333286,
          "durationTicks": 47,
          "midi": 67,
          "name": "G4",
          "ticks": 8496,
          "time": 35.4,
          "velocity": 0.3858267716535433
        },
        {
          "duration": 0.19583333333332575,
          "durationTicks": 47,
          "midi": 76,
          "name": "E5",
          "ticks": 8592,
          "time": 35.800000000000004,
          "velocity": 0.3858267716535433
        },
        {
          "duration": 0.19583333333332575,
          "durationTicks": 47,
          "midi": 74,
          "name": "D5",
          "ticks": 8592,
          "time": 35.800000000000004,
          "velocity": 0.3858267716535433
        },
        {
          "duration": 0.19583333333332575,
          "durationTicks": 47,
          "midi": 71,
          "name": "B4",
          "ticks": 8592,
          "time": 35.800000000000004,
          "velocity": 0.3858267716535433
        },
        {
          "duration": 0.19583333333332575,
          "durationTicks": 47,
          "midi": 67,
          "name": "G4",
          "ticks": 8592,
          "time": 35.800000000000004,
          "velocity": 0.3858267716535433
        },
        {
          "duration": 0.19583333333333286,
          "durationTicks": 47,
          "midi": 76,
          "name": "E5",
          "ticks": 8688,
          "time": 36.2,
          "velocity": 0.3858267716535433
        },
        {
          "duration": 0.19583333333333286,
          "durationTicks": 47,
          "midi": 74,
          "name": "D5",
          "ticks": 8688,
          "time": 36.2,
          "velocity": 0.3858267716535433
        },
        {
          "duration": 0.19583333333333286,
          "durationTicks": 47,
          "midi": 71,
          "name": "B4",
          "ticks": 8688,
          "time": 36.2,
          "velocity": 0.3858267716535433
        },
        {
          "duration": 0.19583333333333286,
          "durationTicks": 47,
          "midi": 67,
          "name": "G4",
          "ticks": 8688,
          "time": 36.2,
          "velocity": 0.3858267716535433
        },
        {
          "duration": 0.19583333333333286,
          "durationTicks": 47,
          "midi": 76,
          "name": "E5",
          "ticks": 8784,
          "time": 36.6,
          "velocity": 0.3858267716535433
        },
        {
          "duration": 0.19583333333333286,
          "durationTicks": 47,
          "midi": 74,
          "name": "D5",
          "ticks": 8784,
          "time": 36.6,
          "velocity": 0.3858267716535433
        },
        {
          "duration": 0.19583333333333286,
          "durationTicks": 47,
          "midi": 71,
          "name": "B4",
          "ticks": 8784,
          "time": 36.6,
          "velocity": 0.3858267716535433
        },
        {
          "duration": 0.19583333333333286,
          "durationTicks": 47,
          "midi": 67,
          "name": "G4",
          "ticks": 8784,
          "time": 36.6,
          "velocity": 0.3858267716535433
        },
        {
          "duration": 0.19583333333333286,
          "durationTicks": 47,
          "midi": 73,
          "name": "C#5",
          "ticks": 9600,
          "time": 40,
          "velocity": 0.3858267716535433
        },
        {
          "duration": 0.19583333333333286,
          "durationTicks": 47,
          "midi": 70,
          "name": "A#4",
          "ticks": 9600,
          "time": 40,
          "velocity": 0.3858267716535433
        },
        {
          "duration": 0.19583333333333286,
          "durationTicks": 47,
          "midi": 66,
          "name": "F#4",
          "ticks": 9600,
          "time": 40,
          "velocity": 0.3858267716535433
        },
        {
          "duration": 0.19583333333333286,
          "durationTicks": 47,
          "midi": 63,
          "name": "D#4",
          "ticks": 9600,
          "time": 40,
          "velocity": 0.3858267716535433
        },
        {
          "duration": 0.19583333333333286,
          "durationTicks": 47,
          "midi": 73,
          "name": "C#5",
          "ticks": 9648,
          "time": 40.2,
          "velocity": 0.3858267716535433
        },
        {
          "duration": 0.19583333333333286,
          "durationTicks": 47,
          "midi": 70,
          "name": "A#4",
          "ticks": 9648,
          "time": 40.2,
          "velocity": 0.3858267716535433
        },
        {
          "duration": 0.19583333333333286,
          "durationTicks": 47,
          "midi": 66,
          "name": "F#4",
          "ticks": 9648,
          "time": 40.2,
          "velocity": 0.3858267716535433
        },
        {
          "duration": 0.19583333333333286,
          "durationTicks": 47,
          "midi": 63,
          "name": "D#4",
          "ticks": 9648,
          "time": 40.2,
          "velocity": 0.3858267716535433
        },
        {
          "duration": 0.19583333333332575,
          "durationTicks": 47,
          "midi": 73,
          "name": "C#5",
          "ticks": 9696,
          "time": 40.400000000000006,
          "velocity": 0.3858267716535433
        },
        {
          "duration": 0.19583333333332575,
          "durationTicks": 47,
          "midi": 70,
          "name": "A#4",
          "ticks": 9696,
          "time": 40.400000000000006,
          "velocity": 0.3858267716535433
        },
        {
          "duration": 0.19583333333332575,
          "durationTicks": 47,
          "midi": 66,
          "name": "F#4",
          "ticks": 9696,
          "time": 40.400000000000006,
          "velocity": 0.3858267716535433
        },
        {
          "duration": 0.19583333333332575,
          "durationTicks": 47,
          "midi": 63,
          "name": "D#4",
          "ticks": 9696,
          "time": 40.400000000000006,
          "velocity": 0.3858267716535433
        },
        {
          "duration": 0.19583333333333286,
          "durationTicks": 47,
          "midi": 73,
          "name": "C#5",
          "ticks": 9744,
          "time": 40.6,
          "velocity": 0.3858267716535433
        },
        {
          "duration": 0.19583333333333286,
          "durationTicks": 47,
          "midi": 70,
          "name": "A#4",
          "ticks": 9744,
          "time": 40.6,
          "velocity": 0.3858267716535433
        },
        {
          "duration": 0.19583333333333286,
          "durationTicks": 47,
          "midi": 66,
          "name": "F#4",
          "ticks": 9744,
          "time": 40.6,
          "velocity": 0.3858267716535433
        },
        {
          "duration": 0.19583333333333286,
          "durationTicks": 47,
          "midi": 63,
          "name": "D#4",
          "ticks": 9744,
          "time": 40.6,
          "velocity": 0.3858267716535433
        },
        {
          "duration": 0.19583333333333286,
          "durationTicks": 47,
          "midi": 73,
          "name": "C#5",
          "ticks": 9792,
          "time": 40.800000000000004,
          "velocity": 0.3858267716535433
        },
        {
          "duration": 0.19583333333333286,
          "durationTicks": 47,
          "midi": 70,
          "name": "A#4",
          "ticks": 9792,
          "time": 40.800000000000004,
          "velocity": 0.3858267716535433
        },
        {
          "duration": 0.19583333333333286,
          "durationTicks": 47,
          "midi": 66,
          "name": "F#4",
          "ticks": 9792,
          "time": 40.800000000000004,
          "velocity": 0.3858267716535433
        },
        {
          "duration": 0.19583333333333286,
          "durationTicks": 47,
          "midi": 63,
          "name": "D#4",
          "ticks": 9792,
          "time": 40.800000000000004,
          "velocity": 0.3858267716535433
        },
        {
          "duration": 0.19583333333333286,
          "durationTicks": 47,
          "midi": 73,
          "name": "C#5",
          "ticks": 9840,
          "time": 41,
          "velocity": 0.3858267716535433
        },
        {
          "duration": 0.19583333333333286,
          "durationTicks": 47,
          "midi": 70,
          "name": "A#4",
          "ticks": 9840,
          "time": 41,
          "velocity": 0.3858267716535433
        },
        {
          "duration": 0.19583333333333286,
          "durationTicks": 47,
          "midi": 66,
          "name": "F#4",
          "ticks": 9840,
          "time": 41,
          "velocity": 0.3858267716535433
        },
        {
          "duration": 0.19583333333333286,
          "durationTicks": 47,
          "midi": 63,
          "name": "D#4",
          "ticks": 9840,
          "time": 41,
          "velocity": 0.3858267716535433
        },
        {
          "duration": 0.19583333333333286,
          "durationTicks": 47,
          "midi": 73,
          "name": "C#5",
          "ticks": 9888,
          "time": 41.2,
          "velocity": 0.3858267716535433
        },
        {
          "duration": 0.19583333333333286,
          "durationTicks": 47,
          "midi": 70,
          "name": "A#4",
          "ticks": 9888,
          "time": 41.2,
          "velocity": 0.3858267716535433
        },
        {
          "duration": 0.19583333333333286,
          "durationTicks": 47,
          "midi": 66,
          "name": "F#4",
          "ticks": 9888,
          "time": 41.2,
          "velocity": 0.3858267716535433
        },
        {
          "duration": 0.19583333333333286,
          "durationTicks": 47,
          "midi": 63,
          "name": "D#4",
          "ticks": 9888,
          "time": 41.2,
          "velocity": 0.3858267716535433
        },
        {
          "duration": 0.19583333333332575,
          "durationTicks": 47,
          "midi": 73,
          "name": "C#5",
          "ticks": 9936,
          "time": 41.400000000000006,
          "velocity": 0.3858267716535433
        },
        {
          "duration": 0.19583333333332575,
          "durationTicks": 47,
          "midi": 70,
          "name": "A#4",
          "ticks": 9936,
          "time": 41.400000000000006,
          "velocity": 0.3858267716535433
        },
        {
          "duration": 0.19583333333332575,
          "durationTicks": 47,
          "midi": 66,
          "name": "F#4",
          "ticks": 9936,
          "time": 41.400000000000006,
          "velocity": 0.3858267716535433
        },
        {
          "duration": 0.19583333333332575,
          "durationTicks": 47,
          "midi": 63,
          "name": "D#4",
          "ticks": 9936,
          "time": 41.400000000000006,
          "velocity": 0.3858267716535433
        },
        {
          "duration": 0.19583333333333286,
          "durationTicks": 47,
          "midi": 71,
          "name": "B4",
          "ticks": 9984,
          "time": 41.6,
          "velocity": 0.3858267716535433
        },
        {
          "duration": 0.19583333333333286,
          "durationTicks": 47,
          "midi": 68,
          "name": "G#4",
          "ticks": 9984,
          "time": 41.6,
          "velocity": 0.3858267716535433
        },
        {
          "duration": 0.19583333333333286,
          "durationTicks": 47,
          "midi": 66,
          "name": "F#4",
          "ticks": 9984,
          "time": 41.6,
          "velocity": 0.3858267716535433
        },
        {
          "duration": 0.19583333333333286,
          "durationTicks": 47,
          "midi": 63,
          "name": "D#4",
          "ticks": 9984,
          "time": 41.6,
          "velocity": 0.3858267716535433
        },
        {
          "duration": 0.19583333333333286,
          "durationTicks": 47,
          "midi": 71,
          "name": "B4",
          "ticks": 10032,
          "time": 41.800000000000004,
          "velocity": 0.3858267716535433
        },
        {
          "duration": 0.19583333333333286,
          "durationTicks": 47,
          "midi": 68,
          "name": "G#4",
          "ticks": 10032,
          "time": 41.800000000000004,
          "velocity": 0.3858267716535433
        },
        {
          "duration": 0.19583333333333286,
          "durationTicks": 47,
          "midi": 66,
          "name": "F#4",
          "ticks": 10032,
          "time": 41.800000000000004,
          "velocity": 0.3858267716535433
        },
        {
          "duration": 0.19583333333333286,
          "durationTicks": 47,
          "midi": 63,
          "name": "D#4",
          "ticks": 10032,
          "time": 41.800000000000004,
          "velocity": 0.3858267716535433
        },
        {
          "duration": 0.19583333333333286,
          "durationTicks": 47,
          "midi": 71,
          "name": "B4",
          "ticks": 10080,
          "time": 42,
          "velocity": 0.3858267716535433
        },
        {
          "duration": 0.19583333333333286,
          "durationTicks": 47,
          "midi": 68,
          "name": "G#4",
          "ticks": 10080,
          "time": 42,
          "velocity": 0.3858267716535433
        },
        {
          "duration": 0.19583333333333286,
          "durationTicks": 47,
          "midi": 66,
          "name": "F#4",
          "ticks": 10080,
          "time": 42,
          "velocity": 0.3858267716535433
        },
        {
          "duration": 0.19583333333333286,
          "durationTicks": 47,
          "midi": 63,
          "name": "D#4",
          "ticks": 10080,
          "time": 42,
          "velocity": 0.3858267716535433
        },
        {
          "duration": 0.19583333333333286,
          "durationTicks": 47,
          "midi": 71,
          "name": "B4",
          "ticks": 10128,
          "time": 42.2,
          "velocity": 0.3858267716535433
        },
        {
          "duration": 0.19583333333333286,
          "durationTicks": 47,
          "midi": 68,
          "name": "G#4",
          "ticks": 10128,
          "time": 42.2,
          "velocity": 0.3858267716535433
        },
        {
          "duration": 0.19583333333333286,
          "durationTicks": 47,
          "midi": 66,
          "name": "F#4",
          "ticks": 10128,
          "time": 42.2,
          "velocity": 0.3858267716535433
        },
        {
          "duration": 0.19583333333333286,
          "durationTicks": 47,
          "midi": 63,
          "name": "D#4",
          "ticks": 10128,
          "time": 42.2,
          "velocity": 0.3858267716535433
        },
        {
          "duration": 0.19583333333332575,
          "durationTicks": 47,
          "midi": 71,
          "name": "B4",
          "ticks": 10176,
          "time": 42.400000000000006,
          "velocity": 0.3858267716535433
        },
        {
          "duration": 0.19583333333332575,
          "durationTicks": 47,
          "midi": 68,
          "name": "G#4",
          "ticks": 10176,
          "time": 42.400000000000006,
          "velocity": 0.3858267716535433
        },
        {
          "duration": 0.19583333333332575,
          "durationTicks": 47,
          "midi": 66,
          "name": "F#4",
          "ticks": 10176,
          "time": 42.400000000000006,
          "velocity": 0.3858267716535433
        },
        {
          "duration": 0.19583333333332575,
          "durationTicks": 47,
          "midi": 63,
          "name": "D#4",
          "ticks": 10176,
          "time": 42.400000000000006,
          "velocity": 0.3858267716535433
        },
        {
          "duration": 0.19583333333333286,
          "durationTicks": 47,
          "midi": 71,
          "name": "B4",
          "ticks": 10224,
          "time": 42.6,
          "velocity": 0.3858267716535433
        },
        {
          "duration": 0.19583333333333286,
          "durationTicks": 47,
          "midi": 68,
          "name": "G#4",
          "ticks": 10224,
          "time": 42.6,
          "velocity": 0.3858267716535433
        },
        {
          "duration": 0.19583333333333286,
          "durationTicks": 47,
          "midi": 66,
          "name": "F#4",
          "ticks": 10224,
          "time": 42.6,
          "velocity": 0.3858267716535433
        },
        {
          "duration": 0.19583333333333286,
          "durationTicks": 47,
          "midi": 63,
          "name": "D#4",
          "ticks": 10224,
          "time": 42.6,
          "velocity": 0.3858267716535433
        },
        {
          "duration": 0.19583333333333286,
          "durationTicks": 47,
          "midi": 71,
          "name": "B4",
          "ticks": 10272,
          "time": 42.800000000000004,
          "velocity": 0.3858267716535433
        },
        {
          "duration": 0.19583333333333286,
          "durationTicks": 47,
          "midi": 68,
          "name": "G#4",
          "ticks": 10272,
          "time": 42.800000000000004,
          "velocity": 0.3858267716535433
        },
        {
          "duration": 0.19583333333333286,
          "durationTicks": 47,
          "midi": 66,
          "name": "F#4",
          "ticks": 10272,
          "time": 42.800000000000004,
          "velocity": 0.3858267716535433
        },
        {
          "duration": 0.19583333333333286,
          "durationTicks": 47,
          "midi": 63,
          "name": "D#4",
          "ticks": 10272,
          "time": 42.800000000000004,
          "velocity": 0.3858267716535433
        },
        {
          "duration": 0.19583333333333286,
          "durationTicks": 47,
          "midi": 71,
          "name": "B4",
          "ticks": 10320,
          "time": 43,
          "velocity": 0.3858267716535433
        },
        {
          "duration": 0.19583333333333286,
          "durationTicks": 47,
          "midi": 68,
          "name": "G#4",
          "ticks": 10320,
          "time": 43,
          "velocity": 0.3858267716535433
        },
        {
          "duration": 0.19583333333333286,
          "durationTicks": 47,
          "midi": 66,
          "name": "F#4",
          "ticks": 10320,
          "time": 43,
          "velocity": 0.3858267716535433
        },
        {
          "duration": 0.19583333333333286,
          "durationTicks": 47,
          "midi": 63,
          "name": "D#4",
          "ticks": 10320,
          "time": 43,
          "velocity": 0.3858267716535433
        },
        {
          "duration": 0.19583333333333286,
          "durationTicks": 47,
          "midi": 76,
          "name": "E5",
          "ticks": 10368,
          "time": 43.2,
          "velocity": 0.3858267716535433
        },
        {
          "duration": 0.19583333333333286,
          "durationTicks": 47,
          "midi": 71,
          "name": "B4",
          "ticks": 10368,
          "time": 43.2,
          "velocity": 0.3858267716535433
        },
        {
          "duration": 0.19583333333333286,
          "durationTicks": 47,
          "midi": 68,
          "name": "G#4",
          "ticks": 10368,
          "time": 43.2,
          "velocity": 0.3858267716535433
        },
        {
          "duration": 0.19583333333332575,
          "durationTicks": 47,
          "midi": 76,
          "name": "E5",
          "ticks": 10416,
          "time": 43.400000000000006,
          "velocity": 0.3858267716535433
        },
        {
          "duration": 0.19583333333332575,
          "durationTicks": 47,
          "midi": 71,
          "name": "B4",
          "ticks": 10416,
          "time": 43.400000000000006,
          "velocity": 0.3858267716535433
        },
        {
          "duration": 0.19583333333332575,
          "durationTicks": 47,
          "midi": 68,
          "name": "G#4",
          "ticks": 10416,
          "time": 43.400000000000006,
          "velocity": 0.3858267716535433
        },
        {
          "duration": 0.19583333333333286,
          "durationTicks": 47,
          "midi": 76,
          "name": "E5",
          "ticks": 10464,
          "time": 43.6,
          "velocity": 0.3858267716535433
        },
        {
          "duration": 0.19583333333333286,
          "durationTicks": 47,
          "midi": 71,
          "name": "B4",
          "ticks": 10464,
          "time": 43.6,
          "velocity": 0.3858267716535433
        },
        {
          "duration": 0.19583333333333286,
          "durationTicks": 47,
          "midi": 68,
          "name": "G#4",
          "ticks": 10464,
          "time": 43.6,
          "velocity": 0.3858267716535433
        },
        {
          "duration": 0.19583333333333286,
          "durationTicks": 47,
          "midi": 76,
          "name": "E5",
          "ticks": 10512,
          "time": 43.800000000000004,
          "velocity": 0.3858267716535433
        },
        {
          "duration": 0.19583333333333286,
          "durationTicks": 47,
          "midi": 71,
          "name": "B4",
          "ticks": 10512,
          "time": 43.800000000000004,
          "velocity": 0.3858267716535433
        },
        {
          "duration": 0.19583333333333286,
          "durationTicks": 47,
          "midi": 68,
          "name": "G#4",
          "ticks": 10512,
          "time": 43.800000000000004,
          "velocity": 0.3858267716535433
        },
        {
          "duration": 0.19583333333333286,
          "durationTicks": 47,
          "midi": 76,
          "name": "E5",
          "ticks": 10560,
          "time": 44,
          "velocity": 0.3858267716535433
        },
        {
          "duration": 0.19583333333333286,
          "durationTicks": 47,
          "midi": 71,
          "name": "B4",
          "ticks": 10560,
          "time": 44,
          "velocity": 0.3858267716535433
        },
        {
          "duration": 0.19583333333333286,
          "durationTicks": 47,
          "midi": 68,
          "name": "G#4",
          "ticks": 10560,
          "time": 44,
          "velocity": 0.3858267716535433
        },
        {
          "duration": 0.19583333333333286,
          "durationTicks": 47,
          "midi": 76,
          "name": "E5",
          "ticks": 10608,
          "time": 44.2,
          "velocity": 0.3858267716535433
        },
        {
          "duration": 0.19583333333333286,
          "durationTicks": 47,
          "midi": 71,
          "name": "B4",
          "ticks": 10608,
          "time": 44.2,
          "velocity": 0.3858267716535433
        },
        {
          "duration": 0.19583333333333286,
          "durationTicks": 47,
          "midi": 68,
          "name": "G#4",
          "ticks": 10608,
          "time": 44.2,
          "velocity": 0.3858267716535433
        },
        {
          "duration": 0.19583333333332575,
          "durationTicks": 47,
          "midi": 76,
          "name": "E5",
          "ticks": 10656,
          "time": 44.400000000000006,
          "velocity": 0.3858267716535433
        },
        {
          "duration": 0.19583333333332575,
          "durationTicks": 47,
          "midi": 71,
          "name": "B4",
          "ticks": 10656,
          "time": 44.400000000000006,
          "velocity": 0.3858267716535433
        },
        {
          "duration": 0.19583333333332575,
          "durationTicks": 47,
          "midi": 68,
          "name": "G#4",
          "ticks": 10656,
          "time": 44.400000000000006,
          "velocity": 0.3858267716535433
        },
        {
          "duration": 0.19583333333333286,
          "durationTicks": 47,
          "midi": 76,
          "name": "E5",
          "ticks": 10704,
          "time": 44.6,
          "velocity": 0.3858267716535433
        },
        {
          "duration": 0.19583333333333286,
          "durationTicks": 47,
          "midi": 71,
          "name": "B4",
          "ticks": 10704,
          "time": 44.6,
          "velocity": 0.3858267716535433
        },
        {
          "duration": 0.19583333333333286,
          "durationTicks": 47,
          "midi": 68,
          "name": "G#4",
          "ticks": 10704,
          "time": 44.6,
          "velocity": 0.3858267716535433
        },
        {
          "duration": 0.19583333333333286,
          "durationTicks": 47,
          "midi": 73,
          "name": "C#5",
          "ticks": 10752,
          "time": 44.800000000000004,
          "velocity": 0.3858267716535433
        },
        {
          "duration": 0.19583333333333286,
          "durationTicks": 47,
          "midi": 70,
          "name": "A#4",
          "ticks": 10752,
          "time": 44.800000000000004,
          "velocity": 0.3858267716535433
        },
        {
          "duration": 0.19583333333333286,
          "durationTicks": 47,
          "midi": 66,
          "name": "F#4",
          "ticks": 10752,
          "time": 44.800000000000004,
          "velocity": 0.3858267716535433
        },
        {
          "duration": 0.19583333333333286,
          "durationTicks": 47,
          "midi": 64,
          "name": "E4",
          "ticks": 10752,
          "time": 44.800000000000004,
          "velocity": 0.3858267716535433
        },
        {
          "duration": 0.19583333333333286,
          "durationTicks": 47,
          "midi": 73,
          "name": "C#5",
          "ticks": 10800,
          "time": 45,
          "velocity": 0.3858267716535433
        },
        {
          "duration": 0.19583333333333286,
          "durationTicks": 47,
          "midi": 70,
          "name": "A#4",
          "ticks": 10800,
          "time": 45,
          "velocity": 0.3858267716535433
        },
        {
          "duration": 0.19583333333333286,
          "durationTicks": 47,
          "midi": 66,
          "name": "F#4",
          "ticks": 10800,
          "time": 45,
          "velocity": 0.3858267716535433
        },
        {
          "duration": 0.19583333333333286,
          "durationTicks": 47,
          "midi": 64,
          "name": "E4",
          "ticks": 10800,
          "time": 45,
          "velocity": 0.3858267716535433
        },
        {
          "duration": 0.19583333333333286,
          "durationTicks": 47,
          "midi": 73,
          "name": "C#5",
          "ticks": 10848,
          "time": 45.2,
          "velocity": 0.3858267716535433
        },
        {
          "duration": 0.19583333333333286,
          "durationTicks": 47,
          "midi": 70,
          "name": "A#4",
          "ticks": 10848,
          "time": 45.2,
          "velocity": 0.3858267716535433
        },
        {
          "duration": 0.19583333333333286,
          "durationTicks": 47,
          "midi": 66,
          "name": "F#4",
          "ticks": 10848,
          "time": 45.2,
          "velocity": 0.3858267716535433
        },
        {
          "duration": 0.19583333333333286,
          "durationTicks": 47,
          "midi": 64,
          "name": "E4",
          "ticks": 10848,
          "time": 45.2,
          "velocity": 0.3858267716535433
        },
        {
          "duration": 0.19583333333332575,
          "durationTicks": 47,
          "midi": 73,
          "name": "C#5",
          "ticks": 10896,
          "time": 45.400000000000006,
          "velocity": 0.3858267716535433
        },
        {
          "duration": 0.19583333333332575,
          "durationTicks": 47,
          "midi": 70,
          "name": "A#4",
          "ticks": 10896,
          "time": 45.400000000000006,
          "velocity": 0.3858267716535433
        },
        {
          "duration": 0.19583333333332575,
          "durationTicks": 47,
          "midi": 66,
          "name": "F#4",
          "ticks": 10896,
          "time": 45.400000000000006,
          "velocity": 0.3858267716535433
        },
        {
          "duration": 0.19583333333332575,
          "durationTicks": 47,
          "midi": 64,
          "name": "E4",
          "ticks": 10896,
          "time": 45.400000000000006,
          "velocity": 0.3858267716535433
        },
        {
          "duration": 0.19583333333333286,
          "durationTicks": 47,
          "midi": 73,
          "name": "C#5",
          "ticks": 10944,
          "time": 45.6,
          "velocity": 0.3858267716535433
        },
        {
          "duration": 0.19583333333333286,
          "durationTicks": 47,
          "midi": 70,
          "name": "A#4",
          "ticks": 10944,
          "time": 45.6,
          "velocity": 0.3858267716535433
        },
        {
          "duration": 0.19583333333333286,
          "durationTicks": 47,
          "midi": 66,
          "name": "F#4",
          "ticks": 10944,
          "time": 45.6,
          "velocity": 0.3858267716535433
        },
        {
          "duration": 0.19583333333333286,
          "durationTicks": 47,
          "midi": 64,
          "name": "E4",
          "ticks": 10944,
          "time": 45.6,
          "velocity": 0.3858267716535433
        },
        {
          "duration": 0.19583333333333286,
          "durationTicks": 47,
          "midi": 73,
          "name": "C#5",
          "ticks": 10992,
          "time": 45.800000000000004,
          "velocity": 0.3858267716535433
        },
        {
          "duration": 0.19583333333333286,
          "durationTicks": 47,
          "midi": 70,
          "name": "A#4",
          "ticks": 10992,
          "time": 45.800000000000004,
          "velocity": 0.3858267716535433
        },
        {
          "duration": 0.19583333333333286,
          "durationTicks": 47,
          "midi": 66,
          "name": "F#4",
          "ticks": 10992,
          "time": 45.800000000000004,
          "velocity": 0.3858267716535433
        },
        {
          "duration": 0.19583333333333286,
          "durationTicks": 47,
          "midi": 64,
          "name": "E4",
          "ticks": 10992,
          "time": 45.800000000000004,
          "velocity": 0.3858267716535433
        },
        {
          "duration": 0.19583333333333286,
          "durationTicks": 47,
          "midi": 73,
          "name": "C#5",
          "ticks": 11040,
          "time": 46,
          "velocity": 0.3858267716535433
        },
        {
          "duration": 0.19583333333333286,
          "durationTicks": 47,
          "midi": 70,
          "name": "A#4",
          "ticks": 11040,
          "time": 46,
          "velocity": 0.3858267716535433
        },
        {
          "duration": 0.19583333333333286,
          "durationTicks": 47,
          "midi": 66,
          "name": "F#4",
          "ticks": 11040,
          "time": 46,
          "velocity": 0.3858267716535433
        },
        {
          "duration": 0.19583333333333286,
          "durationTicks": 47,
          "midi": 64,
          "name": "E4",
          "ticks": 11040,
          "time": 46,
          "velocity": 0.3858267716535433
        },
        {
          "duration": 0.19583333333333286,
          "durationTicks": 47,
          "midi": 73,
          "name": "C#5",
          "ticks": 11088,
          "time": 46.2,
          "velocity": 0.3858267716535433
        },
        {
          "duration": 0.19583333333333286,
          "durationTicks": 47,
          "midi": 70,
          "name": "A#4",
          "ticks": 11088,
          "time": 46.2,
          "velocity": 0.3858267716535433
        },
        {
          "duration": 0.19583333333333286,
          "durationTicks": 47,
          "midi": 66,
          "name": "F#4",
          "ticks": 11088,
          "time": 46.2,
          "velocity": 0.3858267716535433
        },
        {
          "duration": 0.19583333333333286,
          "durationTicks": 47,
          "midi": 64,
          "name": "E4",
          "ticks": 11088,
          "time": 46.2,
          "velocity": 0.3858267716535433
        },
        {
          "duration": 0.19583333333332575,
          "durationTicks": 47,
          "midi": 73,
          "name": "C#5",
          "ticks": 11136,
          "time": 46.400000000000006,
          "velocity": 0.3858267716535433
        },
        {
          "duration": 0.19583333333332575,
          "durationTicks": 47,
          "midi": 70,
          "name": "A#4",
          "ticks": 11136,
          "time": 46.400000000000006,
          "velocity": 0.3858267716535433
        },
        {
          "duration": 0.19583333333332575,
          "durationTicks": 47,
          "midi": 66,
          "name": "F#4",
          "ticks": 11136,
          "time": 46.400000000000006,
          "velocity": 0.3858267716535433
        },
        {
          "duration": 0.19583333333332575,
          "durationTicks": 47,
          "midi": 63,
          "name": "D#4",
          "ticks": 11136,
          "time": 46.400000000000006,
          "velocity": 0.3858267716535433
        },
        {
          "duration": 0.19583333333333286,
          "durationTicks": 47,
          "midi": 73,
          "name": "C#5",
          "ticks": 11184,
          "time": 46.6,
          "velocity": 0.3858267716535433
        },
        {
          "duration": 0.19583333333333286,
          "durationTicks": 47,
          "midi": 70,
          "name": "A#4",
          "ticks": 11184,
          "time": 46.6,
          "velocity": 0.3858267716535433
        },
        {
          "duration": 0.19583333333333286,
          "durationTicks": 47,
          "midi": 66,
          "name": "F#4",
          "ticks": 11184,
          "time": 46.6,
          "velocity": 0.3858267716535433
        },
        {
          "duration": 0.19583333333333286,
          "durationTicks": 47,
          "midi": 63,
          "name": "D#4",
          "ticks": 11184,
          "time": 46.6,
          "velocity": 0.3858267716535433
        },
        {
          "duration": 0.19583333333333286,
          "durationTicks": 47,
          "midi": 73,
          "name": "C#5",
          "ticks": 11232,
          "time": 46.800000000000004,
          "velocity": 0.3858267716535433
        },
        {
          "duration": 0.19583333333333286,
          "durationTicks": 47,
          "midi": 70,
          "name": "A#4",
          "ticks": 11232,
          "time": 46.800000000000004,
          "velocity": 0.3858267716535433
        },
        {
          "duration": 0.19583333333333286,
          "durationTicks": 47,
          "midi": 66,
          "name": "F#4",
          "ticks": 11232,
          "time": 46.800000000000004,
          "velocity": 0.3858267716535433
        },
        {
          "duration": 0.19583333333333286,
          "durationTicks": 47,
          "midi": 63,
          "name": "D#4",
          "ticks": 11232,
          "time": 46.800000000000004,
          "velocity": 0.3858267716535433
        },
        {
          "duration": 0.19583333333333286,
          "durationTicks": 47,
          "midi": 73,
          "name": "C#5",
          "ticks": 11280,
          "time": 47,
          "velocity": 0.3858267716535433
        },
        {
          "duration": 0.19583333333333286,
          "durationTicks": 47,
          "midi": 70,
          "name": "A#4",
          "ticks": 11280,
          "time": 47,
          "velocity": 0.3858267716535433
        },
        {
          "duration": 0.19583333333333286,
          "durationTicks": 47,
          "midi": 66,
          "name": "F#4",
          "ticks": 11280,
          "time": 47,
          "velocity": 0.3858267716535433
        },
        {
          "duration": 0.19583333333333286,
          "durationTicks": 47,
          "midi": 63,
          "name": "D#4",
          "ticks": 11280,
          "time": 47,
          "velocity": 0.3858267716535433
        },
        {
          "duration": 0.19583333333333286,
          "durationTicks": 47,
          "midi": 73,
          "name": "C#5",
          "ticks": 11328,
          "time": 47.2,
          "velocity": 0.3858267716535433
        },
        {
          "duration": 0.19583333333333286,
          "durationTicks": 47,
          "midi": 70,
          "name": "A#4",
          "ticks": 11328,
          "time": 47.2,
          "velocity": 0.3858267716535433
        },
        {
          "duration": 0.19583333333333286,
          "durationTicks": 47,
          "midi": 66,
          "name": "F#4",
          "ticks": 11328,
          "time": 47.2,
          "velocity": 0.3858267716535433
        },
        {
          "duration": 0.19583333333333286,
          "durationTicks": 47,
          "midi": 63,
          "name": "D#4",
          "ticks": 11328,
          "time": 47.2,
          "velocity": 0.3858267716535433
        },
        {
          "duration": 0.19583333333332575,
          "durationTicks": 47,
          "midi": 73,
          "name": "C#5",
          "ticks": 11376,
          "time": 47.400000000000006,
          "velocity": 0.3858267716535433
        },
        {
          "duration": 0.19583333333332575,
          "durationTicks": 47,
          "midi": 70,
          "name": "A#4",
          "ticks": 11376,
          "time": 47.400000000000006,
          "velocity": 0.3858267716535433
        },
        {
          "duration": 0.19583333333332575,
          "durationTicks": 47,
          "midi": 66,
          "name": "F#4",
          "ticks": 11376,
          "time": 47.400000000000006,
          "velocity": 0.3858267716535433
        },
        {
          "duration": 0.19583333333332575,
          "durationTicks": 47,
          "midi": 63,
          "name": "D#4",
          "ticks": 11376,
          "time": 47.400000000000006,
          "velocity": 0.3858267716535433
        },
        {
          "duration": 0.19583333333333286,
          "durationTicks": 47,
          "midi": 73,
          "name": "C#5",
          "ticks": 11424,
          "time": 47.6,
          "velocity": 0.3858267716535433
        },
        {
          "duration": 0.19583333333333286,
          "durationTicks": 47,
          "midi": 70,
          "name": "A#4",
          "ticks": 11424,
          "time": 47.6,
          "velocity": 0.3858267716535433
        },
        {
          "duration": 0.19583333333333286,
          "durationTicks": 47,
          "midi": 66,
          "name": "F#4",
          "ticks": 11424,
          "time": 47.6,
          "velocity": 0.3858267716535433
        },
        {
          "duration": 0.19583333333333286,
          "durationTicks": 47,
          "midi": 63,
          "name": "D#4",
          "ticks": 11424,
          "time": 47.6,
          "velocity": 0.3858267716535433
        },
        {
          "duration": 0.19583333333333286,
          "durationTicks": 47,
          "midi": 73,
          "name": "C#5",
          "ticks": 11472,
          "time": 47.800000000000004,
          "velocity": 0.3858267716535433
        },
        {
          "duration": 0.19583333333333286,
          "durationTicks": 47,
          "midi": 70,
          "name": "A#4",
          "ticks": 11472,
          "time": 47.800000000000004,
          "velocity": 0.3858267716535433
        },
        {
          "duration": 0.19583333333333286,
          "durationTicks": 47,
          "midi": 66,
          "name": "F#4",
          "ticks": 11472,
          "time": 47.800000000000004,
          "velocity": 0.3858267716535433
        },
        {
          "duration": 0.19583333333333286,
          "durationTicks": 47,
          "midi": 63,
          "name": "D#4",
          "ticks": 11472,
          "time": 47.800000000000004,
          "velocity": 0.3858267716535433
        },
        {
          "duration": 0.19583333333333286,
          "durationTicks": 47,
          "midi": 71,
          "name": "B4",
          "ticks": 11520,
          "time": 48,
          "velocity": 0.3858267716535433
        },
        {
          "duration": 0.19583333333333286,
          "durationTicks": 47,
          "midi": 68,
          "name": "G#4",
          "ticks": 11520,
          "time": 48,
          "velocity": 0.3858267716535433
        },
        {
          "duration": 0.19583333333333286,
          "durationTicks": 47,
          "midi": 66,
          "name": "F#4",
          "ticks": 11520,
          "time": 48,
          "velocity": 0.3858267716535433
        },
        {
          "duration": 0.19583333333333286,
          "durationTicks": 47,
          "midi": 63,
          "name": "D#4",
          "ticks": 11520,
          "time": 48,
          "velocity": 0.3858267716535433
        },
        {
          "duration": 0.19583333333333286,
          "durationTicks": 47,
          "midi": 71,
          "name": "B4",
          "ticks": 11568,
          "time": 48.2,
          "velocity": 0.3858267716535433
        },
        {
          "duration": 0.19583333333333286,
          "durationTicks": 47,
          "midi": 68,
          "name": "G#4",
          "ticks": 11568,
          "time": 48.2,
          "velocity": 0.3858267716535433
        },
        {
          "duration": 0.19583333333333286,
          "durationTicks": 47,
          "midi": 66,
          "name": "F#4",
          "ticks": 11568,
          "time": 48.2,
          "velocity": 0.3858267716535433
        },
        {
          "duration": 0.19583333333333286,
          "durationTicks": 47,
          "midi": 63,
          "name": "D#4",
          "ticks": 11568,
          "time": 48.2,
          "velocity": 0.3858267716535433
        },
        {
          "duration": 0.19583333333332575,
          "durationTicks": 47,
          "midi": 71,
          "name": "B4",
          "ticks": 11616,
          "time": 48.400000000000006,
          "velocity": 0.3858267716535433
        },
        {
          "duration": 0.19583333333332575,
          "durationTicks": 47,
          "midi": 68,
          "name": "G#4",
          "ticks": 11616,
          "time": 48.400000000000006,
          "velocity": 0.3858267716535433
        },
        {
          "duration": 0.19583333333332575,
          "durationTicks": 47,
          "midi": 66,
          "name": "F#4",
          "ticks": 11616,
          "time": 48.400000000000006,
          "velocity": 0.3858267716535433
        },
        {
          "duration": 0.19583333333332575,
          "durationTicks": 47,
          "midi": 63,
          "name": "D#4",
          "ticks": 11616,
          "time": 48.400000000000006,
          "velocity": 0.3858267716535433
        },
        {
          "duration": 0.19583333333333286,
          "durationTicks": 47,
          "midi": 71,
          "name": "B4",
          "ticks": 11664,
          "time": 48.6,
          "velocity": 0.3858267716535433
        },
        {
          "duration": 0.19583333333333286,
          "durationTicks": 47,
          "midi": 68,
          "name": "G#4",
          "ticks": 11664,
          "time": 48.6,
          "velocity": 0.3858267716535433
        },
        {
          "duration": 0.19583333333333286,
          "durationTicks": 47,
          "midi": 66,
          "name": "F#4",
          "ticks": 11664,
          "time": 48.6,
          "velocity": 0.3858267716535433
        },
        {
          "duration": 0.19583333333333286,
          "durationTicks": 47,
          "midi": 63,
          "name": "D#4",
          "ticks": 11664,
          "time": 48.6,
          "velocity": 0.3858267716535433
        },
        {
          "duration": 0.19583333333333286,
          "durationTicks": 47,
          "midi": 71,
          "name": "B4",
          "ticks": 11712,
          "time": 48.800000000000004,
          "velocity": 0.3858267716535433
        },
        {
          "duration": 0.19583333333333286,
          "durationTicks": 47,
          "midi": 68,
          "name": "G#4",
          "ticks": 11712,
          "time": 48.800000000000004,
          "velocity": 0.3858267716535433
        },
        {
          "duration": 0.19583333333333286,
          "durationTicks": 47,
          "midi": 66,
          "name": "F#4",
          "ticks": 11712,
          "time": 48.800000000000004,
          "velocity": 0.3858267716535433
        },
        {
          "duration": 0.19583333333333286,
          "durationTicks": 47,
          "midi": 63,
          "name": "D#4",
          "ticks": 11712,
          "time": 48.800000000000004,
          "velocity": 0.3858267716535433
        },
        {
          "duration": 0.19583333333333286,
          "durationTicks": 47,
          "midi": 71,
          "name": "B4",
          "ticks": 11760,
          "time": 49,
          "velocity": 0.3858267716535433
        },
        {
          "duration": 0.19583333333333286,
          "durationTicks": 47,
          "midi": 68,
          "name": "G#4",
          "ticks": 11760,
          "time": 49,
          "velocity": 0.3858267716535433
        },
        {
          "duration": 0.19583333333333286,
          "durationTicks": 47,
          "midi": 66,
          "name": "F#4",
          "ticks": 11760,
          "time": 49,
          "velocity": 0.3858267716535433
        },
        {
          "duration": 0.19583333333333286,
          "durationTicks": 47,
          "midi": 63,
          "name": "D#4",
          "ticks": 11760,
          "time": 49,
          "velocity": 0.3858267716535433
        },
        {
          "duration": 0.19583333333333286,
          "durationTicks": 47,
          "midi": 71,
          "name": "B4",
          "ticks": 11808,
          "time": 49.2,
          "velocity": 0.3858267716535433
        },
        {
          "duration": 0.19583333333333286,
          "durationTicks": 47,
          "midi": 68,
          "name": "G#4",
          "ticks": 11808,
          "time": 49.2,
          "velocity": 0.3858267716535433
        },
        {
          "duration": 0.19583333333333286,
          "durationTicks": 47,
          "midi": 66,
          "name": "F#4",
          "ticks": 11808,
          "time": 49.2,
          "velocity": 0.3858267716535433
        },
        {
          "duration": 0.19583333333333286,
          "durationTicks": 47,
          "midi": 63,
          "name": "D#4",
          "ticks": 11808,
          "time": 49.2,
          "velocity": 0.3858267716535433
        },
        {
          "duration": 0.19583333333332575,
          "durationTicks": 47,
          "midi": 71,
          "name": "B4",
          "ticks": 11856,
          "time": 49.400000000000006,
          "velocity": 0.3858267716535433
        },
        {
          "duration": 0.19583333333332575,
          "durationTicks": 47,
          "midi": 68,
          "name": "G#4",
          "ticks": 11856,
          "time": 49.400000000000006,
          "velocity": 0.3858267716535433
        },
        {
          "duration": 0.19583333333332575,
          "durationTicks": 47,
          "midi": 66,
          "name": "F#4",
          "ticks": 11856,
          "time": 49.400000000000006,
          "velocity": 0.3858267716535433
        },
        {
          "duration": 0.19583333333332575,
          "durationTicks": 47,
          "midi": 63,
          "name": "D#4",
          "ticks": 11856,
          "time": 49.400000000000006,
          "velocity": 0.3858267716535433
        },
        {
          "duration": 0.19583333333333286,
          "durationTicks": 47,
          "midi": 76,
          "name": "E5",
          "ticks": 11904,
          "time": 49.6,
          "velocity": 0.3858267716535433
        },
        {
          "duration": 0.19583333333333286,
          "durationTicks": 47,
          "midi": 71,
          "name": "B4",
          "ticks": 11904,
          "time": 49.6,
          "velocity": 0.3858267716535433
        },
        {
          "duration": 0.19583333333333286,
          "durationTicks": 47,
          "midi": 68,
          "name": "G#4",
          "ticks": 11904,
          "time": 49.6,
          "velocity": 0.3858267716535433
        },
        {
          "duration": 0.19583333333333286,
          "durationTicks": 47,
          "midi": 76,
          "name": "E5",
          "ticks": 11952,
          "time": 49.800000000000004,
          "velocity": 0.3858267716535433
        },
        {
          "duration": 0.19583333333333286,
          "durationTicks": 47,
          "midi": 71,
          "name": "B4",
          "ticks": 11952,
          "time": 49.800000000000004,
          "velocity": 0.3858267716535433
        },
        {
          "duration": 0.19583333333333286,
          "durationTicks": 47,
          "midi": 68,
          "name": "G#4",
          "ticks": 11952,
          "time": 49.800000000000004,
          "velocity": 0.3858267716535433
        },
        {
          "duration": 0.19583333333333286,
          "durationTicks": 47,
          "midi": 76,
          "name": "E5",
          "ticks": 12000,
          "time": 50,
          "velocity": 0.3858267716535433
        },
        {
          "duration": 0.19583333333333286,
          "durationTicks": 47,
          "midi": 71,
          "name": "B4",
          "ticks": 12000,
          "time": 50,
          "velocity": 0.3858267716535433
        },
        {
          "duration": 0.19583333333333286,
          "durationTicks": 47,
          "midi": 68,
          "name": "G#4",
          "ticks": 12000,
          "time": 50,
          "velocity": 0.3858267716535433
        },
        {
          "duration": 0.19583333333333286,
          "durationTicks": 47,
          "midi": 76,
          "name": "E5",
          "ticks": 12048,
          "time": 50.2,
          "velocity": 0.3858267716535433
        },
        {
          "duration": 0.19583333333333286,
          "durationTicks": 47,
          "midi": 71,
          "name": "B4",
          "ticks": 12048,
          "time": 50.2,
          "velocity": 0.3858267716535433
        },
        {
          "duration": 0.19583333333333286,
          "durationTicks": 47,
          "midi": 68,
          "name": "G#4",
          "ticks": 12048,
          "time": 50.2,
          "velocity": 0.3858267716535433
        },
        {
          "duration": 0.19583333333332575,
          "durationTicks": 47,
          "midi": 76,
          "name": "E5",
          "ticks": 12096,
          "time": 50.400000000000006,
          "velocity": 0.3858267716535433
        },
        {
          "duration": 0.19583333333332575,
          "durationTicks": 47,
          "midi": 71,
          "name": "B4",
          "ticks": 12096,
          "time": 50.400000000000006,
          "velocity": 0.3858267716535433
        },
        {
          "duration": 0.19583333333332575,
          "durationTicks": 47,
          "midi": 68,
          "name": "G#4",
          "ticks": 12096,
          "time": 50.400000000000006,
          "velocity": 0.3858267716535433
        },
        {
          "duration": 0.19583333333333286,
          "durationTicks": 47,
          "midi": 76,
          "name": "E5",
          "ticks": 12144,
          "time": 50.6,
          "velocity": 0.3858267716535433
        },
        {
          "duration": 0.19583333333333286,
          "durationTicks": 47,
          "midi": 71,
          "name": "B4",
          "ticks": 12144,
          "time": 50.6,
          "velocity": 0.3858267716535433
        },
        {
          "duration": 0.19583333333333286,
          "durationTicks": 47,
          "midi": 68,
          "name": "G#4",
          "ticks": 12144,
          "time": 50.6,
          "velocity": 0.3858267716535433
        },
        {
          "duration": 0.19583333333333286,
          "durationTicks": 47,
          "midi": 76,
          "name": "E5",
          "ticks": 12192,
          "time": 50.800000000000004,
          "velocity": 0.3858267716535433
        },
        {
          "duration": 0.19583333333333286,
          "durationTicks": 47,
          "midi": 71,
          "name": "B4",
          "ticks": 12192,
          "time": 50.800000000000004,
          "velocity": 0.3858267716535433
        },
        {
          "duration": 0.19583333333333286,
          "durationTicks": 47,
          "midi": 68,
          "name": "G#4",
          "ticks": 12192,
          "time": 50.800000000000004,
          "velocity": 0.3858267716535433
        },
        {
          "duration": 0.19583333333333286,
          "durationTicks": 47,
          "midi": 76,
          "name": "E5",
          "ticks": 12240,
          "time": 51,
          "velocity": 0.3858267716535433
        },
        {
          "duration": 0.19583333333333286,
          "durationTicks": 47,
          "midi": 71,
          "name": "B4",
          "ticks": 12240,
          "time": 51,
          "velocity": 0.3858267716535433
        },
        {
          "duration": 0.19583333333333286,
          "durationTicks": 47,
          "midi": 68,
          "name": "G#4",
          "ticks": 12240,
          "time": 51,
          "velocity": 0.3858267716535433
        }
      ]
    },
    {
      "channel": 4,
      "controlChanges": {
        "2": [
          {
            "number": 2,
            "ticks": 0,
            "time": 0,
            "value": 0.8818897637795275
          },
          {
            "number": 2,
            "ticks": 9615,
            "time": 40.0625,
            "value": 0.8818897637795275
          },
          {
            "number": 2,
            "ticks": 13824,
            "time": 57.6,
            "value": 0.8818897637795275
          },
          {
            "number": 2,
            "ticks": 13825,
            "time": 57.60416666666667,
            "value": 0.8818897637795275
          }
        ],
        "6": [
          {
            "number": 6,
            "ticks": 0,
            "time": 0,
            "value": 0.09448818897637795
          },
          {
            "number": 6,
            "ticks": 0,
            "time": 0,
            "value": 0.09448818897637795
          },
          {
            "number": 6,
            "ticks": 0,
            "time": 0,
            "value": 0.09448818897637795
          },
          {
            "number": 6,
            "ticks": 13824,
            "time": 57.6,
            "value": 0.09448818897637795
          },
          {
            "number": 6,
            "ticks": 13825,
            "time": 57.60416666666667,
            "value": 0.09448818897637795
          }
        ],
        "7": [
          {
            "number": 7,
            "ticks": 0,
            "time": 0,
            "value": 0.7874015748031497
          },
          {
            "number": 7,
            "ticks": 0,
            "time": 0,
            "value": 0.7874015748031497
          },
          {
            "number": 7,
            "ticks": 0,
            "time": 0,
            "value": 0.7874015748031497
          },
          {
            "number": 7,
            "ticks": 0,
            "time": 0,
            "value": 0.7874015748031497
          },
          {
            "number": 7,
            "ticks": 0,
            "time": 0,
            "value": 0.7874015748031497
          },
          {
            "number": 7,
            "ticks": 0,
            "time": 0,
            "value": 0.7874015748031497
          },
          {
            "number": 7,
            "ticks": 13824,
            "time": 57.6,
            "value": 0.7874015748031497
          },
          {
            "number": 7,
            "ticks": 13824,
            "time": 57.6,
            "value": 0.7874015748031497
          },
          {
            "number": 7,
            "ticks": 13825,
            "time": 57.60416666666667,
            "value": 0.7874015748031497
          }
        ],
        "10": [
          {
            "number": 10,
            "ticks": 0,
            "time": 0,
            "value": 0.5039370078740157
          },
          {
            "number": 10,
            "ticks": 0,
            "time": 0,
            "value": 0.5039370078740157
          },
          {
            "number": 10,
            "ticks": 0,
            "time": 0,
            "value": 0.5039370078740157
          },
          {
            "number": 10,
            "ticks": 0,
            "time": 0,
            "value": 0.5039370078740157
          },
          {
            "number": 10,
            "ticks": 0,
            "time": 0,
            "value": 0.5039370078740157
          },
          {
            "number": 10,
            "ticks": 0,
            "time": 0,
            "value": 0.5039370078740157
          },
          {
            "number": 10,
            "ticks": 13824,
            "time": 57.6,
            "value": 0.5039370078740157
          },
          {
            "number": 10,
            "ticks": 13824,
            "time": 57.6,
            "value": 0.5039370078740157
          },
          {
            "number": 10,
            "ticks": 13825,
            "time": 57.60416666666667,
            "value": 0.5039370078740157
          }
        ],
        "91": [
          {
            "number": 91,
            "ticks": 0,
            "time": 0,
            "value": 0
          },
          {
            "number": 91,
            "ticks": 0,
            "time": 0,
            "value": 0
          },
          {
            "number": 91,
            "ticks": 0,
            "time": 0,
            "value": 0
          },
          {
            "number": 91,
            "ticks": 0,
            "time": 0,
            "value": 0
          },
          {
            "number": 91,
            "ticks": 0,
            "time": 0,
            "value": 0
          },
          {
            "number": 91,
            "ticks": 13824,
            "time": 57.6,
            "value": 0
          },
          {
            "number": 91,
            "ticks": 13824,
            "time": 57.6,
            "value": 0
          },
          {
            "number": 91,
            "ticks": 13825,
            "time": 57.60416666666667,
            "value": 0
          }
        ],
        "93": [
          {
            "number": 93,
            "ticks": 0,
            "time": 0,
            "value": 0
          },
          {
            "number": 93,
            "ticks": 0,
            "time": 0,
            "value": 0
          },
          {
            "number": 93,
            "ticks": 0,
            "time": 0,
            "value": 0
          },
          {
            "number": 93,
            "ticks": 0,
            "time": 0,
            "value": 0
          },
          {
            "number": 93,
            "ticks": 0,
            "time": 0,
            "value": 0
          },
          {
            "number": 93,
            "ticks": 13824,
            "time": 57.6,
            "value": 0
          },
          {
            "number": 93,
            "ticks": 13824,
            "time": 57.6,
            "value": 0
          },
          {
            "number": 93,
            "ticks": 13825,
            "time": 57.60416666666667,
            "value": 0
          }
        ],
        "100": [
          {
            "number": 100,
            "ticks": 0,
            "time": 0,
            "value": 0
          },
          {
            "number": 100,
            "ticks": 0,
            "time": 0,
            "value": 0
          },
          {
            "number": 100,
            "ticks": 0,
            "time": 0,
            "value": 0
          },
          {
            "number": 100,
            "ticks": 13824,
            "time": 57.6,
            "value": 0
          },
          {
            "number": 100,
            "ticks": 13825,
            "time": 57.60416666666667,
            "value": 0
          }
        ],
        "101": [
          {
            "number": 101,
            "ticks": 0,
            "time": 0,
            "value": 0
          },
          {
            "number": 101,
            "ticks": 0,
            "time": 0,
            "value": 0
          },
          {
            "number": 101,
            "ticks": 0,
            "time": 0,
            "value": 0
          },
          {
            "number": 101,
            "ticks": 13824,
            "time": 57.6,
            "value": 0
          },
          {
            "number": 101,
            "ticks": 13825,
            "time": 57.60416666666667,
            "value": 0
          }
        ]
      },
      "pitchBends": [
        {
          "ticks": 0,
          "time": 0,
          "value": 0
        },
        {
          "ticks": 0,
          "time": 0,
          "value": 0
        },
        {
          "ticks": 0,
          "time": 0,
          "value": 0
        },
        {
          "ticks": 0,
          "time": 0,
          "value": 0
        },
        {
          "ticks": 13824,
          "time": 57.6,
          "value": 0
        },
        {
          "ticks": 13825,
          "time": 57.60416666666667,
          "value": 0
        }
      ],
      "instrument": {
        "family": "piano",
        "number": 0,
        "name": "acoustic grand piano"
      },
      "name": "Acoustic Grand Piano",
      "notes": [
        {
          "duration": 0.1875,
          "durationTicks": 45,
          "midi": 74,
          "name": "D5",
          "ticks": 1536,
          "time": 6.4,
          "velocity": 0.3858267716535433
        },
        {
          "duration": 0.1875,
          "durationTicks": 45,
          "midi": 62,
          "name": "D4",
          "ticks": 1536,
          "time": 6.4,
          "velocity": 0.3858267716535433
        },
        {
          "duration": 0.1875,
          "durationTicks": 45,
          "midi": 81,
          "name": "A5",
          "ticks": 1584,
          "time": 6.6000000000000005,
          "velocity": 0.3858267716535433
        },
        {
          "duration": 0.1875,
          "durationTicks": 45,
          "midi": 69,
          "name": "A4",
          "ticks": 1584,
          "time": 6.6000000000000005,
          "velocity": 0.3858267716535433
        },
        {
          "duration": 0.1875,
          "durationTicks": 45,
          "midi": 86,
          "name": "D6",
          "ticks": 1632,
          "time": 6.800000000000001,
          "velocity": 0.3858267716535433
        },
        {
          "duration": 0.1875,
          "durationTicks": 45,
          "midi": 74,
          "name": "D5",
          "ticks": 1632,
          "time": 6.800000000000001,
          "velocity": 0.3858267716535433
        },
        {
          "duration": 0.1875,
          "durationTicks": 45,
          "midi": 81,
          "name": "A5",
          "ticks": 1680,
          "time": 7,
          "velocity": 0.3858267716535433
        },
        {
          "duration": 0.1875,
          "durationTicks": 45,
          "midi": 69,
          "name": "A4",
          "ticks": 1680,
          "time": 7,
          "velocity": 0.3858267716535433
        },
        {
          "duration": 0.1875,
          "durationTicks": 45,
          "midi": 74,
          "name": "D5",
          "ticks": 1728,
          "time": 7.2,
          "velocity": 0.3858267716535433
        },
        {
          "duration": 0.1875,
          "durationTicks": 45,
          "midi": 62,
          "name": "D4",
          "ticks": 1728,
          "time": 7.2,
          "velocity": 0.3858267716535433
        },
        {
          "duration": 0.1875,
          "durationTicks": 45,
          "midi": 81,
          "name": "A5",
          "ticks": 1776,
          "time": 7.4,
          "velocity": 0.3858267716535433
        },
        {
          "duration": 0.1875,
          "durationTicks": 45,
          "midi": 69,
          "name": "A4",
          "ticks": 1776,
          "time": 7.4,
          "velocity": 0.3858267716535433
        },
        {
          "duration": 0.1875,
          "durationTicks": 45,
          "midi": 86,
          "name": "D6",
          "ticks": 1824,
          "time": 7.6000000000000005,
          "velocity": 0.3858267716535433
        },
        {
          "duration": 0.1875,
          "durationTicks": 45,
          "midi": 74,
          "name": "D5",
          "ticks": 1824,
          "time": 7.6000000000000005,
          "velocity": 0.3858267716535433
        },
        {
          "duration": 0.1875,
          "durationTicks": 45,
          "midi": 81,
          "name": "A5",
          "ticks": 1872,
          "time": 7.800000000000001,
          "velocity": 0.3858267716535433
        },
        {
          "duration": 0.1875,
          "durationTicks": 45,
          "midi": 69,
          "name": "A4",
          "ticks": 1872,
          "time": 7.800000000000001,
          "velocity": 0.3858267716535433
        },
        {
          "duration": 0.1875,
          "durationTicks": 45,
          "midi": 74,
          "name": "D5",
          "ticks": 1920,
          "time": 8,
          "velocity": 0.3858267716535433
        },
        {
          "duration": 0.1875,
          "durationTicks": 45,
          "midi": 62,
          "name": "D4",
          "ticks": 1920,
          "time": 8,
          "velocity": 0.3858267716535433
        },
        {
          "duration": 0.1875,
          "durationTicks": 45,
          "midi": 81,
          "name": "A5",
          "ticks": 1968,
          "time": 8.200000000000001,
          "velocity": 0.3858267716535433
        },
        {
          "duration": 0.1875,
          "durationTicks": 45,
          "midi": 69,
          "name": "A4",
          "ticks": 1968,
          "time": 8.200000000000001,
          "velocity": 0.3858267716535433
        },
        {
          "duration": 0.1875,
          "durationTicks": 45,
          "midi": 86,
          "name": "D6",
          "ticks": 2016,
          "time": 8.4,
          "velocity": 0.3858267716535433
        },
        {
          "duration": 0.1875,
          "durationTicks": 45,
          "midi": 74,
          "name": "D5",
          "ticks": 2016,
          "time": 8.4,
          "velocity": 0.3858267716535433
        },
        {
          "duration": 0.1875,
          "durationTicks": 45,
          "midi": 81,
          "name": "A5",
          "ticks": 2064,
          "time": 8.6,
          "velocity": 0.3858267716535433
        },
        {
          "duration": 0.1875,
          "durationTicks": 45,
          "midi": 69,
          "name": "A4",
          "ticks": 2064,
          "time": 8.6,
          "velocity": 0.3858267716535433
        },
        {
          "duration": 0.1875,
          "durationTicks": 45,
          "midi": 74,
          "name": "D5",
          "ticks": 2112,
          "time": 8.8,
          "velocity": 0.3858267716535433
        },
        {
          "duration": 0.1875,
          "durationTicks": 45,
          "midi": 62,
          "name": "D4",
          "ticks": 2112,
          "time": 8.8,
          "velocity": 0.3858267716535433
        },
        {
          "duration": 0.1875,
          "durationTicks": 45,
          "midi": 81,
          "name": "A5",
          "ticks": 2160,
          "time": 9,
          "velocity": 0.3858267716535433
        },
        {
          "duration": 0.1875,
          "durationTicks": 45,
          "midi": 69,
          "name": "A4",
          "ticks": 2160,
          "time": 9,
          "velocity": 0.3858267716535433
        },
        {
          "duration": 0.1875,
          "durationTicks": 45,
          "midi": 86,
          "name": "D6",
          "ticks": 2208,
          "time": 9.200000000000001,
          "velocity": 0.3858267716535433
        },
        {
          "duration": 0.1875,
          "durationTicks": 45,
          "midi": 74,
          "name": "D5",
          "ticks": 2208,
          "time": 9.200000000000001,
          "velocity": 0.3858267716535433
        },
        {
          "duration": 0.1875,
          "durationTicks": 45,
          "midi": 81,
          "name": "A5",
          "ticks": 2256,
          "time": 9.4,
          "velocity": 0.3858267716535433
        },
        {
          "duration": 0.1875,
          "durationTicks": 45,
          "midi": 69,
          "name": "A4",
          "ticks": 2256,
          "time": 9.4,
          "velocity": 0.3858267716535433
        },
        {
          "duration": 0.1875,
          "durationTicks": 45,
          "midi": 74,
          "name": "D5",
          "ticks": 2304,
          "time": 9.600000000000001,
          "velocity": 0.3858267716535433
        },
        {
          "duration": 0.1875,
          "durationTicks": 45,
          "midi": 62,
          "name": "D4",
          "ticks": 2304,
          "time": 9.600000000000001,
          "velocity": 0.3858267716535433
        },
        {
          "duration": 0.1875,
          "durationTicks": 45,
          "midi": 79,
          "name": "G5",
          "ticks": 2352,
          "time": 9.8,
          "velocity": 0.3858267716535433
        },
        {
          "duration": 0.1875,
          "durationTicks": 45,
          "midi": 67,
          "name": "G4",
          "ticks": 2352,
          "time": 9.8,
          "velocity": 0.3858267716535433
        },
        {
          "duration": 0.1875,
          "durationTicks": 45,
          "midi": 86,
          "name": "D6",
          "ticks": 2400,
          "time": 10,
          "velocity": 0.3858267716535433
        },
        {
          "duration": 0.1875,
          "durationTicks": 45,
          "midi": 74,
          "name": "D5",
          "ticks": 2400,
          "time": 10,
          "velocity": 0.3858267716535433
        },
        {
          "duration": 0.1875,
          "durationTicks": 45,
          "midi": 79,
          "name": "G5",
          "ticks": 2448,
          "time": 10.200000000000001,
          "velocity": 0.3858267716535433
        },
        {
          "duration": 0.1875,
          "durationTicks": 45,
          "midi": 67,
          "name": "G4",
          "ticks": 2448,
          "time": 10.200000000000001,
          "velocity": 0.3858267716535433
        },
        {
          "duration": 0.1875,
          "durationTicks": 45,
          "midi": 74,
          "name": "D5",
          "ticks": 2496,
          "time": 10.4,
          "velocity": 0.3858267716535433
        },
        {
          "duration": 0.1875,
          "durationTicks": 45,
          "midi": 62,
          "name": "D4",
          "ticks": 2496,
          "time": 10.4,
          "velocity": 0.3858267716535433
        },
        {
          "duration": 0.1875,
          "durationTicks": 45,
          "midi": 79,
          "name": "G5",
          "ticks": 2544,
          "time": 10.600000000000001,
          "velocity": 0.3858267716535433
        },
        {
          "duration": 0.1875,
          "durationTicks": 45,
          "midi": 67,
          "name": "G4",
          "ticks": 2544,
          "time": 10.600000000000001,
          "velocity": 0.3858267716535433
        },
        {
          "duration": 0.1875,
          "durationTicks": 45,
          "midi": 86,
          "name": "D6",
          "ticks": 2592,
          "time": 10.8,
          "velocity": 0.3858267716535433
        },
        {
          "duration": 0.1875,
          "durationTicks": 45,
          "midi": 74,
          "name": "D5",
          "ticks": 2592,
          "time": 10.8,
          "velocity": 0.3858267716535433
        },
        {
          "duration": 0.1875,
          "durationTicks": 45,
          "midi": 79,
          "name": "G5",
          "ticks": 2640,
          "time": 11,
          "velocity": 0.3858267716535433
        },
        {
          "duration": 0.1875,
          "durationTicks": 45,
          "midi": 67,
          "name": "G4",
          "ticks": 2640,
          "time": 11,
          "velocity": 0.3858267716535433
        },
        {
          "duration": 0.09583333333333144,
          "durationTicks": 23,
          "midi": 71,
          "name": "B4",
          "ticks": 8784,
          "time": 36.6,
          "velocity": 0.7559055118110236
        },
        {
          "duration": 0.09583333333333144,
          "durationTicks": 23,
          "midi": 69,
          "name": "A4",
          "ticks": 8832,
          "time": 36.800000000000004,
          "velocity": 0.7559055118110236
        },
        {
          "duration": 0.09583333333333144,
          "durationTicks": 23,
          "midi": 71,
          "name": "B4",
          "ticks": 8880,
          "time": 37,
          "velocity": 0.7559055118110236
        },
        {
          "duration": 0.09583333333333144,
          "durationTicks": 23,
          "midi": 73,
          "name": "C#5",
          "ticks": 8928,
          "time": 37.2,
          "velocity": 0.7559055118110236
        },
        {
          "duration": 0.09583333333333144,
          "durationTicks": 23,
          "midi": 74,
          "name": "D5",
          "ticks": 8976,
          "time": 37.4,
          "velocity": 0.7559055118110236
        },
        {
          "duration": 0.09583333333333144,
          "durationTicks": 23,
          "midi": 76,
          "name": "E5",
          "ticks": 9024,
          "time": 37.6,
          "velocity": 0.7559055118110236
        },
        {
          "duration": 0.09583333333333144,
          "durationTicks": 23,
          "midi": 78,
          "name": "F#5",
          "ticks": 9072,
          "time": 37.800000000000004,
          "velocity": 0.7559055118110236
        },
        {
          "duration": 0.09583333333333144,
          "durationTicks": 23,
          "midi": 79,
          "name": "G5",
          "ticks": 9120,
          "time": 38,
          "velocity": 0.7559055118110236
        },
        {
          "duration": 0.09583333333333144,
          "durationTicks": 23,
          "midi": 81,
          "name": "A5",
          "ticks": 9168,
          "time": 38.2,
          "velocity": 0.7559055118110236
        },
        {
          "duration": 0.09583333333333144,
          "durationTicks": 23,
          "midi": 76,
          "name": "E5",
          "ticks": 9216,
          "time": 38.400000000000006,
          "velocity": 0.7559055118110236
        },
        {
          "duration": 0.09583333333333144,
          "durationTicks": 23,
          "midi": 78,
          "name": "F#5",
          "ticks": 9264,
          "time": 38.6,
          "velocity": 0.7559055118110236
        },
        {
          "duration": 0.09583333333333144,
          "durationTicks": 23,
          "midi": 79,
          "name": "G5",
          "ticks": 9312,
          "time": 38.800000000000004,
          "velocity": 0.7559055118110236
        },
        {
          "duration": 0.09583333333333144,
          "durationTicks": 23,
          "midi": 81,
          "name": "A5",
          "ticks": 9360,
          "time": 39,
          "velocity": 0.7559055118110236
        },
        {
          "duration": 0.09583333333333144,
          "durationTicks": 23,
          "midi": 83,
          "name": "B5",
          "ticks": 9408,
          "time": 39.2,
          "velocity": 0.7559055118110236
        },
        {
          "duration": 0.09583333333333144,
          "durationTicks": 23,
          "midi": 85,
          "name": "C#6",
          "ticks": 9456,
          "time": 39.400000000000006,
          "velocity": 0.7559055118110236
        },
        {
          "duration": 0.09583333333333144,
          "durationTicks": 23,
          "midi": 86,
          "name": "D6",
          "ticks": 9504,
          "time": 39.6,
          "velocity": 0.7559055118110236
        },
        {
          "duration": 0.09583333333333144,
          "durationTicks": 23,
          "midi": 88,
          "name": "E6",
          "ticks": 9552,
          "time": 39.800000000000004,
          "velocity": 0.7559055118110236
        },
        {
          "duration": 0.1875,
          "durationTicks": 45,
          "midi": 78,
          "name": "F#5",
          "ticks": 9600,
          "time": 40,
          "velocity": 0.8818897637795275
        },
        {
          "duration": 0.1875,
          "durationTicks": 45,
          "midi": 75,
          "name": "D#5",
          "ticks": 9600,
          "time": 40,
          "velocity": 0.8818897637795275
        },
        {
          "duration": 0.1875,
          "durationTicks": 45,
          "midi": 70,
          "name": "A#4",
          "ticks": 9600,
          "time": 40,
          "velocity": 0.8818897637795275
        },
        {
          "duration": 0.1875,
          "durationTicks": 45,
          "midi": 66,
          "name": "F#4",
          "ticks": 9600,
          "time": 40,
          "velocity": 0.8818897637795275
        },
        {
          "duration": 0.37916666666667,
          "durationTicks": 91,
          "midi": 78,
          "name": "F#5",
          "ticks": 9840,
          "time": 41,
          "velocity": 0.8740157480314961
        },
        {
          "duration": 0.3791666666666629,
          "durationTicks": 91,
          "midi": 78,
          "name": "F#5",
          "ticks": 9936,
          "time": 41.400000000000006,
          "velocity": 0.8740157480314961
        },
        {
          "duration": 0.1875,
          "durationTicks": 45,
          "midi": 76,
          "name": "E5",
          "ticks": 10032,
          "time": 41.800000000000004,
          "velocity": 0.8740157480314961
        },
        {
          "duration": 0.56666666666667,
          "durationTicks": 136,
          "midi": 75,
          "name": "D#5",
          "ticks": 10080,
          "time": 42,
          "velocity": 0.8740157480314961
        },
        {
          "duration": 0.37916666666667,
          "durationTicks": 91,
          "midi": 70,
          "name": "A#4",
          "ticks": 10224,
          "time": 42.6,
          "velocity": 0.8740157480314961
        },
        {
          "duration": 0.37916666666667,
          "durationTicks": 91,
          "midi": 68,
          "name": "G#4",
          "ticks": 10320,
          "time": 43,
          "velocity": 0.8740157480314961
        },
        {
          "duration": 0.1875,
          "durationTicks": 45,
          "midi": 68,
          "name": "G#4",
          "ticks": 10704,
          "time": 44.6,
          "velocity": 0.8740157480314961
        },
        {
          "duration": 0.1875,
          "durationTicks": 45,
          "midi": 66,
          "name": "F#4",
          "ticks": 10752,
          "time": 44.800000000000004,
          "velocity": 0.8740157480314961
        },
        {
          "duration": 0.1875,
          "durationTicks": 45,
          "midi": 68,
          "name": "G#4",
          "ticks": 10800,
          "time": 45,
          "velocity": 0.8740157480314961
        },
        {
          "duration": 0.1875,
          "durationTicks": 45,
          "midi": 70,
          "name": "A#4",
          "ticks": 10848,
          "time": 45.2,
          "velocity": 0.8740157480314961
        },
        {
          "duration": 0.1875,
          "durationTicks": 45,
          "midi": 71,
          "name": "B4",
          "ticks": 10896,
          "time": 45.400000000000006,
          "velocity": 0.8740157480314961
        },
        {
          "duration": 0.1875,
          "durationTicks": 45,
          "midi": 73,
          "name": "C#5",
          "ticks": 10944,
          "time": 45.6,
          "velocity": 0.8740157480314961
        },
        {
          "duration": 0.1875,
          "durationTicks": 45,
          "midi": 75,
          "name": "D#5",
          "ticks": 10992,
          "time": 45.800000000000004,
          "velocity": 0.8740157480314961
        },
        {
          "duration": 0.1875,
          "durationTicks": 45,
          "midi": 76,
          "name": "E5",
          "ticks": 11040,
          "time": 46,
          "velocity": 0.8740157480314961
        },
        {
          "duration": 0.37916666666667,
          "durationTicks": 91,
          "midi": 78,
          "name": "F#5",
          "ticks": 11088,
          "time": 46.2,
          "velocity": 0.8740157480314961
        },
        {
          "duration": 0.3791666666666629,
          "durationTicks": 91,
          "midi": 87,
          "name": "D#6",
          "ticks": 11376,
          "time": 47.400000000000006,
          "velocity": 0.8740157480314961
        },
        {
          "duration": 0.3791666666666629,
          "durationTicks": 91,
          "midi": 78,
          "name": "F#5",
          "ticks": 11376,
          "time": 47.400000000000006,
          "velocity": 0.8740157480314961
        },
        {
          "duration": 0.37916666666667,
          "durationTicks": 91,
          "midi": 85,
          "name": "C#6",
          "ticks": 11472,
          "time": 47.800000000000004,
          "velocity": 0.8740157480314961
        },
        {
          "duration": 0.37916666666667,
          "durationTicks": 91,
          "midi": 78,
          "name": "F#5",
          "ticks": 11472,
          "time": 47.800000000000004,
          "velocity": 0.8740157480314961
        },
        {
          "duration": 0.1875,
          "durationTicks": 45,
          "midi": 87,
          "name": "D#6",
          "ticks": 11568,
          "time": 48.2,
          "velocity": 0.8740157480314961
        },
        {
          "duration": 0.1875,
          "durationTicks": 45,
          "midi": 76,
          "name": "E5",
          "ticks": 11568,
          "time": 48.2,
          "velocity": 0.8740157480314961
        },
        {
          "duration": 0.3791666666666629,
          "durationTicks": 91,
          "midi": 83,
          "name": "B5",
          "ticks": 11616,
          "time": 48.400000000000006,
          "velocity": 0.8740157480314961
        },
        {
          "duration": 0.5666666666666629,
          "durationTicks": 136,
          "midi": 75,
          "name": "D#5",
          "ticks": 11616,
          "time": 48.400000000000006,
          "velocity": 0.8740157480314961
        },
        {
          "duration": 0.37916666666667,
          "durationTicks": 91,
          "midi": 70,
          "name": "A#4",
          "ticks": 11760,
          "time": 49,
          "velocity": 0.8740157480314961
        },
        {
          "duration": 0.1875,
          "durationTicks": 45,
          "midi": 68,
          "name": "G#4",
          "ticks": 11856,
          "time": 49.400000000000006,
          "velocity": 0.8740157480314961
        },
        {
          "duration": 0.1875,
          "durationTicks": 45,
          "midi": 75,
          "name": "D#5",
          "ticks": 13056,
          "time": 54.400000000000006,
          "velocity": 0.8740157480314961
        },
        {
          "duration": 0.1875,
          "durationTicks": 45,
          "midi": 71,
          "name": "B4",
          "ticks": 13056,
          "time": 54.400000000000006,
          "velocity": 0.8740157480314961
        },
        {
          "duration": 0.1875,
          "durationTicks": 45,
          "midi": 75,
          "name": "D#5",
          "ticks": 13104,
          "time": 54.6,
          "velocity": 0.8740157480314961
        },
        {
          "duration": 0.1875,
          "durationTicks": 45,
          "midi": 71,
          "name": "B4",
          "ticks": 13104,
          "time": 54.6,
          "velocity": 0.8740157480314961
        },
        {
          "duration": 0.1875,
          "durationTicks": 45,
          "midi": 75,
          "name": "D#5",
          "ticks": 13152,
          "time": 54.800000000000004,
          "velocity": 0.8740157480314961
        },
        {
          "duration": 0.1875,
          "durationTicks": 45,
          "midi": 71,
          "name": "B4",
          "ticks": 13152,
          "time": 54.800000000000004,
          "velocity": 0.8740157480314961
        },
        {
          "duration": 0.3791666666666629,
          "durationTicks": 91,
          "midi": 75,
          "name": "D#5",
          "ticks": 13200,
          "time": 55,
          "velocity": 0.8740157480314961
        },
        {
          "duration": 0.3791666666666629,
          "durationTicks": 91,
          "midi": 71,
          "name": "B4",
          "ticks": 13200,
          "time": 55,
          "velocity": 0.8740157480314961
        },
        {
          "duration": 0.3791666666666629,
          "durationTicks": 91,
          "midi": 73,
          "name": "C#5",
          "ticks": 13296,
          "time": 55.400000000000006,
          "velocity": 0.8740157480314961
        },
        {
          "duration": 0.3791666666666629,
          "durationTicks": 91,
          "midi": 70,
          "name": "A#4",
          "ticks": 13296,
          "time": 55.400000000000006,
          "velocity": 0.8740157480314961
        },
        {
          "duration": 0.3791666666666629,
          "durationTicks": 91,
          "midi": 75,
          "name": "D#5",
          "ticks": 13392,
          "time": 55.800000000000004,
          "velocity": 0.8740157480314961
        },
        {
          "duration": 0.3791666666666629,
          "durationTicks": 91,
          "midi": 71,
          "name": "B4",
          "ticks": 13392,
          "time": 55.800000000000004,
          "velocity": 0.8740157480314961
        },
        {
          "duration": 0.1875,
          "durationTicks": 45,
          "midi": 78,
          "name": "F#5",
          "ticks": 13488,
          "time": 56.2,
          "velocity": 0.8740157480314961
        },
        {
          "duration": 0.1875,
          "durationTicks": 45,
          "midi": 75,
          "name": "D#5",
          "ticks": 13488,
          "time": 56.2,
          "velocity": 0.8740157480314961
        },
        {
          "duration": 0.3791666666666629,
          "durationTicks": 91,
          "midi": 75,
          "name": "D#5",
          "ticks": 13536,
          "time": 56.400000000000006,
          "velocity": 0.8740157480314961
        },
        {
          "duration": 0.3791666666666629,
          "durationTicks": 91,
          "midi": 71,
          "name": "B4",
          "ticks": 13536,
          "time": 56.400000000000006,
          "velocity": 0.8740157480314961
        },
        {
          "duration": 0.7958333333333343,
          "durationTicks": 191,
          "midi": 83,
          "name": "B5",
          "ticks": 13632,
          "time": 56.800000000000004,
          "velocity": 0.8740157480314961
        },
        {
          "duration": 0.7333333333333343,
          "durationTicks": 176,
          "midi": 87,
          "name": "D#6",
          "ticks": 13647,
          "time": 56.862500000000004,
          "velocity": 0.8740157480314961
        },
        {
          "duration": 0.6666666666666714,
          "durationTicks": 160,
          "midi": 90,
          "name": "F#6",
          "ticks": 13663,
          "time": 56.92916666666667,
          "velocity": 0.8740157480314961
        },
        {
          "duration": 0.5958333333333385,
          "durationTicks": 143,
          "midi": 95,
          "name": "B6",
          "ticks": 13680,
          "time": 57,
          "velocity": 0.8740157480314961
        }
      ],
      "endOfTrackTicks": 13843
    },
    {
      "channel": 5,
      "controlChanges": {
        "6": [
          {
            "number": 6,
            "ticks": 0,
            "time": 0,
            "value": 0.09448818897637795
          },
          {
            "number": 6,
            "ticks": 0,
            "time": 0,
            "value": 0.09448818897637795
          },
          {
            "number": 6,
            "ticks": 0,
            "time": 0,
            "value": 0.09448818897637795
          },
          {
            "number": 6,
            "ticks": 13824,
            "time": 57.6,
            "value": 0.09448818897637795
          },
          {
            "number": 6,
            "ticks": 13825,
            "time": 57.60416666666667,
            "value": 0.09448818897637795
          }
        ],
        "7": [
          {
            "number": 7,
            "ticks": 0,
            "time": 0,
            "value": 0.7874015748031497
          },
          {
            "number": 7,
            "ticks": 0,
            "time": 0,
            "value": 0.7874015748031497
          },
          {
            "number": 7,
            "ticks": 0,
            "time": 0,
            "value": 0.7874015748031497
          },
          {
            "number": 7,
            "ticks": 0,
            "time": 0,
            "value": 0.7874015748031497
          },
          {
            "number": 7,
            "ticks": 13824,
            "time": 57.6,
            "value": 0.7874015748031497
          },
          {
            "number": 7,
            "ticks": 13825,
            "time": 57.60416666666667,
            "value": 0.7874015748031497
          }
        ],
        "10": [
          {
            "number": 10,
            "ticks": 0,
            "time": 0,
            "value": 0.5039370078740157
          },
          {
            "number": 10,
            "ticks": 0,
            "time": 0,
            "value": 0.5039370078740157
          },
          {
            "number": 10,
            "ticks": 0,
            "time": 0,
            "value": 0.5039370078740157
          },
          {
            "number": 10,
            "ticks": 0,
            "time": 0,
            "value": 0.5039370078740157
          },
          {
            "number": 10,
            "ticks": 13824,
            "time": 57.6,
            "value": 0.5039370078740157
          },
          {
            "number": 10,
            "ticks": 13825,
            "time": 57.60416666666667,
            "value": 0.5039370078740157
          }
        ],
        "100": [
          {
            "number": 100,
            "ticks": 0,
            "time": 0,
            "value": 0
          },
          {
            "number": 100,
            "ticks": 0,
            "time": 0,
            "value": 0
          },
          {
            "number": 100,
            "ticks": 0,
            "time": 0,
            "value": 0
          },
          {
            "number": 100,
            "ticks": 13824,
            "time": 57.6,
            "value": 0
          },
          {
            "number": 100,
            "ticks": 13825,
            "time": 57.60416666666667,
            "value": 0
          }
        ],
        "101": [
          {
            "number": 101,
            "ticks": 0,
            "time": 0,
            "value": 0
          },
          {
            "number": 101,
            "ticks": 0,
            "time": 0,
            "value": 0
          },
          {
            "number": 101,
            "ticks": 0,
            "time": 0,
            "value": 0
          },
          {
            "number": 101,
            "ticks": 13824,
            "time": 57.6,
            "value": 0
          },
          {
            "number": 101,
            "ticks": 13825,
            "time": 57.60416666666667,
            "value": 0
          }
        ]
      },
      "pitchBends": [
        {
          "ticks": 0,
          "time": 0,
          "value": 0
        },
        {
          "ticks": 0,
          "time": 0,
          "value": 0
        },
        {
          "ticks": 0,
          "time": 0,
          "value": 0
        },
        {
          "ticks": 0,
          "time": 0,
          "value": 0
        },
        {
          "ticks": 13824,
          "time": 57.6,
          "value": 0
        },
        {
          "ticks": 13825,
          "time": 57.60416666666667,
          "value": 0
        }
      ],
      "instrument": {
        "family": "piano",
        "number": 0,
        "name": "acoustic grand piano"
      },
      "name": "Acoustic Grand Piano 2",
      "notes": [
        {
          "duration": 0.1875,
          "durationTicks": 45,
          "midi": 54,
          "name": "F#3",
          "ticks": 1248,
          "time": 5.2,
          "velocity": 0.6299212598425197
        },
        {
          "duration": 0.1875,
          "durationTicks": 45,
          "midi": 54,
          "name": "F#3",
          "ticks": 1296,
          "time": 5.4,
          "velocity": 0.6299212598425197
        },
        {
          "duration": 0.1875,
          "durationTicks": 45,
          "midi": 57,
          "name": "A3",
          "ticks": 1344,
          "time": 5.6000000000000005,
          "velocity": 0.6299212598425197
        },
        {
          "duration": 0.37916666666666643,
          "durationTicks": 91,
          "midi": 61,
          "name": "C#4",
          "ticks": 1392,
          "time": 5.800000000000001,
          "velocity": 0.6299212598425197
        },
        {
          "duration": 0.3791666666666673,
          "durationTicks": 91,
          "midi": 61,
          "name": "C#4",
          "ticks": 1488,
          "time": 6.2,
          "velocity": 0.6299212598425197
        },
        {
          "duration": 0.1875,
          "durationTicks": 45,
          "midi": 62,
          "name": "D4",
          "ticks": 1584,
          "time": 6.6000000000000005,
          "velocity": 0.6299212598425197
        },
        {
          "duration": 0.37916666666666643,
          "durationTicks": 91,
          "midi": 62,
          "name": "D4",
          "ticks": 1632,
          "time": 6.800000000000001,
          "velocity": 0.6299212598425197
        },
        {
          "duration": 0.19583333333333286,
          "durationTicks": 47,
          "midi": 59,
          "name": "B3",
          "ticks": 8784,
          "time": 36.6,
          "velocity": 0.7559055118110236
        },
        {
          "duration": 0.19583333333332575,
          "durationTicks": 47,
          "midi": 57,
          "name": "A3",
          "ticks": 8832,
          "time": 36.800000000000004,
          "velocity": 0.7559055118110236
        },
        {
          "duration": 0.19583333333333286,
          "durationTicks": 47,
          "midi": 59,
          "name": "B3",
          "ticks": 8880,
          "time": 37,
          "velocity": 0.7559055118110236
        },
        {
          "duration": 0.19583333333333286,
          "durationTicks": 47,
          "midi": 61,
          "name": "C#4",
          "ticks": 8928,
          "time": 37.2,
          "velocity": 0.7559055118110236
        },
        {
          "duration": 0.19583333333333286,
          "durationTicks": 47,
          "midi": 62,
          "name": "D4",
          "ticks": 8976,
          "time": 37.4,
          "velocity": 0.7559055118110236
        },
        {
          "duration": 0.19583333333333286,
          "durationTicks": 47,
          "midi": 64,
          "name": "E4",
          "ticks": 9024,
          "time": 37.6,
          "velocity": 0.7559055118110236
        },
        {
          "duration": 0.19583333333332575,
          "durationTicks": 47,
          "midi": 66,
          "name": "F#4",
          "ticks": 9072,
          "time": 37.800000000000004,
          "velocity": 0.7559055118110236
        },
        {
          "duration": 0.19583333333333286,
          "durationTicks": 47,
          "midi": 67,
          "name": "G4",
          "ticks": 9120,
          "time": 38,
          "velocity": 0.7559055118110236
        },
        {
          "duration": 0.19583333333333286,
          "durationTicks": 47,
          "midi": 69,
          "name": "A4",
          "ticks": 9168,
          "time": 38.2,
          "velocity": 0.7559055118110236
        },
        {
          "duration": 0.19583333333332575,
          "durationTicks": 47,
          "midi": 64,
          "name": "E4",
          "ticks": 9216,
          "time": 38.400000000000006,
          "velocity": 0.7559055118110236
        },
        {
          "duration": 0.19583333333333286,
          "durationTicks": 47,
          "midi": 66,
          "name": "F#4",
          "ticks": 9264,
          "time": 38.6,
          "velocity": 0.7559055118110236
        },
        {
          "duration": 0.19583333333333286,
          "durationTicks": 47,
          "midi": 67,
          "name": "G4",
          "ticks": 9312,
          "time": 38.800000000000004,
          "velocity": 0.7559055118110236
        },
        {
          "duration": 0.19583333333333286,
          "durationTicks": 47,
          "midi": 69,
          "name": "A4",
          "ticks": 9360,
          "time": 39,
          "velocity": 0.7559055118110236
        },
        {
          "duration": 0.19583333333333286,
          "durationTicks": 47,
          "midi": 71,
          "name": "B4",
          "ticks": 9408,
          "time": 39.2,
          "velocity": 0.7559055118110236
        },
        {
          "duration": 0.19583333333332575,
          "durationTicks": 47,
          "midi": 73,
          "name": "C#5",
          "ticks": 9456,
          "time": 39.400000000000006,
          "velocity": 0.7559055118110236
        },
        {
          "duration": 0.19583333333333286,
          "durationTicks": 47,
          "midi": 74,
          "name": "D5",
          "ticks": 9504,
          "time": 39.6,
          "velocity": 0.7559055118110236
        },
        {
          "duration": 0.19583333333333286,
          "durationTicks": 47,
          "midi": 76,
          "name": "E5",
          "ticks": 9552,
          "time": 39.800000000000004,
          "velocity": 0.7559055118110236
        },
        {
          "duration": 0.1875,
          "durationTicks": 45,
          "midi": 56,
          "name": "G#3",
          "ticks": 10704,
          "time": 44.6,
          "velocity": 0.7559055118110236
        },
        {
          "duration": 0.1875,
          "durationTicks": 45,
          "midi": 54,
          "name": "F#3",
          "ticks": 10752,
          "time": 44.800000000000004,
          "velocity": 0.7559055118110236
        },
        {
          "duration": 0.1875,
          "durationTicks": 45,
          "midi": 56,
          "name": "G#3",
          "ticks": 10800,
          "time": 45,
          "velocity": 0.7559055118110236
        },
        {
          "duration": 0.1875,
          "durationTicks": 45,
          "midi": 58,
          "name": "A#3",
          "ticks": 10848,
          "time": 45.2,
          "velocity": 0.7559055118110236
        },
        {
          "duration": 0.1875,
          "durationTicks": 45,
          "midi": 59,
          "name": "B3",
          "ticks": 10896,
          "time": 45.400000000000006,
          "velocity": 0.7559055118110236
        },
        {
          "duration": 0.1875,
          "durationTicks": 45,
          "midi": 61,
          "name": "C#4",
          "ticks": 10944,
          "time": 45.6,
          "velocity": 0.7559055118110236
        },
        {
          "duration": 0.1875,
          "durationTicks": 45,
          "midi": 63,
          "name": "D#4",
          "ticks": 10992,
          "time": 45.800000000000004,
          "velocity": 0.7559055118110236
        },
        {
          "duration": 0.1875,
          "durationTicks": 45,
          "midi": 64,
          "name": "E4",
          "ticks": 11040,
          "time": 46,
          "velocity": 0.7559055118110236
        },
        {
          "duration": 0.37916666666667,
          "durationTicks": 91,
          "midi": 66,
          "name": "F#4",
          "ticks": 11088,
          "time": 46.2,
          "velocity": 0.7559055118110236
        }
      ],
      "endOfTrackTicks": 13843
    },
    {
      "channel": 0,
      "controlChanges": {
        "6": [
          {
            "number": 6,
            "ticks": 0,
            "time": 0,
            "value": 0.09448818897637795
          },
          {
            "number": 6,
            "ticks": 0,
            "time": 0,
            "value": 0.09448818897637795
          },
          {
            "number": 6,
            "ticks": 0,
            "time": 0,
            "value": 0.09448818897637795
          }
        ],
        "7": [
          {
            "number": 7,
            "ticks": 0,
            "time": 0,
            "value": 0.7874015748031497
          },
          {
            "number": 7,
            "ticks": 0,
            "time": 0,
            "value": 0.7874015748031497
          },
          {
            "number": 7,
            "ticks": 0,
            "time": 0,
            "value": 0.7874015748031497
          },
          {
            "number": 7,
            "ticks": 0,
            "time": 0,
            "value": 0.7874015748031497
          },
          {
            "number": 7,
            "ticks": 0,
            "time": 0,
            "value": 0.7874015748031497
          },
          {
            "number": 7,
            "ticks": 0,
            "time": 0,
            "value": 0.7874015748031497
          }
        ],
        "10": [
          {
            "number": 10,
            "ticks": 0,
            "time": 0,
            "value": 0.5039370078740157
          },
          {
            "number": 10,
            "ticks": 0,
            "time": 0,
            "value": 0.5039370078740157
          },
          {
            "number": 10,
            "ticks": 0,
            "time": 0,
            "value": 0.5039370078740157
          },
          {
            "number": 10,
            "ticks": 0,
            "time": 0,
            "value": 0.5039370078740157
          },
          {
            "number": 10,
            "ticks": 0,
            "time": 0,
            "value": 0.5039370078740157
          },
          {
            "number": 10,
            "ticks": 0,
            "time": 0,
            "value": 0.5039370078740157
          }
        ],
        "91": [
          {
            "number": 91,
            "ticks": 0,
            "time": 0,
            "value": 0
          },
          {
            "number": 91,
            "ticks": 0,
            "time": 0,
            "value": 0
          },
          {
            "number": 91,
            "ticks": 0,
            "time": 0,
            "value": 0
          },
          {
            "number": 91,
            "ticks": 0,
            "time": 0,
            "value": 0
          }
        ],
        "93": [
          {
            "number": 93,
            "ticks": 0,
            "time": 0,
            "value": 0
          },
          {
            "number": 93,
            "ticks": 0,
            "time": 0,
            "value": 0
          },
          {
            "number": 93,
            "ticks": 0,
            "time": 0,
            "value": 0
          },
          {
            "number": 93,
            "ticks": 0,
            "time": 0,
            "value": 0
          }
        ],
        "100": [
          {
            "number": 100,
            "ticks": 0,
            "time": 0,
            "value": 0
          },
          {
            "number": 100,
            "ticks": 0,
            "time": 0,
            "value": 0
          },
          {
            "number": 100,
            "ticks": 0,
            "time": 0,
            "value": 0
          }
        ],
        "101": [
          {
            "number": 101,
            "ticks": 0,
            "time": 0,
            "value": 0
          },
          {
            "number": 101,
            "ticks": 0,
            "time": 0,
            "value": 0
          },
          {
            "number": 101,
            "ticks": 0,
            "time": 0,
            "value": 0
          }
        ]
      },
      "pitchBends": [
        {
          "ticks": 0,
          "time": 0,
          "value": 0
        },
        {
          "ticks": 0,
          "time": 0,
          "value": 0
        },
        {
          "ticks": 0,
          "time": 0,
          "value": 0
        },
        {
          "ticks": 0,
          "time": 0,
          "value": 0
        }
      ],
      "instrument": {
        "family": "piano",
        "number": 0,
        "name": "acoustic grand piano"
      },
      "name": "Pizzicato Strings",
      "notes": [],
      "endOfTrackTicks": 13843
    },
    {
      "channel": 6,
      "controlChanges": {
        "6": [
          {
            "number": 6,
            "ticks": 13824,
            "time": 57.6,
            "value": 0.09448818897637795
          },
          {
            "number": 6,
            "ticks": 13825,
            "time": 57.60416666666667,
            "value": 0.09448818897637795
          }
        ],
        "7": [
          {
            "number": 7,
            "ticks": 13824,
            "time": 57.6,
            "value": 0.7874015748031497
          },
          {
            "number": 7,
            "ticks": 13824,
            "time": 57.6,
            "value": 0.7874015748031497
          },
          {
            "number": 7,
            "ticks": 13825,
            "time": 57.60416666666667,
            "value": 0.7874015748031497
          }
        ],
        "10": [
          {
            "number": 10,
            "ticks": 13824,
            "time": 57.6,
            "value": 0.5039370078740157
          },
          {
            "number": 10,
            "ticks": 13824,
            "time": 57.6,
            "value": 0.5039370078740157
          },
          {
            "number": 10,
            "ticks": 13825,
            "time": 57.60416666666667,
            "value": 0.5039370078740157
          }
        ],
        "91": [
          {
            "number": 91,
            "ticks": 0,
            "time": 0,
            "value": 0
          },
          {
            "number": 91,
            "ticks": 13824,
            "time": 57.6,
            "value": 0
          },
          {
            "number": 91,
            "ticks": 13824,
            "time": 57.6,
            "value": 0
          },
          {
            "number": 91,
            "ticks": 13825,
            "time": 57.60416666666667,
            "value": 0
          }
        ],
        "93": [
          {
            "number": 93,
            "ticks": 0,
            "time": 0,
            "value": 0
          },
          {
            "number": 93,
            "ticks": 13824,
            "time": 57.6,
            "value": 0
          },
          {
            "number": 93,
            "ticks": 13824,
            "time": 57.6,
            "value": 0
          },
          {
            "number": 93,
            "ticks": 13825,
            "time": 57.60416666666667,
            "value": 0
          }
        ],
        "100": [
          {
            "number": 100,
            "ticks": 13824,
            "time": 57.6,
            "value": 0
          },
          {
            "number": 100,
            "ticks": 13825,
            "time": 57.60416666666667,
            "value": 0
          }
        ],
        "101": [
          {
            "number": 101,
            "ticks": 13824,
            "time": 57.6,
            "value": 0
          },
          {
            "number": 101,
            "ticks": 13825,
            "time": 57.60416666666667,
            "value": 0
          }
        ]
      },
      "pitchBends": [
        {
          "ticks": 13824,
          "time": 57.6,
          "value": 0
        },
        {
          "ticks": 13825,
          "time": 57.60416666666667,
          "value": 0
        }
      ],
      "instrument": {
        "family": "strings",
        "number": 45,
        "name": "pizzicato strings"
      },
      "name": "",
      "notes": [
        {
          "duration": 0.1875,
          "durationTicks": 45,
          "midi": 62,
          "name": "D4",
          "ticks": 2,
          "time": 0.008333333333333333,
          "velocity": 0.4330708661417323
        },
        {
          "duration": 0.09583333333333333,
          "durationTicks": 23,
          "midi": 69,
          "name": "A4",
          "ticks": 48,
          "time": 0.2,
          "velocity": 0.5039370078740157
        },
        {
          "duration": 0.09583333333333333,
          "durationTicks": 23,
          "midi": 66,
          "name": "F#4",
          "ticks": 48,
          "time": 0.2,
          "velocity": 0.5039370078740157
        },
        {
          "duration": 0.1958333333333333,
          "durationTicks": 47,
          "midi": 62,
          "name": "D4",
          "ticks": 96,
          "time": 0.4,
          "velocity": 0.4330708661417323
        },
        {
          "duration": 0.09583333333333321,
          "durationTicks": 23,
          "midi": 69,
          "name": "A4",
          "ticks": 144,
          "time": 0.6000000000000001,
          "velocity": 0.5039370078740157
        },
        {
          "duration": 0.09583333333333321,
          "durationTicks": 23,
          "midi": 66,
          "name": "F#4",
          "ticks": 144,
          "time": 0.6000000000000001,
          "velocity": 0.5039370078740157
        },
        {
          "duration": 0.19583333333333341,
          "durationTicks": 47,
          "midi": 62,
          "name": "D4",
          "ticks": 192,
          "time": 0.8,
          "velocity": 0.4330708661417323
        },
        {
          "duration": 0.09583333333333344,
          "durationTicks": 23,
          "midi": 69,
          "name": "A4",
          "ticks": 240,
          "time": 1,
          "velocity": 0.5039370078740157
        },
        {
          "duration": 0.09583333333333344,
          "durationTicks": 23,
          "midi": 66,
          "name": "F#4",
          "ticks": 240,
          "time": 1,
          "velocity": 0.5039370078740157
        },
        {
          "duration": 0.1958333333333333,
          "durationTicks": 47,
          "midi": 62,
          "name": "D4",
          "ticks": 288,
          "time": 1.2000000000000002,
          "velocity": 0.4330708661417323
        },
        {
          "duration": 0.09583333333333344,
          "durationTicks": 23,
          "midi": 69,
          "name": "A4",
          "ticks": 336,
          "time": 1.4000000000000001,
          "velocity": 0.5039370078740157
        },
        {
          "duration": 0.09583333333333344,
          "durationTicks": 23,
          "midi": 66,
          "name": "F#4",
          "ticks": 336,
          "time": 1.4000000000000001,
          "velocity": 0.5039370078740157
        },
        {
          "duration": 0.1958333333333333,
          "durationTicks": 47,
          "midi": 61,
          "name": "C#4",
          "ticks": 384,
          "time": 1.6,
          "velocity": 0.4330708661417323
        },
        {
          "duration": 0.09583333333333321,
          "durationTicks": 23,
          "midi": 69,
          "name": "A4",
          "ticks": 432,
          "time": 1.8,
          "velocity": 0.5039370078740157
        },
        {
          "duration": 0.09583333333333321,
          "durationTicks": 23,
          "midi": 66,
          "name": "F#4",
          "ticks": 432,
          "time": 1.8,
          "velocity": 0.5039370078740157
        },
        {
          "duration": 0.1958333333333333,
          "durationTicks": 47,
          "midi": 61,
          "name": "C#4",
          "ticks": 480,
          "time": 2,
          "velocity": 0.4330708661417323
        },
        {
          "duration": 0.09583333333333321,
          "durationTicks": 23,
          "midi": 69,
          "name": "A4",
          "ticks": 528,
          "time": 2.2,
          "velocity": 0.5039370078740157
        },
        {
          "duration": 0.09583333333333321,
          "durationTicks": 23,
          "midi": 66,
          "name": "F#4",
          "ticks": 528,
          "time": 2.2,
          "velocity": 0.5039370078740157
        },
        {
          "duration": 0.19583333333333286,
          "durationTicks": 47,
          "midi": 61,
          "name": "C#4",
          "ticks": 576,
          "time": 2.4000000000000004,
          "velocity": 0.4330708661417323
        },
        {
          "duration": 0.09583333333333321,
          "durationTicks": 23,
          "midi": 69,
          "name": "A4",
          "ticks": 624,
          "time": 2.6,
          "velocity": 0.5039370078740157
        },
        {
          "duration": 0.09583333333333321,
          "durationTicks": 23,
          "midi": 66,
          "name": "F#4",
          "ticks": 624,
          "time": 2.6,
          "velocity": 0.5039370078740157
        },
        {
          "duration": 0.1958333333333333,
          "durationTicks": 47,
          "midi": 61,
          "name": "C#4",
          "ticks": 672,
          "time": 2.8000000000000003,
          "velocity": 0.4330708661417323
        },
        {
          "duration": 0.09583333333333321,
          "durationTicks": 23,
          "midi": 69,
          "name": "A4",
          "ticks": 720,
          "time": 3,
          "velocity": 0.5039370078740157
        },
        {
          "duration": 0.09583333333333321,
          "durationTicks": 23,
          "midi": 66,
          "name": "F#4",
          "ticks": 720,
          "time": 3,
          "velocity": 0.5039370078740157
        },
        {
          "duration": 0.19583333333333375,
          "durationTicks": 47,
          "midi": 62,
          "name": "D4",
          "ticks": 768,
          "time": 3.2,
          "velocity": 0.4330708661417323
        },
        {
          "duration": 0.09583333333333321,
          "durationTicks": 23,
          "midi": 71,
          "name": "B4",
          "ticks": 816,
          "time": 3.4000000000000004,
          "velocity": 0.5039370078740157
        },
        {
          "duration": 0.09583333333333321,
          "durationTicks": 23,
          "midi": 67,
          "name": "G4",
          "ticks": 816,
          "time": 3.4000000000000004,
          "velocity": 0.5039370078740157
        },
        {
          "duration": 0.19583333333333375,
          "durationTicks": 47,
          "midi": 62,
          "name": "D4",
          "ticks": 864,
          "time": 3.6,
          "velocity": 0.4330708661417323
        },
        {
          "duration": 0.09583333333333366,
          "durationTicks": 23,
          "midi": 71,
          "name": "B4",
          "ticks": 912,
          "time": 3.8000000000000003,
          "velocity": 0.5039370078740157
        },
        {
          "duration": 0.09583333333333366,
          "durationTicks": 23,
          "midi": 67,
          "name": "G4",
          "ticks": 912,
          "time": 3.8000000000000003,
          "velocity": 0.5039370078740157
        },
        {
          "duration": 0.19583333333333375,
          "durationTicks": 47,
          "midi": 62,
          "name": "D4",
          "ticks": 960,
          "time": 4,
          "velocity": 0.4330708661417323
        },
        {
          "duration": 0.09583333333333321,
          "durationTicks": 23,
          "midi": 71,
          "name": "B4",
          "ticks": 1008,
          "time": 4.2,
          "velocity": 0.5039370078740157
        },
        {
          "duration": 0.09583333333333321,
          "durationTicks": 23,
          "midi": 67,
          "name": "G4",
          "ticks": 1008,
          "time": 4.2,
          "velocity": 0.5039370078740157
        },
        {
          "duration": 0.19583333333333375,
          "durationTicks": 47,
          "midi": 62,
          "name": "D4",
          "ticks": 1056,
          "time": 4.4,
          "velocity": 0.4330708661417323
        },
        {
          "duration": 0.09583333333333321,
          "durationTicks": 23,
          "midi": 71,
          "name": "B4",
          "ticks": 1104,
          "time": 4.6000000000000005,
          "velocity": 0.5039370078740157
        },
        {
          "duration": 0.09583333333333321,
          "durationTicks": 23,
          "midi": 67,
          "name": "G4",
          "ticks": 1104,
          "time": 4.6000000000000005,
          "velocity": 0.5039370078740157
        },
        {
          "duration": 0.19583333333333286,
          "durationTicks": 47,
          "midi": 73,
          "name": "C#5",
          "ticks": 1152,
          "time": 4.800000000000001,
          "velocity": 0.5039370078740157
        },
        {
          "duration": 0.19583333333333286,
          "durationTicks": 47,
          "midi": 69,
          "name": "A4",
          "ticks": 1152,
          "time": 4.800000000000001,
          "velocity": 0.5039370078740157
        },
        {
          "duration": 0.19583333333333286,
          "durationTicks": 47,
          "midi": 64,
          "name": "E4",
          "ticks": 1152,
          "time": 4.800000000000001,
          "velocity": 0.5039370078740157
        },
        {
          "duration": 0.19583333333333375,
          "durationTicks": 47,
          "midi": 64,
          "name": "E4",
          "ticks": 1200,
          "time": 5,
          "velocity": 0.5039370078740157
        },
        {
          "duration": 0.19583333333333375,
          "durationTicks": 47,
          "midi": 57,
          "name": "A3",
          "ticks": 1344,
          "time": 5.6000000000000005,
          "velocity": 0.5039370078740157
        },
        {
          "duration": 0.19583333333333286,
          "durationTicks": 47,
          "midi": 64,
          "name": "E4",
          "ticks": 1392,
          "time": 5.800000000000001,
          "velocity": 0.5039370078740157
        },
        {
          "duration": 0.19583333333333286,
          "durationTicks": 47,
          "midi": 61,
          "name": "C#4",
          "ticks": 1392,
          "time": 5.800000000000001,
          "velocity": 0.5039370078740157
        },
        {
          "duration": 0.19583333333333375,
          "durationTicks": 47,
          "midi": 57,
          "name": "A3",
          "ticks": 1440,
          "time": 6,
          "velocity": 0.5039370078740157
        },
        {
          "duration": 0.19583333333333375,
          "durationTicks": 47,
          "midi": 64,
          "name": "E4",
          "ticks": 1488,
          "time": 6.2,
          "velocity": 0.5039370078740157
        },
        {
          "duration": 0.19583333333333375,
          "durationTicks": 47,
          "midi": 61,
          "name": "C#4",
          "ticks": 1488,
          "time": 6.2,
          "velocity": 0.5039370078740157
        },
        {
          "duration": 0.19583333333333286,
          "durationTicks": 47,
          "midi": 62,
          "name": "D4",
          "ticks": 1536,
          "time": 6.4,
          "velocity": 0.5039370078740157
        },
        {
          "duration": 0.19583333333333286,
          "durationTicks": 47,
          "midi": 69,
          "name": "A4",
          "ticks": 1584,
          "time": 6.6000000000000005,
          "velocity": 0.5039370078740157
        },
        {
          "duration": 0.19583333333333286,
          "durationTicks": 47,
          "midi": 66,
          "name": "F#4",
          "ticks": 1584,
          "time": 6.6000000000000005,
          "velocity": 0.5039370078740157
        },
        {
          "duration": 0.19583333333333286,
          "durationTicks": 47,
          "midi": 62,
          "name": "D4",
          "ticks": 1632,
          "time": 6.800000000000001,
          "velocity": 0.5039370078740157
        },
        {
          "duration": 0.19583333333333286,
          "durationTicks": 47,
          "midi": 69,
          "name": "A4",
          "ticks": 1680,
          "time": 7,
          "velocity": 0.5039370078740157
        },
        {
          "duration": 0.19583333333333286,
          "durationTicks": 47,
          "midi": 66,
          "name": "F#4",
          "ticks": 1680,
          "time": 7,
          "velocity": 0.5039370078740157
        },
        {
          "duration": 0.19583333333333286,
          "durationTicks": 47,
          "midi": 62,
          "name": "D4",
          "ticks": 1728,
          "time": 7.2,
          "velocity": 0.5039370078740157
        },
        {
          "duration": 0.19583333333333286,
          "durationTicks": 47,
          "midi": 69,
          "name": "A4",
          "ticks": 1776,
          "time": 7.4,
          "velocity": 0.5039370078740157
        },
        {
          "duration": 0.19583333333333286,
          "durationTicks": 47,
          "midi": 66,
          "name": "F#4",
          "ticks": 1776,
          "time": 7.4,
          "velocity": 0.5039370078740157
        },
        {
          "duration": 0.19583333333333286,
          "durationTicks": 47,
          "midi": 62,
          "name": "D4",
          "ticks": 1824,
          "time": 7.6000000000000005,
          "velocity": 0.5039370078740157
        },
        {
          "duration": 0.19583333333333286,
          "durationTicks": 47,
          "midi": 69,
          "name": "A4",
          "ticks": 1872,
          "time": 7.800000000000001,
          "velocity": 0.5039370078740157
        },
        {
          "duration": 0.19583333333333286,
          "durationTicks": 47,
          "midi": 66,
          "name": "F#4",
          "ticks": 1872,
          "time": 7.800000000000001,
          "velocity": 0.5039370078740157
        },
        {
          "duration": 0.19583333333333286,
          "durationTicks": 47,
          "midi": 61,
          "name": "C#4",
          "ticks": 1920,
          "time": 8,
          "velocity": 0.5039370078740157
        },
        {
          "duration": 0.19583333333333286,
          "durationTicks": 47,
          "midi": 69,
          "name": "A4",
          "ticks": 1968,
          "time": 8.200000000000001,
          "velocity": 0.5039370078740157
        },
        {
          "duration": 0.19583333333333286,
          "durationTicks": 47,
          "midi": 66,
          "name": "F#4",
          "ticks": 1968,
          "time": 8.200000000000001,
          "velocity": 0.5039370078740157
        },
        {
          "duration": 0.19583333333333286,
          "durationTicks": 47,
          "midi": 61,
          "name": "C#4",
          "ticks": 2016,
          "time": 8.4,
          "velocity": 0.5039370078740157
        },
        {
          "duration": 0.19583333333333286,
          "durationTicks": 47,
          "midi": 69,
          "name": "A4",
          "ticks": 2064,
          "time": 8.6,
          "velocity": 0.5039370078740157
        },
        {
          "duration": 0.19583333333333286,
          "durationTicks": 47,
          "midi": 66,
          "name": "F#4",
          "ticks": 2064,
          "time": 8.6,
          "velocity": 0.5039370078740157
        },
        {
          "duration": 0.19583333333333286,
          "durationTicks": 47,
          "midi": 61,
          "name": "C#4",
          "ticks": 2112,
          "time": 8.8,
          "velocity": 0.5039370078740157
        },
        {
          "duration": 0.19583333333333286,
          "durationTicks": 47,
          "midi": 69,
          "name": "A4",
          "ticks": 2160,
          "time": 9,
          "velocity": 0.5039370078740157
        },
        {
          "duration": 0.19583333333333286,
          "durationTicks": 47,
          "midi": 66,
          "name": "F#4",
          "ticks": 2160,
          "time": 9,
          "velocity": 0.5039370078740157
        },
        {
          "duration": 0.19583333333333286,
          "durationTicks": 47,
          "midi": 61,
          "name": "C#4",
          "ticks": 2208,
          "time": 9.200000000000001,
          "velocity": 0.5039370078740157
        },
        {
          "duration": 0.19583333333333286,
          "durationTicks": 47,
          "midi": 69,
          "name": "A4",
          "ticks": 2256,
          "time": 9.4,
          "velocity": 0.5039370078740157
        },
        {
          "duration": 0.19583333333333286,
          "durationTicks": 47,
          "midi": 66,
          "name": "F#4",
          "ticks": 2256,
          "time": 9.4,
          "velocity": 0.5039370078740157
        },
        {
          "duration": 0.19583333333333286,
          "durationTicks": 47,
          "midi": 62,
          "name": "D4",
          "ticks": 2304,
          "time": 9.600000000000001,
          "velocity": 0.5039370078740157
        },
        {
          "duration": 0.19583333333333286,
          "durationTicks": 47,
          "midi": 71,
          "name": "B4",
          "ticks": 2352,
          "time": 9.8,
          "velocity": 0.5039370078740157
        },
        {
          "duration": 0.19583333333333286,
          "durationTicks": 47,
          "midi": 67,
          "name": "G4",
          "ticks": 2352,
          "time": 9.8,
          "velocity": 0.5039370078740157
        },
        {
          "duration": 0.19583333333333286,
          "durationTicks": 47,
          "midi": 62,
          "name": "D4",
          "ticks": 2400,
          "time": 10,
          "velocity": 0.5039370078740157
        },
        {
          "duration": 0.19583333333333286,
          "durationTicks": 47,
          "midi": 71,
          "name": "B4",
          "ticks": 2448,
          "time": 10.200000000000001,
          "velocity": 0.5039370078740157
        },
        {
          "duration": 0.19583333333333286,
          "durationTicks": 47,
          "midi": 67,
          "name": "G4",
          "ticks": 2448,
          "time": 10.200000000000001,
          "velocity": 0.5039370078740157
        },
        {
          "duration": 0.19583333333333286,
          "durationTicks": 47,
          "midi": 62,
          "name": "D4",
          "ticks": 2496,
          "time": 10.4,
          "velocity": 0.5039370078740157
        },
        {
          "duration": 0.19583333333333286,
          "durationTicks": 47,
          "midi": 71,
          "name": "B4",
          "ticks": 2544,
          "time": 10.600000000000001,
          "velocity": 0.5039370078740157
        },
        {
          "duration": 0.19583333333333286,
          "durationTicks": 47,
          "midi": 67,
          "name": "G4",
          "ticks": 2544,
          "time": 10.600000000000001,
          "velocity": 0.5039370078740157
        },
        {
          "duration": 0.19583333333333286,
          "durationTicks": 47,
          "midi": 62,
          "name": "D4",
          "ticks": 2592,
          "time": 10.8,
          "velocity": 0.5039370078740157
        },
        {
          "duration": 0.19583333333333286,
          "durationTicks": 47,
          "midi": 71,
          "name": "B4",
          "ticks": 2640,
          "time": 11,
          "velocity": 0.5039370078740157
        },
        {
          "duration": 0.19583333333333286,
          "durationTicks": 47,
          "midi": 67,
          "name": "G4",
          "ticks": 2640,
          "time": 11,
          "velocity": 0.5039370078740157
        },
        {
          "duration": 0.39583333333333215,
          "durationTicks": 95,
          "midi": 73,
          "name": "C#5",
          "ticks": 2688,
          "time": 11.200000000000001,
          "velocity": 0.5039370078740157
        },
        {
          "duration": 0.39583333333333215,
          "durationTicks": 95,
          "midi": 69,
          "name": "A4",
          "ticks": 2688,
          "time": 11.200000000000001,
          "velocity": 0.5039370078740157
        },
        {
          "duration": 0.39583333333333215,
          "durationTicks": 95,
          "midi": 64,
          "name": "E4",
          "ticks": 2688,
          "time": 11.200000000000001,
          "velocity": 0.5039370078740157
        }
      ]
    },
    {
      "channel": 0,
      "controlChanges": {
        "6": [
          {
            "number": 6,
            "ticks": 0,
            "time": 0,
            "value": 0.09448818897637795
          },
          {
            "number": 6,
            "ticks": 0,
            "time": 0,
            "value": 0.09448818897637795
          },
          {
            "number": 6,
            "ticks": 0,
            "time": 0,
            "value": 0.09448818897637795
          }
        ],
        "7": [
          {
            "number": 7,
            "ticks": 0,
            "time": 0,
            "value": 0.7874015748031497
          },
          {
            "number": 7,
            "ticks": 0,
            "time": 0,
            "value": 0.7874015748031497
          },
          {
            "number": 7,
            "ticks": 0,
            "time": 0,
            "value": 0.7874015748031497
          },
          {
            "number": 7,
            "ticks": 0,
            "time": 0,
            "value": 0.7874015748031497
          },
          {
            "number": 7,
            "ticks": 0,
            "time": 0,
            "value": 0.7874015748031497
          },
          {
            "number": 7,
            "ticks": 0,
            "time": 0,
            "value": 0.7874015748031497
          }
        ],
        "10": [
          {
            "number": 10,
            "ticks": 0,
            "time": 0,
            "value": 0.5039370078740157
          },
          {
            "number": 10,
            "ticks": 0,
            "time": 0,
            "value": 0.5039370078740157
          },
          {
            "number": 10,
            "ticks": 0,
            "time": 0,
            "value": 0.5039370078740157
          },
          {
            "number": 10,
            "ticks": 0,
            "time": 0,
            "value": 0.5039370078740157
          },
          {
            "number": 10,
            "ticks": 0,
            "time": 0,
            "value": 0.5039370078740157
          },
          {
            "number": 10,
            "ticks": 0,
            "time": 0,
            "value": 0.5039370078740157
          }
        ],
        "91": [
          {
            "number": 91,
            "ticks": 0,
            "time": 0,
            "value": 0
          },
          {
            "number": 91,
            "ticks": 0,
            "time": 0,
            "value": 0
          },
          {
            "number": 91,
            "ticks": 0,
            "time": 0,
            "value": 0
          },
          {
            "number": 91,
            "ticks": 0,
            "time": 0,
            "value": 0
          }
        ],
        "93": [
          {
            "number": 93,
            "ticks": 0,
            "time": 0,
            "value": 0
          },
          {
            "number": 93,
            "ticks": 0,
            "time": 0,
            "value": 0
          },
          {
            "number": 93,
            "ticks": 0,
            "time": 0,
            "value": 0
          },
          {
            "number": 93,
            "ticks": 0,
            "time": 0,
            "value": 0
          }
        ],
        "100": [
          {
            "number": 100,
            "ticks": 0,
            "time": 0,
            "value": 0
          },
          {
            "number": 100,
            "ticks": 0,
            "time": 0,
            "value": 0
          },
          {
            "number": 100,
            "ticks": 0,
            "time": 0,
            "value": 0
          }
        ],
        "101": [
          {
            "number": 101,
            "ticks": 0,
            "time": 0,
            "value": 0
          },
          {
            "number": 101,
            "ticks": 0,
            "time": 0,
            "value": 0
          },
          {
            "number": 101,
            "ticks": 0,
            "time": 0,
            "value": 0
          }
        ]
      },
      "pitchBends": [
        {
          "ticks": 0,
          "time": 0,
          "value": 0
        },
        {
          "ticks": 0,
          "time": 0,
          "value": 0
        },
        {
          "ticks": 0,
          "time": 0,
          "value": 0
        },
        {
          "ticks": 0,
          "time": 0,
          "value": 0
        }
      ],
      "instrument": {
        "family": "piano",
        "number": 0,
        "name": "acoustic grand piano"
      },
      "name": "Cello",
      "notes": [],
      "endOfTrackTicks": 13843
    },
    {
      "channel": 7,
      "controlChanges": {
        "6": [
          {
            "number": 6,
            "ticks": 13824,
            "time": 57.6,
            "value": 0.09448818897637795
          },
          {
            "number": 6,
            "ticks": 13825,
            "time": 57.60416666666667,
            "value": 0.09448818897637795
          }
        ],
        "7": [
          {
            "number": 7,
            "ticks": 13824,
            "time": 57.6,
            "value": 0.7874015748031497
          },
          {
            "number": 7,
            "ticks": 13824,
            "time": 57.6,
            "value": 0.7874015748031497
          },
          {
            "number": 7,
            "ticks": 13825,
            "time": 57.60416666666667,
            "value": 0.7874015748031497
          }
        ],
        "10": [
          {
            "number": 10,
            "ticks": 13824,
            "time": 57.6,
            "value": 0.5039370078740157
          },
          {
            "number": 10,
            "ticks": 13824,
            "time": 57.6,
            "value": 0.5039370078740157
          },
          {
            "number": 10,
            "ticks": 13825,
            "time": 57.60416666666667,
            "value": 0.5039370078740157
          }
        ],
        "91": [
          {
            "number": 91,
            "ticks": 0,
            "time": 0,
            "value": 0
          },
          {
            "number": 91,
            "ticks": 13824,
            "time": 57.6,
            "value": 0
          },
          {
            "number": 91,
            "ticks": 13824,
            "time": 57.6,
            "value": 0
          },
          {
            "number": 91,
            "ticks": 13825,
            "time": 57.60416666666667,
            "value": 0
          }
        ],
        "93": [
          {
            "number": 93,
            "ticks": 0,
            "time": 0,
            "value": 0
          },
          {
            "number": 93,
            "ticks": 13824,
            "time": 57.6,
            "value": 0
          },
          {
            "number": 93,
            "ticks": 13824,
            "time": 57.6,
            "value": 0
          },
          {
            "number": 93,
            "ticks": 13825,
            "time": 57.60416666666667,
            "value": 0
          }
        ],
        "100": [
          {
            "number": 100,
            "ticks": 13824,
            "time": 57.6,
            "value": 0
          },
          {
            "number": 100,
            "ticks": 13825,
            "time": 57.60416666666667,
            "value": 0
          }
        ],
        "101": [
          {
            "number": 101,
            "ticks": 13824,
            "time": 57.6,
            "value": 0
          },
          {
            "number": 101,
            "ticks": 13825,
            "time": 57.60416666666667,
            "value": 0
          }
        ]
      },
      "pitchBends": [
        {
          "ticks": 13824,
          "time": 57.6,
          "value": 0
        },
        {
          "ticks": 13825,
          "time": 57.60416666666667,
          "value": 0
        }
      ],
      "instrument": {
        "family": "strings",
        "number": 42,
        "name": "cello"
      },
      "name": "",
      "notes": [
        {
          "duration": 1.5875000000000001,
          "durationTicks": 381,
          "midi": 38,
          "name": "D2",
          "ticks": 2,
          "time": 0.008333333333333333,
          "velocity": 0.47244094488188976
        },
        {
          "duration": 1.5958333333333332,
          "durationTicks": 383,
          "midi": 30,
          "name": "F#1",
          "ticks": 384,
          "time": 1.6,
          "velocity": 0.47244094488188976
        },
        {
          "duration": 1.5958333333333332,
          "durationTicks": 383,
          "midi": 31,
          "name": "G1",
          "ticks": 768,
          "time": 3.2,
          "velocity": 0.47244094488188976
        },
        {
          "duration": 1.5958333333333332,
          "durationTicks": 383,
          "midi": 33,
          "name": "A1",
          "ticks": 1152,
          "time": 4.800000000000001,
          "velocity": 0.47244094488188976
        },
        {
          "duration": 1.5958333333333332,
          "durationTicks": 383,
          "midi": 38,
          "name": "D2",
          "ticks": 1536,
          "time": 6.4,
          "velocity": 0.47244094488188976
        },
        {
          "duration": 1.5958333333333332,
          "durationTicks": 383,
          "midi": 30,
          "name": "F#1",
          "ticks": 1920,
          "time": 8,
          "velocity": 0.47244094488188976
        },
        {
          "duration": 1.5958333333333314,
          "durationTicks": 383,
          "midi": 31,
          "name": "G1",
          "ticks": 2304,
          "time": 9.600000000000001,
          "velocity": 0.47244094488188976
        },
        {
          "duration": 1.5958333333333332,
          "durationTicks": 383,
          "midi": 33,
          "name": "A1",
          "ticks": 2688,
          "time": 11.200000000000001,
          "velocity": 0.47244094488188976
        }
      ]
    },
    {
      "channel": 0,
      "controlChanges": {
        "6": [
          {
            "number": 6,
            "ticks": 0,
            "time": 0,
            "value": 0.09448818897637795
          },
          {
            "number": 6,
            "ticks": 0,
            "time": 0,
            "value": 0.09448818897637795
          },
          {
            "number": 6,
            "ticks": 0,
            "time": 0,
            "value": 0.09448818897637795
          }
        ],
        "7": [
          {
            "number": 7,
            "ticks": 0,
            "time": 0,
            "value": 0.7874015748031497
          },
          {
            "number": 7,
            "ticks": 0,
            "time": 0,
            "value": 0.7874015748031497
          },
          {
            "number": 7,
            "ticks": 0,
            "time": 0,
            "value": 0.7874015748031497
          },
          {
            "number": 7,
            "ticks": 0,
            "time": 0,
            "value": 0.7874015748031497
          },
          {
            "number": 7,
            "ticks": 0,
            "time": 0,
            "value": 0.7874015748031497
          },
          {
            "number": 7,
            "ticks": 0,
            "time": 0,
            "value": 0.7874015748031497
          }
        ],
        "10": [
          {
            "number": 10,
            "ticks": 0,
            "time": 0,
            "value": 0.5039370078740157
          },
          {
            "number": 10,
            "ticks": 0,
            "time": 0,
            "value": 0.5039370078740157
          },
          {
            "number": 10,
            "ticks": 0,
            "time": 0,
            "value": 0.5039370078740157
          },
          {
            "number": 10,
            "ticks": 0,
            "time": 0,
            "value": 0.5039370078740157
          },
          {
            "number": 10,
            "ticks": 0,
            "time": 0,
            "value": 0.5039370078740157
          },
          {
            "number": 10,
            "ticks": 0,
            "time": 0,
            "value": 0.5039370078740157
          }
        ],
        "91": [
          {
            "number": 91,
            "ticks": 0,
            "time": 0,
            "value": 0
          },
          {
            "number": 91,
            "ticks": 0,
            "time": 0,
            "value": 0
          },
          {
            "number": 91,
            "ticks": 0,
            "time": 0,
            "value": 0
          },
          {
            "number": 91,
            "ticks": 0,
            "time": 0,
            "value": 0
          }
        ],
        "93": [
          {
            "number": 93,
            "ticks": 0,
            "time": 0,
            "value": 0
          },
          {
            "number": 93,
            "ticks": 0,
            "time": 0,
            "value": 0
          },
          {
            "number": 93,
            "ticks": 0,
            "time": 0,
            "value": 0
          },
          {
            "number": 93,
            "ticks": 0,
            "time": 0,
            "value": 0
          }
        ],
        "100": [
          {
            "number": 100,
            "ticks": 0,
            "time": 0,
            "value": 0
          },
          {
            "number": 100,
            "ticks": 0,
            "time": 0,
            "value": 0
          },
          {
            "number": 100,
            "ticks": 0,
            "time": 0,
            "value": 0
          }
        ],
        "101": [
          {
            "number": 101,
            "ticks": 0,
            "time": 0,
            "value": 0
          },
          {
            "number": 101,
            "ticks": 0,
            "time": 0,
            "value": 0
          },
          {
            "number": 101,
            "ticks": 0,
            "time": 0,
            "value": 0
          }
        ]
      },
      "pitchBends": [
        {
          "ticks": 0,
          "time": 0,
          "value": 0
        },
        {
          "ticks": 0,
          "time": 0,
          "value": 0
        },
        {
          "ticks": 0,
          "time": 0,
          "value": 0
        },
        {
          "ticks": 0,
          "time": 0,
          "value": 0
        }
      ],
      "instrument": {
        "family": "piano",
        "number": 0,
        "name": "acoustic grand piano"
      },
      "name": "Slap Bass",
      "notes": [],
      "endOfTrackTicks": 13843
    },
    {
      "channel": 8,
      "controlChanges": {
        "6": [
          {
            "number": 6,
            "ticks": 13824,
            "time": 57.6,
            "value": 0.09448818897637795
          },
          {
            "number": 6,
            "ticks": 13825,
            "time": 57.60416666666667,
            "value": 0.09448818897637795
          }
        ],
        "7": [
          {
            "number": 7,
            "ticks": 13824,
            "time": 57.6,
            "value": 0.7874015748031497
          },
          {
            "number": 7,
            "ticks": 13824,
            "time": 57.6,
            "value": 0.7874015748031497
          },
          {
            "number": 7,
            "ticks": 13825,
            "time": 57.60416666666667,
            "value": 0.7874015748031497
          }
        ],
        "10": [
          {
            "number": 10,
            "ticks": 13824,
            "time": 57.6,
            "value": 0.5039370078740157
          },
          {
            "number": 10,
            "ticks": 13824,
            "time": 57.6,
            "value": 0.5039370078740157
          },
          {
            "number": 10,
            "ticks": 13825,
            "time": 57.60416666666667,
            "value": 0.5039370078740157
          }
        ],
        "91": [
          {
            "number": 91,
            "ticks": 0,
            "time": 0,
            "value": 0
          },
          {
            "number": 91,
            "ticks": 13824,
            "time": 57.6,
            "value": 0
          },
          {
            "number": 91,
            "ticks": 13824,
            "time": 57.6,
            "value": 0
          },
          {
            "number": 91,
            "ticks": 13825,
            "time": 57.60416666666667,
            "value": 0
          }
        ],
        "93": [
          {
            "number": 93,
            "ticks": 0,
            "time": 0,
            "value": 0
          },
          {
            "number": 93,
            "ticks": 13824,
            "time": 57.6,
            "value": 0
          },
          {
            "number": 93,
            "ticks": 13824,
            "time": 57.6,
            "value": 0
          },
          {
            "number": 93,
            "ticks": 13825,
            "time": 57.60416666666667,
            "value": 0
          }
        ],
        "100": [
          {
            "number": 100,
            "ticks": 13824,
            "time": 57.6,
            "value": 0
          },
          {
            "number": 100,
            "ticks": 13825,
            "time": 57.60416666666667,
            "value": 0
          }
        ],
        "101": [
          {
            "number": 101,
            "ticks": 13824,
            "time": 57.6,
            "value": 0
          },
          {
            "number": 101,
            "ticks": 13825,
            "time": 57.60416666666667,
            "value": 0
          }
        ]
      },
      "pitchBends": [
        {
          "ticks": 13824,
          "time": 57.6,
          "value": 0
        },
        {
          "ticks": 13825,
          "time": 57.60416666666667,
          "value": 0
        }
      ],
      "instrument": {
        "family": "bass",
        "number": 36,
        "name": "slap bass 1"
      },
      "name": "",
      "notes": [
        {
          "duration": 0.1958333333333364,
          "durationTicks": 47,
          "midi": 28,
          "name": "E1",
          "ticks": 6000,
          "time": 25,
          "velocity": 0.6299212598425197
        },
        {
          "duration": 0.19583333333333286,
          "durationTicks": 47,
          "midi": 29,
          "name": "F1",
          "ticks": 6048,
          "time": 25.200000000000003,
          "velocity": 0.6299212598425197
        },
        {
          "duration": 0.39583333333333215,
          "durationTicks": 95,
          "midi": 30,
          "name": "F#1",
          "ticks": 6096,
          "time": 25.400000000000002,
          "velocity": 0.6299212598425197
        },
        {
          "duration": 0.19583333333333286,
          "durationTicks": 47,
          "midi": 42,
          "name": "F#2",
          "ticks": 6192,
          "time": 25.8,
          "velocity": 0.6299212598425197
        },
        {
          "duration": 0.19583333333333286,
          "durationTicks": 47,
          "midi": 30,
          "name": "F#1",
          "ticks": 6240,
          "time": 26,
          "velocity": 0.6299212598425197
        },
        {
          "duration": 0.1958333333333293,
          "durationTicks": 47,
          "midi": 42,
          "name": "F#2",
          "ticks": 6288,
          "time": 26.200000000000003,
          "velocity": 0.6299212598425197
        },
        {
          "duration": 0.1958333333333293,
          "durationTicks": 47,
          "midi": 30,
          "name": "F#1",
          "ticks": 6336,
          "time": 26.400000000000002,
          "velocity": 0.6299212598425197
        },
        {
          "duration": 0.19583333333333286,
          "durationTicks": 47,
          "midi": 42,
          "name": "F#2",
          "ticks": 6384,
          "time": 26.6,
          "velocity": 0.6299212598425197
        },
        {
          "duration": 0.19583333333333286,
          "durationTicks": 47,
          "midi": 30,
          "name": "F#1",
          "ticks": 6432,
          "time": 26.8,
          "velocity": 0.6299212598425197
        },
        {
          "duration": 0.19583333333333286,
          "durationTicks": 47,
          "midi": 42,
          "name": "F#2",
          "ticks": 6480,
          "time": 27,
          "velocity": 0.6299212598425197
        },
        {
          "duration": 0.1958333333333293,
          "durationTicks": 47,
          "midi": 35,
          "name": "B1",
          "ticks": 6528,
          "time": 27.200000000000003,
          "velocity": 0.6299212598425197
        },
        {
          "duration": 0.1958333333333293,
          "durationTicks": 47,
          "midi": 47,
          "name": "B2",
          "ticks": 6576,
          "time": 27.400000000000002,
          "velocity": 0.6299212598425197
        },
        {
          "duration": 0.19583333333333286,
          "durationTicks": 47,
          "midi": 35,
          "name": "B1",
          "ticks": 6624,
          "time": 27.6,
          "velocity": 0.6299212598425197
        },
        {
          "duration": 0.19583333333333286,
          "durationTicks": 47,
          "midi": 47,
          "name": "B2",
          "ticks": 6672,
          "time": 27.8,
          "velocity": 0.6299212598425197
        },
        {
          "duration": 0.19583333333333286,
          "durationTicks": 47,
          "midi": 35,
          "name": "B1",
          "ticks": 6720,
          "time": 28,
          "velocity": 0.6299212598425197
        },
        {
          "duration": 0.1958333333333293,
          "durationTicks": 47,
          "midi": 47,
          "name": "B2",
          "ticks": 6768,
          "time": 28.200000000000003,
          "velocity": 0.6299212598425197
        },
        {
          "duration": 0.1958333333333293,
          "durationTicks": 47,
          "midi": 35,
          "name": "B1",
          "ticks": 6816,
          "time": 28.400000000000002,
          "velocity": 0.6299212598425197
        },
        {
          "duration": 0.19583333333333286,
          "durationTicks": 47,
          "midi": 47,
          "name": "B2",
          "ticks": 6864,
          "time": 28.6,
          "velocity": 0.6299212598425197
        },
        {
          "duration": 0.19583333333333286,
          "durationTicks": 47,
          "midi": 28,
          "name": "E1",
          "ticks": 6912,
          "time": 28.8,
          "velocity": 0.6299212598425197
        },
        {
          "duration": 0.19583333333333286,
          "durationTicks": 47,
          "midi": 40,
          "name": "E2",
          "ticks": 6960,
          "time": 29,
          "velocity": 0.6299212598425197
        },
        {
          "duration": 0.1958333333333293,
          "durationTicks": 47,
          "midi": 28,
          "name": "E1",
          "ticks": 7008,
          "time": 29.200000000000003,
          "velocity": 0.6299212598425197
        },
        {
          "duration": 0.1958333333333293,
          "durationTicks": 47,
          "midi": 40,
          "name": "E2",
          "ticks": 7056,
          "time": 29.400000000000002,
          "velocity": 0.6299212598425197
        },
        {
          "duration": 0.19583333333333286,
          "durationTicks": 47,
          "midi": 28,
          "name": "E1",
          "ticks": 7104,
          "time": 29.6,
          "velocity": 0.6299212598425197
        },
        {
          "duration": 0.19583333333333286,
          "durationTicks": 47,
          "midi": 40,
          "name": "E2",
          "ticks": 7152,
          "time": 29.8,
          "velocity": 0.6299212598425197
        },
        {
          "duration": 0.19583333333333286,
          "durationTicks": 47,
          "midi": 28,
          "name": "E1",
          "ticks": 7200,
          "time": 30,
          "velocity": 0.6299212598425197
        },
        {
          "duration": 0.1958333333333293,
          "durationTicks": 47,
          "midi": 40,
          "name": "E2",
          "ticks": 7248,
          "time": 30.200000000000003,
          "velocity": 0.6299212598425197
        },
        {
          "duration": 0.1958333333333293,
          "durationTicks": 47,
          "midi": 33,
          "name": "A1",
          "ticks": 7296,
          "time": 30.400000000000002,
          "velocity": 0.6299212598425197
        },
        {
          "duration": 0.19583333333333286,
          "durationTicks": 47,
          "midi": 45,
          "name": "A2",
          "ticks": 7344,
          "time": 30.6,
          "velocity": 0.6299212598425197
        },
        {
          "duration": 0.19583333333333286,
          "durationTicks": 47,
          "midi": 33,
          "name": "A1",
          "ticks": 7392,
          "time": 30.8,
          "velocity": 0.6299212598425197
        },
        {
          "duration": 0.19583333333333286,
          "durationTicks": 47,
          "midi": 45,
          "name": "A2",
          "ticks": 7440,
          "time": 31,
          "velocity": 0.6299212598425197
        },
        {
          "duration": 0.1958333333333293,
          "durationTicks": 47,
          "midi": 33,
          "name": "A1",
          "ticks": 7488,
          "time": 31.200000000000003,
          "velocity": 0.6299212598425197
        },
        {
          "duration": 0.1958333333333293,
          "durationTicks": 47,
          "midi": 45,
          "name": "A2",
          "ticks": 7536,
          "time": 31.400000000000002,
          "velocity": 0.6299212598425197
        },
        {
          "duration": 0.19583333333333286,
          "durationTicks": 47,
          "midi": 33,
          "name": "A1",
          "ticks": 7584,
          "time": 31.6,
          "velocity": 0.6299212598425197
        },
        {
          "duration": 0.19583333333333286,
          "durationTicks": 47,
          "midi": 45,
          "name": "A2",
          "ticks": 7632,
          "time": 31.8,
          "velocity": 0.6299212598425197
        }
      ]
    },
    {
      "channel": 9,
      "controlChanges": {
        "6": [
          {
            "number": 6,
            "ticks": 0,
            "time": 0,
            "value": 0.09448818897637795
          },
          {
            "number": 6,
            "ticks": 0,
            "time": 0,
            "value": 0.09448818897637795
          },
          {
            "number": 6,
            "ticks": 0,
            "time": 0,
            "value": 0.09448818897637795
          },
          {
            "number": 6,
            "ticks": 13824,
            "time": 57.6,
            "value": 0.09448818897637795
          },
          {
            "number": 6,
            "ticks": 13825,
            "time": 57.60416666666667,
            "value": 0.09448818897637795
          }
        ],
        "7": [
          {
            "number": 7,
            "ticks": 0,
            "time": 0,
            "value": 0.7874015748031497
          },
          {
            "number": 7,
            "ticks": 0,
            "time": 0,
            "value": 0.7874015748031497
          },
          {
            "number": 7,
            "ticks": 0,
            "time": 0,
            "value": 0.7874015748031497
          },
          {
            "number": 7,
            "ticks": 0,
            "time": 0,
            "value": 0.7874015748031497
          },
          {
            "number": 7,
            "ticks": 0,
            "time": 0,
            "value": 0.7874015748031497
          },
          {
            "number": 7,
            "ticks": 0,
            "time": 0,
            "value": 0.7874015748031497
          },
          {
            "number": 7,
            "ticks": 13824,
            "time": 57.6,
            "value": 0.7874015748031497
          },
          {
            "number": 7,
            "ticks": 13824,
            "time": 57.6,
            "value": 0.7874015748031497
          },
          {
            "number": 7,
            "ticks": 13825,
            "time": 57.60416666666667,
            "value": 0.7874015748031497
          }
        ],
        "10": [
          {
            "number": 10,
            "ticks": 0,
            "time": 0,
            "value": 0.5039370078740157
          },
          {
            "number": 10,
            "ticks": 0,
            "time": 0,
            "value": 0.5039370078740157
          },
          {
            "number": 10,
            "ticks": 0,
            "time": 0,
            "value": 0.5039370078740157
          },
          {
            "number": 10,
            "ticks": 0,
            "time": 0,
            "value": 0.5039370078740157
          },
          {
            "number": 10,
            "ticks": 0,
            "time": 0,
            "value": 0.5039370078740157
          },
          {
            "number": 10,
            "ticks": 0,
            "time": 0,
            "value": 0.5039370078740157
          },
          {
            "number": 10,
            "ticks": 13824,
            "time": 57.6,
            "value": 0.5039370078740157
          },
          {
            "number": 10,
            "ticks": 13824,
            "time": 57.6,
            "value": 0.5039370078740157
          },
          {
            "number": 10,
            "ticks": 13825,
            "time": 57.60416666666667,
            "value": 0.5039370078740157
          }
        ],
        "91": [
          {
            "number": 91,
            "ticks": 0,
            "time": 0,
            "value": 0
          },
          {
            "number": 91,
            "ticks": 0,
            "time": 0,
            "value": 0
          },
          {
            "number": 91,
            "ticks": 0,
            "time": 0,
            "value": 0
          },
          {
            "number": 91,
            "ticks": 0,
            "time": 0,
            "value": 0
          },
          {
            "number": 91,
            "ticks": 0,
            "time": 0,
            "value": 0
          },
          {
            "number": 91,
            "ticks": 13824,
            "time": 57.6,
            "value": 0
          },
          {
            "number": 91,
            "ticks": 13824,
            "time": 57.6,
            "value": 0
          },
          {
            "number": 91,
            "ticks": 13825,
            "time": 57.60416666666667,
            "value": 0
          }
        ],
        "93": [
          {
            "number": 93,
            "ticks": 0,
            "time": 0,
            "value": 0
          },
          {
            "number": 93,
            "ticks": 0,
            "time": 0,
            "value": 0
          },
          {
            "number": 93,
            "ticks": 0,
            "time": 0,
            "value": 0
          },
          {
            "number": 93,
            "ticks": 0,
            "time": 0,
            "value": 0
          },
          {
            "number": 93,
            "ticks": 0,
            "time": 0,
            "value": 0
          },
          {
            "number": 93,
            "ticks": 13824,
            "time": 57.6,
            "value": 0
          },
          {
            "number": 93,
            "ticks": 13824,
            "time": 57.6,
            "value": 0
          },
          {
            "number": 93,
            "ticks": 13825,
            "time": 57.60416666666667,
            "value": 0
          }
        ],
        "100": [
          {
            "number": 100,
            "ticks": 0,
            "time": 0,
            "value": 0
          },
          {
            "number": 100,
            "ticks": 0,
            "time": 0,
            "value": 0
          },
          {
            "number": 100,
            "ticks": 0,
            "time": 0,
            "value": 0
          },
          {
            "number": 100,
            "ticks": 13824,
            "time": 57.6,
            "value": 0
          },
          {
            "number": 100,
            "ticks": 13825,
            "time": 57.60416666666667,
            "value": 0
          }
        ],
        "101": [
          {
            "number": 101,
            "ticks": 0,
            "time": 0,
            "value": 0
          },
          {
            "number": 101,
            "ticks": 0,
            "time": 0,
            "value": 0
          },
          {
            "number": 101,
            "ticks": 0,
            "time": 0,
            "value": 0
          },
          {
            "number": 101,
            "ticks": 13824,
            "time": 57.6,
            "value": 0
          },
          {
            "number": 101,
            "ticks": 13825,
            "time": 57.60416666666667,
            "value": 0
          }
        ]
      },
      "pitchBends": [
        {
          "ticks": 0,
          "time": 0,
          "value": 0
        },
        {
          "ticks": 0,
          "time": 0,
          "value": 0
        },
        {
          "ticks": 0,
          "time": 0,
          "value": 0
        },
        {
          "ticks": 0,
          "time": 0,
          "value": 0
        },
        {
          "ticks": 13824,
          "time": 57.6,
          "value": 0
        },
        {
          "ticks": 13825,
          "time": 57.60416666666667,
          "value": 0
        }
      ],
      "instrument": {
        "family": "drums",
        "number": 0,
        "name": "standard kit"
      },
      "name": "Drum Kit",
      "notes": [
        {
          "duration": 0.3875,
          "durationTicks": 93,
          "midi": 35,
          "name": "B1",
          "ticks": 2,
          "time": 0.008333333333333333,
          "velocity": 0.25984251968503935
        },
        {
          "duration": 0.3875,
          "durationTicks": 93,
          "midi": 49,
          "name": "C#3",
          "ticks": 2,
          "time": 0.008333333333333333,
          "velocity": 0.25984251968503935
        },
        {
          "duration": 0.39583333333333337,
          "durationTicks": 95,
          "midi": 35,
          "name": "B1",
          "ticks": 96,
          "time": 0.4,
          "velocity": 0.25984251968503935
        },
        {
          "duration": 0.3958333333333335,
          "durationTicks": 95,
          "midi": 35,
          "name": "B1",
          "ticks": 192,
          "time": 0.8,
          "velocity": 0.25984251968503935
        },
        {
          "duration": 0.39583333333333326,
          "durationTicks": 95,
          "midi": 35,
          "name": "B1",
          "ticks": 384,
          "time": 1.6,
          "velocity": 0.25984251968503935
        },
        {
          "duration": 0.3958333333333335,
          "durationTicks": 95,
          "midi": 35,
          "name": "B1",
          "ticks": 480,
          "time": 2,
          "velocity": 0.25984251968503935
        },
        {
          "duration": 0.39583333333333304,
          "durationTicks": 95,
          "midi": 35,
          "name": "B1",
          "ticks": 576,
          "time": 2.4000000000000004,
          "velocity": 0.25984251968503935
        },
        {
          "duration": 0.3958333333333335,
          "durationTicks": 95,
          "midi": 35,
          "name": "B1",
          "ticks": 768,
          "time": 3.2,
          "velocity": 0.25984251968503935
        },
        {
          "duration": 0.3958333333333335,
          "durationTicks": 95,
          "midi": 35,
          "name": "B1",
          "ticks": 864,
          "time": 3.6,
          "velocity": 0.25984251968503935
        },
        {
          "duration": 0.3958333333333339,
          "durationTicks": 95,
          "midi": 35,
          "name": "B1",
          "ticks": 960,
          "time": 4,
          "velocity": 0.25984251968503935
        },
        {
          "duration": 0.19583333333333375,
          "durationTicks": 47,
          "midi": 44,
          "name": "G#2",
          "ticks": 1488,
          "time": 6.2,
          "velocity": 0.25984251968503935
        },
        {
          "duration": 0.39583333333333304,
          "durationTicks": 95,
          "midi": 35,
          "name": "B1",
          "ticks": 1536,
          "time": 6.4,
          "velocity": 0.25984251968503935
        },
        {
          "duration": 0.19583333333333286,
          "durationTicks": 47,
          "midi": 44,
          "name": "G#2",
          "ticks": 1536,
          "time": 6.4,
          "velocity": 0.25984251968503935
        },
        {
          "duration": 0.19583333333333286,
          "durationTicks": 47,
          "midi": 44,
          "name": "G#2",
          "ticks": 1584,
          "time": 6.6000000000000005,
          "velocity": 0.25984251968503935
        },
        {
          "duration": 0.39583333333333215,
          "durationTicks": 95,
          "midi": 35,
          "name": "B1",
          "ticks": 1632,
          "time": 6.800000000000001,
          "velocity": 0.25984251968503935
        },
        {
          "duration": 0.09583333333333233,
          "durationTicks": 23,
          "midi": 44,
          "name": "G#2",
          "ticks": 1632,
          "time": 6.800000000000001,
          "velocity": 0.25984251968503935
        },
        {
          "duration": 0.09583333333333321,
          "durationTicks": 23,
          "midi": 44,
          "name": "G#2",
          "ticks": 1656,
          "time": 6.9,
          "velocity": 0.25984251968503935
        },
        {
          "duration": 0.09583333333333321,
          "durationTicks": 23,
          "midi": 44,
          "name": "G#2",
          "ticks": 1680,
          "time": 7,
          "velocity": 0.25984251968503935
        },
        {
          "duration": 0.09583333333333233,
          "durationTicks": 23,
          "midi": 44,
          "name": "G#2",
          "ticks": 1704,
          "time": 7.1000000000000005,
          "velocity": 0.25984251968503935
        },
        {
          "duration": 0.39583333333333304,
          "durationTicks": 95,
          "midi": 35,
          "name": "B1",
          "ticks": 1728,
          "time": 7.2,
          "velocity": 0.25984251968503935
        },
        {
          "duration": 0.09583333333333321,
          "durationTicks": 23,
          "midi": 44,
          "name": "G#2",
          "ticks": 1728,
          "time": 7.2,
          "velocity": 0.25984251968503935
        },
        {
          "duration": 0.09583333333333233,
          "durationTicks": 23,
          "midi": 44,
          "name": "G#2",
          "ticks": 1752,
          "time": 7.300000000000001,
          "velocity": 0.25984251968503935
        },
        {
          "duration": 0.09583333333333321,
          "durationTicks": 23,
          "midi": 44,
          "name": "G#2",
          "ticks": 1776,
          "time": 7.4,
          "velocity": 0.25984251968503935
        },
        {
          "duration": 0.09583333333333321,
          "durationTicks": 23,
          "midi": 44,
          "name": "G#2",
          "ticks": 1800,
          "time": 7.5,
          "velocity": 0.25984251968503935
        },
        {
          "duration": 0.19583333333333286,
          "durationTicks": 47,
          "midi": 44,
          "name": "G#2",
          "ticks": 1824,
          "time": 7.6000000000000005,
          "velocity": 0.25984251968503935
        },
        {
          "duration": 0.19583333333333286,
          "durationTicks": 47,
          "midi": 44,
          "name": "G#2",
          "ticks": 1872,
          "time": 7.800000000000001,
          "velocity": 0.25984251968503935
        },
        {
          "duration": 0.3958333333333339,
          "durationTicks": 95,
          "midi": 35,
          "name": "B1",
          "ticks": 1920,
          "time": 8,
          "velocity": 0.25984251968503935
        },
        {
          "duration": 0.19583333333333286,
          "durationTicks": 47,
          "midi": 44,
          "name": "G#2",
          "ticks": 1920,
          "time": 8,
          "velocity": 0.25984251968503935
        },
        {
          "duration": 0.19583333333333286,
          "durationTicks": 47,
          "midi": 44,
          "name": "G#2",
          "ticks": 1968,
          "time": 8.200000000000001,
          "velocity": 0.25984251968503935
        },
        {
          "duration": 0.39583333333333215,
          "durationTicks": 95,
          "midi": 35,
          "name": "B1",
          "ticks": 2016,
          "time": 8.4,
          "velocity": 0.25984251968503935
        },
        {
          "duration": 0.09583333333333321,
          "durationTicks": 23,
          "midi": 44,
          "name": "G#2",
          "ticks": 2016,
          "time": 8.4,
          "velocity": 0.25984251968503935
        },
        {
          "duration": 0.09583333333333321,
          "durationTicks": 23,
          "midi": 44,
          "name": "G#2",
          "ticks": 2040,
          "time": 8.5,
          "velocity": 0.25984251968503935
        },
        {
          "duration": 0.09583333333333321,
          "durationTicks": 23,
          "midi": 44,
          "name": "G#2",
          "ticks": 2064,
          "time": 8.6,
          "velocity": 0.25984251968503935
        },
        {
          "duration": 0.09583333333333144,
          "durationTicks": 23,
          "midi": 44,
          "name": "G#2",
          "ticks": 2088,
          "time": 8.700000000000001,
          "velocity": 0.25984251968503935
        },
        {
          "duration": 0.39583333333333215,
          "durationTicks": 95,
          "midi": 35,
          "name": "B1",
          "ticks": 2112,
          "time": 8.8,
          "velocity": 0.25984251968503935
        },
        {
          "duration": 0.19583333333333286,
          "durationTicks": 47,
          "midi": 44,
          "name": "G#2",
          "ticks": 2112,
          "time": 8.8,
          "velocity": 0.25984251968503935
        },
        {
          "duration": 0.19583333333333286,
          "durationTicks": 47,
          "midi": 44,
          "name": "G#2",
          "ticks": 2160,
          "time": 9,
          "velocity": 0.25984251968503935
        },
        {
          "duration": 0.09583333333333144,
          "durationTicks": 23,
          "midi": 44,
          "name": "G#2",
          "ticks": 2208,
          "time": 9.200000000000001,
          "velocity": 0.25984251968503935
        },
        {
          "duration": 0.19583333333333286,
          "durationTicks": 47,
          "midi": 44,
          "name": "G#2",
          "ticks": 2232,
          "time": 9.3,
          "velocity": 0.25984251968503935
        },
        {
          "duration": 0.09583333333333321,
          "durationTicks": 23,
          "midi": 44,
          "name": "G#2",
          "ticks": 2280,
          "time": 9.5,
          "velocity": 0.25984251968503935
        },
        {
          "duration": 0.39583333333333215,
          "durationTicks": 95,
          "midi": 35,
          "name": "B1",
          "ticks": 2304,
          "time": 9.600000000000001,
          "velocity": 0.25984251968503935
        },
        {
          "duration": 0.19583333333333286,
          "durationTicks": 47,
          "midi": 44,
          "name": "G#2",
          "ticks": 2304,
          "time": 9.600000000000001,
          "velocity": 0.25984251968503935
        },
        {
          "duration": 0.19583333333333286,
          "durationTicks": 47,
          "midi": 44,
          "name": "G#2",
          "ticks": 2352,
          "time": 9.8,
          "velocity": 0.25984251968503935
        },
        {
          "duration": 0.3958333333333339,
          "durationTicks": 95,
          "midi": 35,
          "name": "B1",
          "ticks": 2400,
          "time": 10,
          "velocity": 0.25984251968503935
        },
        {
          "duration": 0.09583333333333321,
          "durationTicks": 23,
          "midi": 44,
          "name": "G#2",
          "ticks": 2400,
          "time": 10,
          "velocity": 0.25984251968503935
        },
        {
          "duration": 0.09583333333333144,
          "durationTicks": 23,
          "midi": 44,
          "name": "G#2",
          "ticks": 2424,
          "time": 10.100000000000001,
          "velocity": 0.25984251968503935
        },
        {
          "duration": 0.09583333333333321,
          "durationTicks": 23,
          "midi": 44,
          "name": "G#2",
          "ticks": 2448,
          "time": 10.200000000000001,
          "velocity": 0.25984251968503935
        },
        {
          "duration": 0.09583333333333321,
          "durationTicks": 23,
          "midi": 44,
          "name": "G#2",
          "ticks": 2472,
          "time": 10.3,
          "velocity": 0.25984251968503935
        },
        {
          "duration": 0.3958333333333339,
          "durationTicks": 95,
          "midi": 35,
          "name": "B1",
          "ticks": 2496,
          "time": 10.4,
          "velocity": 0.25984251968503935
        },
        {
          "duration": 0.09583333333333321,
          "durationTicks": 23,
          "midi": 44,
          "name": "G#2",
          "ticks": 2496,
          "time": 10.4,
          "velocity": 0.25984251968503935
        },
        {
          "duration": 0.09583333333333321,
          "durationTicks": 23,
          "midi": 44,
          "name": "G#2",
          "ticks": 2520,
          "time": 10.5,
          "velocity": 0.25984251968503935
        },
        {
          "duration": 0.09583333333333144,
          "durationTicks": 23,
          "midi": 44,
          "name": "G#2",
          "ticks": 2544,
          "time": 10.600000000000001,
          "velocity": 0.25984251968503935
        },
        {
          "duration": 0.09583333333333321,
          "durationTicks": 23,
          "midi": 44,
          "name": "G#2",
          "ticks": 2568,
          "time": 10.700000000000001,
          "velocity": 0.25984251968503935
        },
        {
          "duration": 0.19583333333333286,
          "durationTicks": 47,
          "midi": 44,
          "name": "G#2",
          "ticks": 2592,
          "time": 10.8,
          "velocity": 0.25984251968503935
        },
        {
          "duration": 0.19583333333333286,
          "durationTicks": 47,
          "midi": 44,
          "name": "G#2",
          "ticks": 2640,
          "time": 11,
          "velocity": 0.25984251968503935
        },
        {
          "duration": 0.7958333333333343,
          "durationTicks": 191,
          "midi": 49,
          "name": "C#3",
          "ticks": 3072,
          "time": 12.8,
          "velocity": 0.8818897637795275
        },
        {
          "duration": 0.39583333333333215,
          "durationTicks": 95,
          "midi": 53,
          "name": "F3",
          "ticks": 4608,
          "time": 19.200000000000003,
          "velocity": 0.9921259842519685
        },
        {
          "duration": 0.3958333333333357,
          "durationTicks": 95,
          "midi": 53,
          "name": "F3",
          "ticks": 4800,
          "time": 20,
          "velocity": 0.9921259842519685
        },
        {
          "duration": 0.3958333333333357,
          "durationTicks": 95,
          "midi": 53,
          "name": "F3",
          "ticks": 4992,
          "time": 20.8,
          "velocity": 0.9921259842519685
        },
        {
          "duration": 0.3958333333333357,
          "durationTicks": 95,
          "midi": 53,
          "name": "F3",
          "ticks": 5184,
          "time": 21.6,
          "velocity": 0.9921259842519685
        },
        {
          "duration": 0.39583333333333215,
          "durationTicks": 95,
          "midi": 53,
          "name": "F3",
          "ticks": 5376,
          "time": 22.400000000000002,
          "velocity": 0.9921259842519685
        },
        {
          "duration": 0.39583333333333215,
          "durationTicks": 95,
          "midi": 53,
          "name": "F3",
          "ticks": 5568,
          "time": 23.200000000000003,
          "velocity": 0.9921259842519685
        },
        {
          "duration": 0.3958333333333357,
          "durationTicks": 95,
          "midi": 53,
          "name": "F3",
          "ticks": 5760,
          "time": 24,
          "velocity": 0.9921259842519685
        },
        {
          "duration": 0.3958333333333357,
          "durationTicks": 95,
          "midi": 53,
          "name": "F3",
          "ticks": 5952,
          "time": 24.8,
          "velocity": 0.9921259842519685
        },
        {
          "duration": 0.39583333333333215,
          "durationTicks": 95,
          "midi": 53,
          "name": "F3",
          "ticks": 6144,
          "time": 25.6,
          "velocity": 0.6299212598425197
        },
        {
          "duration": 0.39583333333333215,
          "durationTicks": 95,
          "midi": 53,
          "name": "F3",
          "ticks": 6336,
          "time": 26.400000000000002,
          "velocity": 0.6299212598425197
        },
        {
          "duration": 0.3958333333333286,
          "durationTicks": 95,
          "midi": 53,
          "name": "F3",
          "ticks": 6528,
          "time": 27.200000000000003,
          "velocity": 0.6299212598425197
        },
        {
          "duration": 0.39583333333333215,
          "durationTicks": 95,
          "midi": 53,
          "name": "F3",
          "ticks": 6720,
          "time": 28,
          "velocity": 0.6299212598425197
        },
        {
          "duration": 0.09583333333333144,
          "durationTicks": 23,
          "midi": 56,
          "name": "G#3",
          "ticks": 6912,
          "time": 28.8,
          "velocity": 0.6299212598425197
        },
        {
          "duration": 0.39583333333333215,
          "durationTicks": 95,
          "midi": 53,
          "name": "F3",
          "ticks": 6912,
          "time": 28.8,
          "velocity": 0.6299212598425197
        },
        {
          "duration": 0.09583333333333144,
          "durationTicks": 23,
          "midi": 56,
          "name": "G#3",
          "ticks": 6936,
          "time": 28.900000000000002,
          "velocity": 0.6299212598425197
        },
        {
          "duration": 0.09583333333333144,
          "durationTicks": 23,
          "midi": 56,
          "name": "G#3",
          "ticks": 6984,
          "time": 29.1,
          "velocity": 0.6299212598425197
        },
        {
          "duration": 0.09583333333333144,
          "durationTicks": 23,
          "midi": 56,
          "name": "G#3",
          "ticks": 7008,
          "time": 29.200000000000003,
          "velocity": 0.6299212598425197
        },
        {
          "duration": 0.09583333333333144,
          "durationTicks": 23,
          "midi": 56,
          "name": "G#3",
          "ticks": 7032,
          "time": 29.3,
          "velocity": 0.6299212598425197
        },
        {
          "duration": 0.09583333333333144,
          "durationTicks": 23,
          "midi": 56,
          "name": "G#3",
          "ticks": 7080,
          "time": 29.5,
          "velocity": 0.6299212598425197
        },
        {
          "duration": 0.09583333333333144,
          "durationTicks": 23,
          "midi": 56,
          "name": "G#3",
          "ticks": 7104,
          "time": 29.6,
          "velocity": 0.6299212598425197
        },
        {
          "duration": 0.39583333333333215,
          "durationTicks": 95,
          "midi": 53,
          "name": "F3",
          "ticks": 7104,
          "time": 29.6,
          "velocity": 0.6299212598425197
        },
        {
          "duration": 0.09583333333333144,
          "durationTicks": 23,
          "midi": 56,
          "name": "G#3",
          "ticks": 7128,
          "time": 29.700000000000003,
          "velocity": 0.6299212598425197
        },
        {
          "duration": 0.09583333333333144,
          "durationTicks": 23,
          "midi": 56,
          "name": "G#3",
          "ticks": 7176,
          "time": 29.900000000000002,
          "velocity": 0.6299212598425197
        },
        {
          "duration": 0.09583333333333144,
          "durationTicks": 23,
          "midi": 56,
          "name": "G#3",
          "ticks": 7200,
          "time": 30,
          "velocity": 0.6299212598425197
        },
        {
          "duration": 0.09583333333333144,
          "durationTicks": 23,
          "midi": 56,
          "name": "G#3",
          "ticks": 7224,
          "time": 30.1,
          "velocity": 0.6299212598425197
        },
        {
          "duration": 0.09583333333333144,
          "durationTicks": 23,
          "midi": 56,
          "name": "G#3",
          "ticks": 7272,
          "time": 30.3,
          "velocity": 0.6299212598425197
        },
        {
          "duration": 0.09583333333333144,
          "durationTicks": 23,
          "midi": 56,
          "name": "G#3",
          "ticks": 7296,
          "time": 30.400000000000002,
          "velocity": 0.6299212598425197
        },
        {
          "duration": 0.39583333333333215,
          "durationTicks": 95,
          "midi": 53,
          "name": "F3",
          "ticks": 7296,
          "time": 30.400000000000002,
          "velocity": 0.6299212598425197
        },
        {
          "duration": 0.09583333333333144,
          "durationTicks": 23,
          "midi": 56,
          "name": "G#3",
          "ticks": 7320,
          "time": 30.5,
          "velocity": 0.6299212598425197
        },
        {
          "duration": 0.09583333333333144,
          "durationTicks": 23,
          "midi": 56,
          "name": "G#3",
          "ticks": 7368,
          "time": 30.700000000000003,
          "velocity": 0.6299212598425197
        },
        {
          "duration": 0.09583333333333144,
          "durationTicks": 23,
          "midi": 56,
          "name": "G#3",
          "ticks": 7392,
          "time": 30.8,
          "velocity": 0.6299212598425197
        },
        {
          "duration": 0.09583333333333144,
          "durationTicks": 23,
          "midi": 56,
          "name": "G#3",
          "ticks": 7416,
          "time": 30.900000000000002,
          "velocity": 0.6299212598425197
        },
        {
          "duration": 0.09583333333333144,
          "durationTicks": 23,
          "midi": 56,
          "name": "G#3",
          "ticks": 7464,
          "time": 31.1,
          "velocity": 0.6299212598425197
        },
        {
          "duration": 0.09583333333333144,
          "durationTicks": 23,
          "midi": 56,
          "name": "G#3",
          "ticks": 7488,
          "time": 31.200000000000003,
          "velocity": 0.6299212598425197
        },
        {
          "duration": 0.3958333333333286,
          "durationTicks": 95,
          "midi": 53,
          "name": "F3",
          "ticks": 7488,
          "time": 31.200000000000003,
          "velocity": 0.6299212598425197
        },
        {
          "duration": 0.09583333333333144,
          "durationTicks": 23,
          "midi": 56,
          "name": "G#3",
          "ticks": 7512,
          "time": 31.3,
          "velocity": 0.6299212598425197
        },
        {
          "duration": 0.09583333333333144,
          "durationTicks": 23,
          "midi": 56,
          "name": "G#3",
          "ticks": 7560,
          "time": 31.5,
          "velocity": 0.6299212598425197
        },
        {
          "duration": 0.09583333333333144,
          "durationTicks": 23,
          "midi": 56,
          "name": "G#3",
          "ticks": 7584,
          "time": 31.6,
          "velocity": 0.6299212598425197
        },
        {
          "duration": 0.09583333333333144,
          "durationTicks": 23,
          "midi": 56,
          "name": "G#3",
          "ticks": 7608,
          "time": 31.700000000000003,
          "velocity": 0.6299212598425197
        },
        {
          "duration": 0.09583333333333144,
          "durationTicks": 23,
          "midi": 56,
          "name": "G#3",
          "ticks": 7656,
          "time": 31.900000000000002,
          "velocity": 0.6299212598425197
        },
        {
          "duration": 0.3958333333333357,
          "durationTicks": 95,
          "midi": 57,
          "name": "A3",
          "ticks": 7680,
          "time": 32,
          "velocity": 0.9921259842519685
        },
        {
          "duration": 0.09583333333333144,
          "durationTicks": 23,
          "midi": 56,
          "name": "G#3",
          "ticks": 7680,
          "time": 32,
          "velocity": 0.9921259842519685
        },
        {
          "duration": 0.3958333333333357,
          "durationTicks": 95,
          "midi": 53,
          "name": "F3",
          "ticks": 7680,
          "time": 32,
          "velocity": 0.9921259842519685
        },
        {
          "duration": 0.09583333333333144,
          "durationTicks": 23,
          "midi": 56,
          "name": "G#3",
          "ticks": 7752,
          "time": 32.300000000000004,
          "velocity": 0.9921259842519685
        },
        {
          "duration": 0.09583333333333144,
          "durationTicks": 23,
          "midi": 56,
          "name": "G#3",
          "ticks": 7872,
          "time": 32.800000000000004,
          "velocity": 0.9921259842519685
        },
        {
          "duration": 0.3958333333333286,
          "durationTicks": 95,
          "midi": 53,
          "name": "F3",
          "ticks": 7872,
          "time": 32.800000000000004,
          "velocity": 0.9921259842519685
        },
        {
          "duration": 0.09583333333333144,
          "durationTicks": 23,
          "midi": 56,
          "name": "G#3",
          "ticks": 7896,
          "time": 32.9,
          "velocity": 0.9921259842519685
        },
        {
          "duration": 0.09583333333333144,
          "durationTicks": 23,
          "midi": 56,
          "name": "G#3",
          "ticks": 7944,
          "time": 33.1,
          "velocity": 0.9921259842519685
        },
        {
          "duration": 0.09583333333333144,
          "durationTicks": 23,
          "midi": 56,
          "name": "G#3",
          "ticks": 7968,
          "time": 33.2,
          "velocity": 0.9921259842519685
        },
        {
          "duration": 0.09583333333333144,
          "durationTicks": 23,
          "midi": 56,
          "name": "G#3",
          "ticks": 7992,
          "time": 33.300000000000004,
          "velocity": 0.9921259842519685
        },
        {
          "duration": 0.09583333333333144,
          "durationTicks": 23,
          "midi": 56,
          "name": "G#3",
          "ticks": 8064,
          "time": 33.6,
          "velocity": 0.9921259842519685
        },
        {
          "duration": 0.3958333333333286,
          "durationTicks": 95,
          "midi": 53,
          "name": "F3",
          "ticks": 8064,
          "time": 33.6,
          "velocity": 0.9921259842519685
        },
        {
          "duration": 0.09583333333333144,
          "durationTicks": 23,
          "midi": 56,
          "name": "G#3",
          "ticks": 8136,
          "time": 33.9,
          "velocity": 0.9921259842519685
        },
        {
          "duration": 0.09583333333333144,
          "durationTicks": 23,
          "midi": 56,
          "name": "G#3",
          "ticks": 8160,
          "time": 34,
          "velocity": 0.9921259842519685
        },
        {
          "duration": 0.09583333333333144,
          "durationTicks": 23,
          "midi": 56,
          "name": "G#3",
          "ticks": 8256,
          "time": 34.4,
          "velocity": 0.9921259842519685
        },
        {
          "duration": 0.3958333333333357,
          "durationTicks": 95,
          "midi": 53,
          "name": "F3",
          "ticks": 8256,
          "time": 34.4,
          "velocity": 0.9921259842519685
        },
        {
          "duration": 0.09583333333333144,
          "durationTicks": 23,
          "midi": 56,
          "name": "G#3",
          "ticks": 8328,
          "time": 34.7,
          "velocity": 0.9921259842519685
        },
        {
          "duration": 0.09583333333333144,
          "durationTicks": 23,
          "midi": 56,
          "name": "G#3",
          "ticks": 8352,
          "time": 34.800000000000004,
          "velocity": 0.9921259842519685
        },
        {
          "duration": 0.09583333333333144,
          "durationTicks": 23,
          "midi": 56,
          "name": "G#3",
          "ticks": 8448,
          "time": 35.2,
          "velocity": 0.9921259842519685
        },
        {
          "duration": 0.3958333333333286,
          "durationTicks": 95,
          "midi": 53,
          "name": "F3",
          "ticks": 8448,
          "time": 35.2,
          "velocity": 0.9921259842519685
        },
        {
          "duration": 0.09583333333333144,
          "durationTicks": 23,
          "midi": 56,
          "name": "G#3",
          "ticks": 8520,
          "time": 35.5,
          "velocity": 0.9921259842519685
        },
        {
          "duration": 0.09583333333333144,
          "durationTicks": 23,
          "midi": 56,
          "name": "G#3",
          "ticks": 8544,
          "time": 35.6,
          "velocity": 0.9921259842519685
        },
        {
          "duration": 0.09583333333333144,
          "durationTicks": 23,
          "midi": 56,
          "name": "G#3",
          "ticks": 8640,
          "time": 36,
          "velocity": 0.9921259842519685
        },
        {
          "duration": 0.3958333333333357,
          "durationTicks": 95,
          "midi": 53,
          "name": "F3",
          "ticks": 8640,
          "time": 36,
          "velocity": 0.9921259842519685
        },
        {
          "duration": 0.09583333333333144,
          "durationTicks": 23,
          "midi": 56,
          "name": "G#3",
          "ticks": 8736,
          "time": 36.4,
          "velocity": 0.9921259842519685
        },
        {
          "duration": 0.09583333333333144,
          "durationTicks": 23,
          "midi": 56,
          "name": "G#3",
          "ticks": 8808,
          "time": 36.7,
          "velocity": 0.9921259842519685
        },
        {
          "duration": 0.09583333333333144,
          "durationTicks": 23,
          "midi": 56,
          "name": "G#3",
          "ticks": 9216,
          "time": 38.400000000000006,
          "velocity": 0.9921259842519685
        },
        {
          "duration": 0.09583333333333144,
          "durationTicks": 23,
          "midi": 56,
          "name": "G#3",
          "ticks": 9288,
          "time": 38.7,
          "velocity": 0.9921259842519685
        },
        {
          "duration": 0.09583333333333144,
          "durationTicks": 23,
          "midi": 56,
          "name": "G#3",
          "ticks": 9312,
          "time": 38.800000000000004,
          "velocity": 0.9921259842519685
        },
        {
          "duration": 0.09583333333333144,
          "durationTicks": 23,
          "midi": 56,
          "name": "G#3",
          "ticks": 9384,
          "time": 39.1,
          "velocity": 0.9921259842519685
        },
        {
          "duration": 0.09583333333333144,
          "durationTicks": 23,
          "midi": 56,
          "name": "G#3",
          "ticks": 9408,
          "time": 39.2,
          "velocity": 0.9921259842519685
        },
        {
          "duration": 0.09583333333333144,
          "durationTicks": 23,
          "midi": 56,
          "name": "G#3",
          "ticks": 9480,
          "time": 39.5,
          "velocity": 0.9921259842519685
        },
        {
          "duration": 0.09583333333333144,
          "durationTicks": 23,
          "midi": 56,
          "name": "G#3",
          "ticks": 9504,
          "time": 39.6,
          "velocity": 0.9921259842519685
        },
        {
          "duration": 0.09583333333333144,
          "durationTicks": 23,
          "midi": 56,
          "name": "G#3",
          "ticks": 9576,
          "time": 39.900000000000006,
          "velocity": 0.9921259842519685
        },
        {
          "duration": 0.3958333333333357,
          "durationTicks": 95,
          "midi": 49,
          "name": "C#3",
          "ticks": 9600,
          "time": 40,
          "velocity": 0.9921259842519685
        },
        {
          "duration": 0.3958333333333357,
          "durationTicks": 95,
          "midi": 53,
          "name": "F3",
          "ticks": 12672,
          "time": 52.800000000000004,
          "velocity": 0.9921259842519685
        }
      ],
      "endOfTrackTicks": 13843
    },
    {
      "channel": 9,
      "controlChanges": {
        "6": [
          {
            "number": 6,
            "ticks": 0,
            "time": 0,
            "value": 0.09448818897637795
          },
          {
            "number": 6,
            "ticks": 0,
            "time": 0,
            "value": 0.09448818897637795
          },
          {
            "number": 6,
            "ticks": 0,
            "time": 0,
            "value": 0.09448818897637795
          },
          {
            "number": 6,
            "ticks": 13824,
            "time": 57.6,
            "value": 0.09448818897637795
          },
          {
            "number": 6,
            "ticks": 13825,
            "time": 57.60416666666667,
            "value": 0.09448818897637795
          }
        ],
        "7": [
          {
            "number": 7,
            "ticks": 0,
            "time": 0,
            "value": 0.7874015748031497
          },
          {
            "number": 7,
            "ticks": 0,
            "time": 0,
            "value": 0.7874015748031497
          },
          {
            "number": 7,
            "ticks": 0,
            "time": 0,
            "value": 0.7874015748031497
          },
          {
            "number": 7,
            "ticks": 0,
            "time": 0,
            "value": 0.7874015748031497
          },
          {
            "number": 7,
            "ticks": 0,
            "time": 0,
            "value": 0.7874015748031497
          },
          {
            "number": 7,
            "ticks": 0,
            "time": 0,
            "value": 0.7874015748031497
          },
          {
            "number": 7,
            "ticks": 13824,
            "time": 57.6,
            "value": 0.7874015748031497
          },
          {
            "number": 7,
            "ticks": 13824,
            "time": 57.6,
            "value": 0.7874015748031497
          },
          {
            "number": 7,
            "ticks": 13825,
            "time": 57.60416666666667,
            "value": 0.7874015748031497
          }
        ],
        "10": [
          {
            "number": 10,
            "ticks": 0,
            "time": 0,
            "value": 0.5039370078740157
          },
          {
            "number": 10,
            "ticks": 0,
            "time": 0,
            "value": 0.5039370078740157
          },
          {
            "number": 10,
            "ticks": 0,
            "time": 0,
            "value": 0.5039370078740157
          },
          {
            "number": 10,
            "ticks": 0,
            "time": 0,
            "value": 0.5039370078740157
          },
          {
            "number": 10,
            "ticks": 0,
            "time": 0,
            "value": 0.5039370078740157
          },
          {
            "number": 10,
            "ticks": 0,
            "time": 0,
            "value": 0.5039370078740157
          },
          {
            "number": 10,
            "ticks": 13824,
            "time": 57.6,
            "value": 0.5039370078740157
          },
          {
            "number": 10,
            "ticks": 13824,
            "time": 57.6,
            "value": 0.5039370078740157
          },
          {
            "number": 10,
            "ticks": 13825,
            "time": 57.60416666666667,
            "value": 0.5039370078740157
          }
        ],
        "91": [
          {
            "number": 91,
            "ticks": 0,
            "time": 0,
            "value": 0
          },
          {
            "number": 91,
            "ticks": 0,
            "time": 0,
            "value": 0
          },
          {
            "number": 91,
            "ticks": 0,
            "time": 0,
            "value": 0
          },
          {
            "number": 91,
            "ticks": 0,
            "time": 0,
            "value": 0
          },
          {
            "number": 91,
            "ticks": 0,
            "time": 0,
            "value": 0
          },
          {
            "number": 91,
            "ticks": 13824,
            "time": 57.6,
            "value": 0
          },
          {
            "number": 91,
            "ticks": 13824,
            "time": 57.6,
            "value": 0
          },
          {
            "number": 91,
            "ticks": 13825,
            "time": 57.60416666666667,
            "value": 0
          }
        ],
        "93": [
          {
            "number": 93,
            "ticks": 0,
            "time": 0,
            "value": 0
          },
          {
            "number": 93,
            "ticks": 0,
            "time": 0,
            "value": 0
          },
          {
            "number": 93,
            "ticks": 0,
            "time": 0,
            "value": 0
          },
          {
            "number": 93,
            "ticks": 0,
            "time": 0,
            "value": 0
          },
          {
            "number": 93,
            "ticks": 0,
            "time": 0,
            "value": 0
          },
          {
            "number": 93,
            "ticks": 13824,
            "time": 57.6,
            "value": 0
          },
          {
            "number": 93,
            "ticks": 13824,
            "time": 57.6,
            "value": 0
          },
          {
            "number": 93,
            "ticks": 13825,
            "time": 57.60416666666667,
            "value": 0
          }
        ],
        "100": [
          {
            "number": 100,
            "ticks": 0,
            "time": 0,
            "value": 0
          },
          {
            "number": 100,
            "ticks": 0,
            "time": 0,
            "value": 0
          },
          {
            "number": 100,
            "ticks": 0,
            "time": 0,
            "value": 0
          },
          {
            "number": 100,
            "ticks": 13824,
            "time": 57.6,
            "value": 0
          },
          {
            "number": 100,
            "ticks": 13825,
            "time": 57.60416666666667,
            "value": 0
          }
        ],
        "101": [
          {
            "number": 101,
            "ticks": 0,
            "time": 0,
            "value": 0
          },
          {
            "number": 101,
            "ticks": 0,
            "time": 0,
            "value": 0
          },
          {
            "number": 101,
            "ticks": 0,
            "time": 0,
            "value": 0
          },
          {
            "number": 101,
            "ticks": 13824,
            "time": 57.6,
            "value": 0
          },
          {
            "number": 101,
            "ticks": 13825,
            "time": 57.60416666666667,
            "value": 0
          }
        ]
      },
      "pitchBends": [
        {
          "ticks": 0,
          "time": 0,
          "value": 0
        },
        {
          "ticks": 0,
          "time": 0,
          "value": 0
        },
        {
          "ticks": 0,
          "time": 0,
          "value": 0
        },
        {
          "ticks": 0,
          "time": 0,
          "value": 0
        },
        {
          "ticks": 13824,
          "time": 57.6,
          "value": 0
        },
        {
          "ticks": 13825,
          "time": 57.60416666666667,
          "value": 0
        }
      ],
      "instrument": {
        "family": "drums",
        "number": 0,
        "name": "standard kit"
      },
      "name": "Castanets",
      "notes": [
        {
          "duration": 0.39583333333333337,
          "durationTicks": 95,
          "midi": 85,
          "name": "C#6",
          "ticks": 96,
          "time": 0.4,
          "velocity": 0.9921259842519685
        },
        {
          "duration": 0.39583333333333326,
          "durationTicks": 95,
          "midi": 85,
          "name": "C#6",
          "ticks": 288,
          "time": 1.2000000000000002,
          "velocity": 0.9921259842519685
        },
        {
          "duration": 0.3958333333333335,
          "durationTicks": 95,
          "midi": 85,
          "name": "C#6",
          "ticks": 480,
          "time": 2,
          "velocity": 0.9921259842519685
        },
        {
          "duration": 0.39583333333333304,
          "durationTicks": 95,
          "midi": 85,
          "name": "C#6",
          "ticks": 672,
          "time": 2.8000000000000003,
          "velocity": 0.9921259842519685
        },
        {
          "duration": 0.3958333333333335,
          "durationTicks": 95,
          "midi": 85,
          "name": "C#6",
          "ticks": 864,
          "time": 3.6,
          "velocity": 0.9921259842519685
        },
        {
          "duration": 0.39583333333333304,
          "durationTicks": 95,
          "midi": 85,
          "name": "C#6",
          "ticks": 1056,
          "time": 4.4,
          "velocity": 0.9921259842519685
        },
        {
          "duration": 0.3958333333333339,
          "durationTicks": 95,
          "midi": 85,
          "name": "C#6",
          "ticks": 1248,
          "time": 5.2,
          "velocity": 0.9921259842519685
        },
        {
          "duration": 0.3958333333333339,
          "durationTicks": 95,
          "midi": 85,
          "name": "C#6",
          "ticks": 1440,
          "time": 6,
          "velocity": 0.9921259842519685
        },
        {
          "duration": 0.39583333333333215,
          "durationTicks": 95,
          "midi": 85,
          "name": "C#6",
          "ticks": 1632,
          "time": 6.800000000000001,
          "velocity": 0.9921259842519685
        },
        {
          "duration": 0.39583333333333304,
          "durationTicks": 95,
          "midi": 85,
          "name": "C#6",
          "ticks": 1824,
          "time": 7.6000000000000005,
          "velocity": 0.9921259842519685
        },
        {
          "duration": 0.39583333333333215,
          "durationTicks": 95,
          "midi": 85,
          "name": "C#6",
          "ticks": 2016,
          "time": 8.4,
          "velocity": 0.9921259842519685
        },
        {
          "duration": 0.39583333333333215,
          "durationTicks": 95,
          "midi": 85,
          "name": "C#6",
          "ticks": 2208,
          "time": 9.200000000000001,
          "velocity": 0.9921259842519685
        },
        {
          "duration": 0.3958333333333339,
          "durationTicks": 95,
          "midi": 85,
          "name": "C#6",
          "ticks": 2400,
          "time": 10,
          "velocity": 0.9921259842519685
        },
        {
          "duration": 0.39583333333333215,
          "durationTicks": 95,
          "midi": 85,
          "name": "C#6",
          "ticks": 2592,
          "time": 10.8,
          "velocity": 0.9921259842519685
        },
        {
          "duration": 0.39583333333333215,
          "durationTicks": 95,
          "midi": 85,
          "name": "C#6",
          "ticks": 6240,
          "time": 26,
          "velocity": 0.9921259842519685
        },
        {
          "duration": 0.39583333333333215,
          "durationTicks": 95,
          "midi": 85,
          "name": "C#6",
          "ticks": 6432,
          "time": 26.8,
          "velocity": 0.9921259842519685
        },
        {
          "duration": 0.39583333333333215,
          "durationTicks": 95,
          "midi": 85,
          "name": "C#6",
          "ticks": 6624,
          "time": 27.6,
          "velocity": 0.9921259842519685
        },
        {
          "duration": 0.39583333333333215,
          "durationTicks": 95,
          "midi": 85,
          "name": "C#6",
          "ticks": 6816,
          "time": 28.400000000000002,
          "velocity": 0.9921259842519685
        },
        {
          "duration": 0.3958333333333286,
          "durationTicks": 95,
          "midi": 85,
          "name": "C#6",
          "ticks": 7008,
          "time": 29.200000000000003,
          "velocity": 0.9921259842519685
        },
        {
          "duration": 0.39583333333333215,
          "durationTicks": 95,
          "midi": 85,
          "name": "C#6",
          "ticks": 7200,
          "time": 30,
          "velocity": 0.9921259842519685
        },
        {
          "duration": 0.39583333333333215,
          "durationTicks": 95,
          "midi": 85,
          "name": "C#6",
          "ticks": 7392,
          "time": 30.8,
          "velocity": 0.9921259842519685
        },
        {
          "duration": 0.39583333333333215,
          "durationTicks": 95,
          "midi": 85,
          "name": "C#6",
          "ticks": 7584,
          "time": 31.6,
          "velocity": 0.9921259842519685
        },
        {
          "duration": 0.3958333333333357,
          "durationTicks": 95,
          "midi": 85,
          "name": "C#6",
          "ticks": 7776,
          "time": 32.4,
          "velocity": 0.9921259842519685
        },
        {
          "duration": 0.3958333333333286,
          "durationTicks": 95,
          "midi": 85,
          "name": "C#6",
          "ticks": 7968,
          "time": 33.2,
          "velocity": 0.9921259842519685
        },
        {
          "duration": 0.3958333333333357,
          "durationTicks": 95,
          "midi": 85,
          "name": "C#6",
          "ticks": 8160,
          "time": 34,
          "velocity": 0.9921259842519685
        },
        {
          "duration": 0.3958333333333286,
          "durationTicks": 95,
          "midi": 85,
          "name": "C#6",
          "ticks": 8352,
          "time": 34.800000000000004,
          "velocity": 0.9921259842519685
        },
        {
          "duration": 0.3958333333333286,
          "durationTicks": 95,
          "midi": 85,
          "name": "C#6",
          "ticks": 8544,
          "time": 35.6,
          "velocity": 0.9921259842519685
        },
        {
          "duration": 0.3958333333333357,
          "durationTicks": 95,
          "midi": 85,
          "name": "C#6",
          "ticks": 8736,
          "time": 36.4,
          "velocity": 0.9921259842519685
        },
        {
          "duration": 0.3958333333333286,
          "durationTicks": 95,
          "midi": 85,
          "name": "C#6",
          "ticks": 9696,
          "time": 40.400000000000006,
          "velocity": 0.9921259842519685
        },
        {
          "duration": 0.3958333333333286,
          "durationTicks": 95,
          "midi": 85,
          "name": "C#6",
          "ticks": 9888,
          "time": 41.2,
          "velocity": 0.9921259842519685
        },
        {
          "duration": 0.3958333333333357,
          "durationTicks": 95,
          "midi": 85,
          "name": "C#6",
          "ticks": 10080,
          "time": 42,
          "velocity": 0.9921259842519685
        },
        {
          "duration": 0.3958333333333286,
          "durationTicks": 95,
          "midi": 85,
          "name": "C#6",
          "ticks": 10272,
          "time": 42.800000000000004,
          "velocity": 0.9921259842519685
        },
        {
          "duration": 0.3958333333333357,
          "durationTicks": 95,
          "midi": 85,
          "name": "C#6",
          "ticks": 10464,
          "time": 43.6,
          "velocity": 0.9921259842519685
        },
        {
          "duration": 0.3958333333333286,
          "durationTicks": 95,
          "midi": 85,
          "name": "C#6",
          "ticks": 10656,
          "time": 44.400000000000006,
          "velocity": 0.9921259842519685
        },
        {
          "duration": 0.3958333333333286,
          "durationTicks": 95,
          "midi": 85,
          "name": "C#6",
          "ticks": 10848,
          "time": 45.2,
          "velocity": 0.9921259842519685
        },
        {
          "duration": 0.3958333333333357,
          "durationTicks": 95,
          "midi": 85,
          "name": "C#6",
          "ticks": 11040,
          "time": 46,
          "velocity": 0.9921259842519685
        },
        {
          "duration": 0.3958333333333286,
          "durationTicks": 95,
          "midi": 85,
          "name": "C#6",
          "ticks": 11232,
          "time": 46.800000000000004,
          "velocity": 0.9921259842519685
        },
        {
          "duration": 0.3958333333333357,
          "durationTicks": 95,
          "midi": 85,
          "name": "C#6",
          "ticks": 11424,
          "time": 47.6,
          "velocity": 0.9921259842519685
        },
        {
          "duration": 0.3958333333333286,
          "durationTicks": 95,
          "midi": 85,
          "name": "C#6",
          "ticks": 11616,
          "time": 48.400000000000006,
          "velocity": 0.9921259842519685
        },
        {
          "duration": 0.3958333333333286,
          "durationTicks": 95,
          "midi": 85,
          "name": "C#6",
          "ticks": 11808,
          "time": 49.2,
          "velocity": 0.9921259842519685
        },
        {
          "duration": 0.3958333333333357,
          "durationTicks": 95,
          "midi": 85,
          "name": "C#6",
          "ticks": 12000,
          "time": 50,
          "velocity": 0.9921259842519685
        },
        {
          "duration": 0.3958333333333286,
          "durationTicks": 95,
          "midi": 85,
          "name": "C#6",
          "ticks": 12192,
          "time": 50.800000000000004,
          "velocity": 0.9921259842519685
        }
      ],
      "endOfTrackTicks": 13843
    },
    {
      "channel": 9,
      "controlChanges": {
        "6": [
          {
            "number": 6,
            "ticks": 0,
            "time": 0,
            "value": 0.09448818897637795
          },
          {
            "number": 6,
            "ticks": 0,
            "time": 0,
            "value": 0.09448818897637795
          },
          {
            "number": 6,
            "ticks": 0,
            "time": 0,
            "value": 0.09448818897637795
          },
          {
            "number": 6,
            "ticks": 13824,
            "time": 57.6,
            "value": 0.09448818897637795
          },
          {
            "number": 6,
            "ticks": 13825,
            "time": 57.60416666666667,
            "value": 0.09448818897637795
          }
        ],
        "7": [
          {
            "number": 7,
            "ticks": 0,
            "time": 0,
            "value": 0.7874015748031497
          },
          {
            "number": 7,
            "ticks": 0,
            "time": 0,
            "value": 0.7874015748031497
          },
          {
            "number": 7,
            "ticks": 0,
            "time": 0,
            "value": 0.7874015748031497
          },
          {
            "number": 7,
            "ticks": 0,
            "time": 0,
            "value": 0.7874015748031497
          },
          {
            "number": 7,
            "ticks": 0,
            "time": 0,
            "value": 0.7874015748031497
          },
          {
            "number": 7,
            "ticks": 0,
            "time": 0,
            "value": 0.7874015748031497
          },
          {
            "number": 7,
            "ticks": 13824,
            "time": 57.6,
            "value": 0.7874015748031497
          },
          {
            "number": 7,
            "ticks": 13824,
            "time": 57.6,
            "value": 0.7874015748031497
          },
          {
            "number": 7,
            "ticks": 13825,
            "time": 57.60416666666667,
            "value": 0.7874015748031497
          }
        ],
        "10": [
          {
            "number": 10,
            "ticks": 0,
            "time": 0,
            "value": 0.5039370078740157
          },
          {
            "number": 10,
            "ticks": 0,
            "time": 0,
            "value": 0.5039370078740157
          },
          {
            "number": 10,
            "ticks": 0,
            "time": 0,
            "value": 0.5039370078740157
          },
          {
            "number": 10,
            "ticks": 0,
            "time": 0,
            "value": 0.5039370078740157
          },
          {
            "number": 10,
            "ticks": 0,
            "time": 0,
            "value": 0.5039370078740157
          },
          {
            "number": 10,
            "ticks": 0,
            "time": 0,
            "value": 0.5039370078740157
          },
          {
            "number": 10,
            "ticks": 13824,
            "time": 57.6,
            "value": 0.5039370078740157
          },
          {
            "number": 10,
            "ticks": 13824,
            "time": 57.6,
            "value": 0.5039370078740157
          },
          {
            "number": 10,
            "ticks": 13825,
            "time": 57.60416666666667,
            "value": 0.5039370078740157
          }
        ],
        "91": [
          {
            "number": 91,
            "ticks": 0,
            "time": 0,
            "value": 0
          },
          {
            "number": 91,
            "ticks": 0,
            "time": 0,
            "value": 0
          },
          {
            "number": 91,
            "ticks": 0,
            "time": 0,
            "value": 0
          },
          {
            "number": 91,
            "ticks": 0,
            "time": 0,
            "value": 0
          },
          {
            "number": 91,
            "ticks": 0,
            "time": 0,
            "value": 0
          },
          {
            "number": 91,
            "ticks": 13824,
            "time": 57.6,
            "value": 0
          },
          {
            "number": 91,
            "ticks": 13824,
            "time": 57.6,
            "value": 0
          },
          {
            "number": 91,
            "ticks": 13825,
            "time": 57.60416666666667,
            "value": 0
          }
        ],
        "93": [
          {
            "number": 93,
            "ticks": 0,
            "time": 0,
            "value": 0
          },
          {
            "number": 93,
            "ticks": 0,
            "time": 0,
            "value": 0
          },
          {
            "number": 93,
            "ticks": 0,
            "time": 0,
            "value": 0
          },
          {
            "number": 93,
            "ticks": 0,
            "time": 0,
            "value": 0
          },
          {
            "number": 93,
            "ticks": 0,
            "time": 0,
            "value": 0
          },
          {
            "number": 93,
            "ticks": 13824,
            "time": 57.6,
            "value": 0
          },
          {
            "number": 93,
            "ticks": 13824,
            "time": 57.6,
            "value": 0
          },
          {
            "number": 93,
            "ticks": 13825,
            "time": 57.60416666666667,
            "value": 0
          }
        ],
        "100": [
          {
            "number": 100,
            "ticks": 0,
            "time": 0,
            "value": 0
          },
          {
            "number": 100,
            "ticks": 0,
            "time": 0,
            "value": 0
          },
          {
            "number": 100,
            "ticks": 0,
            "time": 0,
            "value": 0
          },
          {
            "number": 100,
            "ticks": 13824,
            "time": 57.6,
            "value": 0
          },
          {
            "number": 100,
            "ticks": 13825,
            "time": 57.60416666666667,
            "value": 0
          }
        ],
        "101": [
          {
            "number": 101,
            "ticks": 0,
            "time": 0,
            "value": 0
          },
          {
            "number": 101,
            "ticks": 0,
            "time": 0,
            "value": 0
          },
          {
            "number": 101,
            "ticks": 0,
            "time": 0,
            "value": 0
          },
          {
            "number": 101,
            "ticks": 13824,
            "time": 57.6,
            "value": 0
          },
          {
            "number": 101,
            "ticks": 13825,
            "time": 57.60416666666667,
            "value": 0
          }
        ]
      },
      "pitchBends": [
        {
          "ticks": 0,
          "time": 0,
          "value": 0
        },
        {
          "ticks": 0,
          "time": 0,
          "value": 0
        },
        {
          "ticks": 0,
          "time": 0,
          "value": 0
        },
        {
          "ticks": 0,
          "time": 0,
          "value": 0
        },
        {
          "ticks": 13824,
          "time": 57.6,
          "value": 0
        },
        {
          "ticks": 13825,
          "time": 57.60416666666667,
          "value": 0
        }
      ],
      "instrument": {
        "family": "drums",
        "number": 0,
        "name": "standard kit"
      },
      "name": "Maracas",
      "notes": [
        {
          "duration": 0.3958333333333339,
          "durationTicks": 95,
          "midi": 70,
          "name": "A#4",
          "ticks": 3072,
          "time": 12.8,
          "velocity": 0.6299212598425197
        },
        {
          "duration": 0.3958333333333339,
          "durationTicks": 95,
          "midi": 70,
          "name": "A#4",
          "ticks": 3168,
          "time": 13.200000000000001,
          "velocity": 0.6299212598425197
        },
        {
          "duration": 0.3958333333333339,
          "durationTicks": 95,
          "midi": 70,
          "name": "A#4",
          "ticks": 3264,
          "time": 13.600000000000001,
          "velocity": 0.6299212598425197
        },
        {
          "duration": 0.3958333333333357,
          "durationTicks": 95,
          "midi": 70,
          "name": "A#4",
          "ticks": 3360,
          "time": 14,
          "velocity": 0.6299212598425197
        },
        {
          "duration": 0.3958333333333339,
          "durationTicks": 95,
          "midi": 70,
          "name": "A#4",
          "ticks": 3456,
          "time": 14.4,
          "velocity": 0.6299212598425197
        },
        {
          "duration": 0.3958333333333339,
          "durationTicks": 95,
          "midi": 70,
          "name": "A#4",
          "ticks": 3552,
          "time": 14.8,
          "velocity": 0.6299212598425197
        },
        {
          "duration": 0.3958333333333339,
          "durationTicks": 95,
          "midi": 70,
          "name": "A#4",
          "ticks": 3648,
          "time": 15.200000000000001,
          "velocity": 0.6299212598425197
        },
        {
          "duration": 0.3958333333333339,
          "durationTicks": 95,
          "midi": 70,
          "name": "A#4",
          "ticks": 3744,
          "time": 15.600000000000001,
          "velocity": 0.6299212598425197
        },
        {
          "duration": 0.3958333333333357,
          "durationTicks": 95,
          "midi": 70,
          "name": "A#4",
          "ticks": 3840,
          "time": 16,
          "velocity": 0.6299212598425197
        },
        {
          "duration": 0.39583333333333215,
          "durationTicks": 95,
          "midi": 70,
          "name": "A#4",
          "ticks": 3936,
          "time": 16.400000000000002,
          "velocity": 0.6299212598425197
        },
        {
          "duration": 0.3958333333333357,
          "durationTicks": 95,
          "midi": 70,
          "name": "A#4",
          "ticks": 4032,
          "time": 16.8,
          "velocity": 0.6299212598425197
        },
        {
          "duration": 0.3958333333333357,
          "durationTicks": 95,
          "midi": 70,
          "name": "A#4",
          "ticks": 4128,
          "time": 17.2,
          "velocity": 0.6299212598425197
        },
        {
          "duration": 0.39583333333333215,
          "durationTicks": 95,
          "midi": 70,
          "name": "A#4",
          "ticks": 4224,
          "time": 17.6,
          "velocity": 0.6299212598425197
        },
        {
          "duration": 0.3958333333333357,
          "durationTicks": 95,
          "midi": 70,
          "name": "A#4",
          "ticks": 4320,
          "time": 18,
          "velocity": 0.6299212598425197
        },
        {
          "duration": 0.39583333333333215,
          "durationTicks": 95,
          "midi": 70,
          "name": "A#4",
          "ticks": 4416,
          "time": 18.400000000000002,
          "velocity": 0.6299212598425197
        },
        {
          "duration": 0.3958333333333357,
          "durationTicks": 95,
          "midi": 70,
          "name": "A#4",
          "ticks": 4512,
          "time": 18.8,
          "velocity": 0.6299212598425197
        },
        {
          "duration": 0.39583333333333215,
          "durationTicks": 95,
          "midi": 70,
          "name": "A#4",
          "ticks": 4608,
          "time": 19.200000000000003,
          "velocity": 0.6299212598425197
        },
        {
          "duration": 0.3958333333333357,
          "durationTicks": 95,
          "midi": 70,
          "name": "A#4",
          "ticks": 4704,
          "time": 19.6,
          "velocity": 0.6299212598425197
        },
        {
          "duration": 0.3958333333333357,
          "durationTicks": 95,
          "midi": 70,
          "name": "A#4",
          "ticks": 4800,
          "time": 20,
          "velocity": 0.6299212598425197
        },
        {
          "duration": 0.39583333333333215,
          "durationTicks": 95,
          "midi": 70,
          "name": "A#4",
          "ticks": 4896,
          "time": 20.400000000000002,
          "velocity": 0.6299212598425197
        },
        {
          "duration": 0.3958333333333357,
          "durationTicks": 95,
          "midi": 70,
          "name": "A#4",
          "ticks": 4992,
          "time": 20.8,
          "velocity": 0.6299212598425197
        },
        {
          "duration": 0.39583333333333215,
          "durationTicks": 95,
          "midi": 70,
          "name": "A#4",
          "ticks": 5088,
          "time": 21.200000000000003,
          "velocity": 0.6299212598425197
        },
        {
          "duration": 0.3958333333333357,
          "durationTicks": 95,
          "midi": 70,
          "name": "A#4",
          "ticks": 5184,
          "time": 21.6,
          "velocity": 0.6299212598425197
        },
        {
          "duration": 0.3958333333333357,
          "durationTicks": 95,
          "midi": 70,
          "name": "A#4",
          "ticks": 5280,
          "time": 22,
          "velocity": 0.6299212598425197
        },
        {
          "duration": 0.39583333333333215,
          "durationTicks": 95,
          "midi": 70,
          "name": "A#4",
          "ticks": 5376,
          "time": 22.400000000000002,
          "velocity": 0.6299212598425197
        },
        {
          "duration": 0.3958333333333357,
          "durationTicks": 95,
          "midi": 70,
          "name": "A#4",
          "ticks": 5472,
          "time": 22.8,
          "velocity": 0.6299212598425197
        },
        {
          "duration": 0.39583333333333215,
          "durationTicks": 95,
          "midi": 70,
          "name": "A#4",
          "ticks": 5568,
          "time": 23.200000000000003,
          "velocity": 0.6299212598425197
        },
        {
          "duration": 0.3958333333333357,
          "durationTicks": 95,
          "midi": 70,
          "name": "A#4",
          "ticks": 5664,
          "time": 23.6,
          "velocity": 0.6299212598425197
        },
        {
          "duration": 0.3958333333333357,
          "durationTicks": 95,
          "midi": 70,
          "name": "A#4",
          "ticks": 5760,
          "time": 24,
          "velocity": 0.6299212598425197
        },
        {
          "duration": 0.39583333333333215,
          "durationTicks": 95,
          "midi": 70,
          "name": "A#4",
          "ticks": 5856,
          "time": 24.400000000000002,
          "velocity": 0.6299212598425197
        },
        {
          "duration": 0.3958333333333357,
          "durationTicks": 95,
          "midi": 70,
          "name": "A#4",
          "ticks": 5952,
          "time": 24.8,
          "velocity": 0.6299212598425197
        },
        {
          "duration": 0.39583333333333215,
          "durationTicks": 95,
          "midi": 70,
          "name": "A#4",
          "ticks": 6048,
          "time": 25.200000000000003,
          "velocity": 0.6299212598425197
        },
        {
          "duration": 0.39583333333333215,
          "durationTicks": 95,
          "midi": 70,
          "name": "A#4",
          "ticks": 6144,
          "time": 25.6,
          "velocity": 0.6299212598425197
        },
        {
          "duration": 0.39583333333333215,
          "durationTicks": 95,
          "midi": 70,
          "name": "A#4",
          "ticks": 6240,
          "time": 26,
          "velocity": 0.6299212598425197
        },
        {
          "duration": 0.39583333333333215,
          "durationTicks": 95,
          "midi": 70,
          "name": "A#4",
          "ticks": 6336,
          "time": 26.400000000000002,
          "velocity": 0.6299212598425197
        },
        {
          "duration": 0.39583333333333215,
          "durationTicks": 95,
          "midi": 70,
          "name": "A#4",
          "ticks": 6432,
          "time": 26.8,
          "velocity": 0.6299212598425197
        },
        {
          "duration": 0.3958333333333286,
          "durationTicks": 95,
          "midi": 70,
          "name": "A#4",
          "ticks": 6528,
          "time": 27.200000000000003,
          "velocity": 0.6299212598425197
        },
        {
          "duration": 0.39583333333333215,
          "durationTicks": 95,
          "midi": 70,
          "name": "A#4",
          "ticks": 6624,
          "time": 27.6,
          "velocity": 0.6299212598425197
        },
        {
          "duration": 0.39583333333333215,
          "durationTicks": 95,
          "midi": 70,
          "name": "A#4",
          "ticks": 6720,
          "time": 28,
          "velocity": 0.6299212598425197
        },
        {
          "duration": 0.39583333333333215,
          "durationTicks": 95,
          "midi": 70,
          "name": "A#4",
          "ticks": 6816,
          "time": 28.400000000000002,
          "velocity": 0.6299212598425197
        },
        {
          "duration": 0.39583333333333215,
          "durationTicks": 95,
          "midi": 70,
          "name": "A#4",
          "ticks": 6912,
          "time": 28.8,
          "velocity": 0.6299212598425197
        },
        {
          "duration": 0.3958333333333286,
          "durationTicks": 95,
          "midi": 70,
          "name": "A#4",
          "ticks": 7008,
          "time": 29.200000000000003,
          "velocity": 0.6299212598425197
        },
        {
          "duration": 0.39583333333333215,
          "durationTicks": 95,
          "midi": 70,
          "name": "A#4",
          "ticks": 7104,
          "time": 29.6,
          "velocity": 0.6299212598425197
        },
        {
          "duration": 0.39583333333333215,
          "durationTicks": 95,
          "midi": 70,
          "name": "A#4",
          "ticks": 7200,
          "time": 30,
          "velocity": 0.6299212598425197
        },
        {
          "duration": 0.39583333333333215,
          "durationTicks": 95,
          "midi": 70,
          "name": "A#4",
          "ticks": 7296,
          "time": 30.400000000000002,
          "velocity": 0.6299212598425197
        },
        {
          "duration": 0.39583333333333215,
          "durationTicks": 95,
          "midi": 70,
          "name": "A#4",
          "ticks": 7392,
          "time": 30.8,
          "velocity": 0.6299212598425197
        },
        {
          "duration": 0.3958333333333286,
          "durationTicks": 95,
          "midi": 70,
          "name": "A#4",
          "ticks": 7488,
          "time": 31.200000000000003,
          "velocity": 0.6299212598425197
        },
        {
          "duration": 0.39583333333333215,
          "durationTicks": 95,
          "midi": 70,
          "name": "A#4",
          "ticks": 7584,
          "time": 31.6,
          "velocity": 0.6299212598425197
        },
        {
          "duration": 0.3958333333333357,
          "durationTicks": 95,
          "midi": 70,
          "name": "A#4",
          "ticks": 7680,
          "time": 32,
          "velocity": 0.6299212598425197
        },
        {
          "duration": 0.3958333333333357,
          "durationTicks": 95,
          "midi": 70,
          "name": "A#4",
          "ticks": 7776,
          "time": 32.4,
          "velocity": 0.6299212598425197
        },
        {
          "duration": 0.3958333333333286,
          "durationTicks": 95,
          "midi": 70,
          "name": "A#4",
          "ticks": 7872,
          "time": 32.800000000000004,
          "velocity": 0.6299212598425197
        },
        {
          "duration": 0.3958333333333286,
          "durationTicks": 95,
          "midi": 70,
          "name": "A#4",
          "ticks": 7968,
          "time": 33.2,
          "velocity": 0.6299212598425197
        },
        {
          "duration": 0.3958333333333286,
          "durationTicks": 95,
          "midi": 70,
          "name": "A#4",
          "ticks": 8064,
          "time": 33.6,
          "velocity": 0.6299212598425197
        },
        {
          "duration": 0.3958333333333357,
          "durationTicks": 95,
          "midi": 70,
          "name": "A#4",
          "ticks": 8160,
          "time": 34,
          "velocity": 0.6299212598425197
        },
        {
          "duration": 0.3958333333333357,
          "durationTicks": 95,
          "midi": 70,
          "name": "A#4",
          "ticks": 8256,
          "time": 34.4,
          "velocity": 0.6299212598425197
        },
        {
          "duration": 0.3958333333333286,
          "durationTicks": 95,
          "midi": 70,
          "name": "A#4",
          "ticks": 8352,
          "time": 34.800000000000004,
          "velocity": 0.6299212598425197
        },
        {
          "duration": 0.3958333333333286,
          "durationTicks": 95,
          "midi": 70,
          "name": "A#4",
          "ticks": 8448,
          "time": 35.2,
          "velocity": 0.6299212598425197
        },
        {
          "duration": 0.3958333333333286,
          "durationTicks": 95,
          "midi": 70,
          "name": "A#4",
          "ticks": 8544,
          "time": 35.6,
          "velocity": 0.6299212598425197
        },
        {
          "duration": 0.3958333333333357,
          "durationTicks": 95,
          "midi": 70,
          "name": "A#4",
          "ticks": 8640,
          "time": 36,
          "velocity": 0.6299212598425197
        },
        {
          "duration": 0.3958333333333357,
          "durationTicks": 95,
          "midi": 70,
          "name": "A#4",
          "ticks": 8736,
          "time": 36.4,
          "velocity": 0.6299212598425197
        },
        {
          "duration": 0.3958333333333357,
          "durationTicks": 95,
          "midi": 70,
          "name": "A#4",
          "ticks": 9600,
          "time": 40,
          "velocity": 0.6299212598425197
        },
        {
          "duration": 0.3958333333333286,
          "durationTicks": 95,
          "midi": 70,
          "name": "A#4",
          "ticks": 9696,
          "time": 40.400000000000006,
          "velocity": 0.6299212598425197
        },
        {
          "duration": 0.3958333333333286,
          "durationTicks": 95,
          "midi": 70,
          "name": "A#4",
          "ticks": 9792,
          "time": 40.800000000000004,
          "velocity": 0.6299212598425197
        },
        {
          "duration": 0.3958333333333286,
          "durationTicks": 95,
          "midi": 70,
          "name": "A#4",
          "ticks": 9888,
          "time": 41.2,
          "velocity": 0.6299212598425197
        },
        {
          "duration": 0.3958333333333357,
          "durationTicks": 95,
          "midi": 70,
          "name": "A#4",
          "ticks": 9984,
          "time": 41.6,
          "velocity": 0.6299212598425197
        },
        {
          "duration": 0.3958333333333357,
          "durationTicks": 95,
          "midi": 70,
          "name": "A#4",
          "ticks": 10080,
          "time": 42,
          "velocity": 0.6299212598425197
        },
        {
          "duration": 0.3958333333333286,
          "durationTicks": 95,
          "midi": 70,
          "name": "A#4",
          "ticks": 10176,
          "time": 42.400000000000006,
          "velocity": 0.6299212598425197
        },
        {
          "duration": 0.3958333333333286,
          "durationTicks": 95,
          "midi": 70,
          "name": "A#4",
          "ticks": 10272,
          "time": 42.800000000000004,
          "velocity": 0.6299212598425197
        },
        {
          "duration": 0.3958333333333286,
          "durationTicks": 95,
          "midi": 70,
          "name": "A#4",
          "ticks": 10368,
          "time": 43.2,
          "velocity": 0.6299212598425197
        },
        {
          "duration": 0.3958333333333357,
          "durationTicks": 95,
          "midi": 70,
          "name": "A#4",
          "ticks": 10464,
          "time": 43.6,
          "velocity": 0.6299212598425197
        },
        {
          "duration": 0.3958333333333357,
          "durationTicks": 95,
          "midi": 70,
          "name": "A#4",
          "ticks": 10560,
          "time": 44,
          "velocity": 0.6299212598425197
        },
        {
          "duration": 0.3958333333333286,
          "durationTicks": 95,
          "midi": 70,
          "name": "A#4",
          "ticks": 10656,
          "time": 44.400000000000006,
          "velocity": 0.6299212598425197
        },
        {
          "duration": 0.3958333333333286,
          "durationTicks": 95,
          "midi": 70,
          "name": "A#4",
          "ticks": 10752,
          "time": 44.800000000000004,
          "velocity": 0.6299212598425197
        },
        {
          "duration": 0.3958333333333286,
          "durationTicks": 95,
          "midi": 70,
          "name": "A#4",
          "ticks": 10848,
          "time": 45.2,
          "velocity": 0.6299212598425197
        },
        {
          "duration": 0.3958333333333357,
          "durationTicks": 95,
          "midi": 70,
          "name": "A#4",
          "ticks": 10944,
          "time": 45.6,
          "velocity": 0.6299212598425197
        },
        {
          "duration": 0.3958333333333357,
          "durationTicks": 95,
          "midi": 70,
          "name": "A#4",
          "ticks": 11040,
          "time": 46,
          "velocity": 0.6299212598425197
        },
        {
          "duration": 0.3958333333333286,
          "durationTicks": 95,
          "midi": 70,
          "name": "A#4",
          "ticks": 11136,
          "time": 46.400000000000006,
          "velocity": 0.6299212598425197
        },
        {
          "duration": 0.3958333333333286,
          "durationTicks": 95,
          "midi": 70,
          "name": "A#4",
          "ticks": 11232,
          "time": 46.800000000000004,
          "velocity": 0.6299212598425197
        },
        {
          "duration": 0.3958333333333286,
          "durationTicks": 95,
          "midi": 70,
          "name": "A#4",
          "ticks": 11328,
          "time": 47.2,
          "velocity": 0.6299212598425197
        },
        {
          "duration": 0.3958333333333357,
          "durationTicks": 95,
          "midi": 70,
          "name": "A#4",
          "ticks": 11424,
          "time": 47.6,
          "velocity": 0.6299212598425197
        },
        {
          "duration": 0.3958333333333357,
          "durationTicks": 95,
          "midi": 70,
          "name": "A#4",
          "ticks": 11520,
          "time": 48,
          "velocity": 0.6299212598425197
        },
        {
          "duration": 0.3958333333333286,
          "durationTicks": 95,
          "midi": 70,
          "name": "A#4",
          "ticks": 11616,
          "time": 48.400000000000006,
          "velocity": 0.6299212598425197
        },
        {
          "duration": 0.3958333333333286,
          "durationTicks": 95,
          "midi": 70,
          "name": "A#4",
          "ticks": 11712,
          "time": 48.800000000000004,
          "velocity": 0.6299212598425197
        },
        {
          "duration": 0.3958333333333286,
          "durationTicks": 95,
          "midi": 70,
          "name": "A#4",
          "ticks": 11808,
          "time": 49.2,
          "velocity": 0.6299212598425197
        },
        {
          "duration": 0.3958333333333357,
          "durationTicks": 95,
          "midi": 70,
          "name": "A#4",
          "ticks": 11904,
          "time": 49.6,
          "velocity": 0.6299212598425197
        },
        {
          "duration": 0.3958333333333357,
          "durationTicks": 95,
          "midi": 70,
          "name": "A#4",
          "ticks": 12000,
          "time": 50,
          "velocity": 0.6299212598425197
        },
        {
          "duration": 0.3958333333333286,
          "durationTicks": 95,
          "midi": 70,
          "name": "A#4",
          "ticks": 12096,
          "time": 50.400000000000006,
          "velocity": 0.6299212598425197
        },
        {
          "duration": 0.3958333333333286,
          "durationTicks": 95,
          "midi": 70,
          "name": "A#4",
          "ticks": 12192,
          "time": 50.800000000000004,
          "velocity": 0.6299212598425197
        }
      ],
      "endOfTrackTicks": 13843
    },
    {
      "channel": 0,
      "controlChanges": {
        "6": [
          {
            "number": 6,
            "ticks": 0,
            "time": 0,
            "value": 0.09448818897637795
          },
          {
            "number": 6,
            "ticks": 0,
            "time": 0,
            "value": 0.09448818897637795
          },
          {
            "number": 6,
            "ticks": 0,
            "time": 0,
            "value": 0.09448818897637795
          }
        ],
        "7": [
          {
            "number": 7,
            "ticks": 0,
            "time": 0,
            "value": 0.7874015748031497
          },
          {
            "number": 7,
            "ticks": 0,
            "time": 0,
            "value": 0.7874015748031497
          },
          {
            "number": 7,
            "ticks": 0,
            "time": 0,
            "value": 0.7874015748031497
          },
          {
            "number": 7,
            "ticks": 0,
            "time": 0,
            "value": 0.7874015748031497
          }
        ],
        "10": [
          {
            "number": 10,
            "ticks": 0,
            "time": 0,
            "value": 0.5039370078740157
          },
          {
            "number": 10,
            "ticks": 0,
            "time": 0,
            "value": 0.5039370078740157
          },
          {
            "number": 10,
            "ticks": 0,
            "time": 0,
            "value": 0.5039370078740157
          },
          {
            "number": 10,
            "ticks": 0,
            "time": 0,
            "value": 0.5039370078740157
          }
        ],
        "100": [
          {
            "number": 100,
            "ticks": 0,
            "time": 0,
            "value": 0
          },
          {
            "number": 100,
            "ticks": 0,
            "time": 0,
            "value": 0
          },
          {
            "number": 100,
            "ticks": 0,
            "time": 0,
            "value": 0
          }
        ],
        "101": [
          {
            "number": 101,
            "ticks": 0,
            "time": 0,
            "value": 0
          },
          {
            "number": 101,
            "ticks": 0,
            "time": 0,
            "value": 0
          },
          {
            "number": 101,
            "ticks": 0,
            "time": 0,
            "value": 0
          }
        ]
      },
      "pitchBends": [
        {
          "ticks": 0,
          "time": 0,
          "value": 0
        },
        {
          "ticks": 0,
          "time": 0,
          "value": 0
        },
        {
          "ticks": 0,
          "time": 0,
          "value": 0
        },
        {
          "ticks": 0,
          "time": 0,
          "value": 0
        }
      ],
      "instrument": {
        "family": "piano",
        "number": 0,
        "name": "acoustic grand piano"
      },
      "name": "Fingered Bass",
      "notes": [],
      "endOfTrackTicks": 13843
    },
    {
      "channel": 10,
      "controlChanges": {
        "6": [
          {
            "number": 6,
            "ticks": 13824,
            "time": 57.6,
            "value": 0.09448818897637795
          },
          {
            "number": 6,
            "ticks": 13825,
            "time": 57.60416666666667,
            "value": 0.09448818897637795
          }
        ],
        "7": [
          {
            "number": 7,
            "ticks": 13824,
            "time": 57.6,
            "value": 0.7874015748031497
          },
          {
            "number": 7,
            "ticks": 13825,
            "time": 57.60416666666667,
            "value": 0.7874015748031497
          }
        ],
        "10": [
          {
            "number": 10,
            "ticks": 13824,
            "time": 57.6,
            "value": 0.5039370078740157
          },
          {
            "number": 10,
            "ticks": 13825,
            "time": 57.60416666666667,
            "value": 0.5039370078740157
          }
        ],
        "100": [
          {
            "number": 100,
            "ticks": 13824,
            "time": 57.6,
            "value": 0
          },
          {
            "number": 100,
            "ticks": 13825,
            "time": 57.60416666666667,
            "value": 0
          }
        ],
        "101": [
          {
            "number": 101,
            "ticks": 13824,
            "time": 57.6,
            "value": 0
          },
          {
            "number": 101,
            "ticks": 13825,
            "time": 57.60416666666667,
            "value": 0
          }
        ]
      },
      "pitchBends": [
        {
          "ticks": 13824,
          "time": 57.6,
          "value": 0
        },
        {
          "ticks": 13825,
          "time": 57.60416666666667,
          "value": 0
        }
      ],
      "instrument": {
        "family": "bass",
        "number": 33,
        "name": "electric bass (finger)"
      },
      "name": "",
      "notes": [
        {
          "duration": 0.3958333333333339,
          "durationTicks": 95,
          "midi": 30,
          "name": "F#1",
          "ticks": 3072,
          "time": 12.8,
          "velocity": 0.7874015748031497
        },
        {
          "duration": 0.3958333333333339,
          "durationTicks": 95,
          "midi": 33,
          "name": "A1",
          "ticks": 3168,
          "time": 13.200000000000001,
          "velocity": 0.7874015748031497
        },
        {
          "duration": 0.19583333333333286,
          "durationTicks": 47,
          "midi": 30,
          "name": "F#1",
          "ticks": 3264,
          "time": 13.600000000000001,
          "velocity": 0.7874015748031497
        },
        {
          "duration": 0.19583333333333464,
          "durationTicks": 47,
          "midi": 33,
          "name": "A1",
          "ticks": 3312,
          "time": 13.8,
          "velocity": 0.7874015748031497
        },
        {
          "duration": 0.19583333333333464,
          "durationTicks": 47,
          "midi": 37,
          "name": "C#2",
          "ticks": 3360,
          "time": 14,
          "velocity": 0.7874015748031497
        },
        {
          "duration": 0.5958333333333332,
          "durationTicks": 143,
          "midi": 38,
          "name": "D2",
          "ticks": 3408,
          "time": 14.200000000000001,
          "velocity": 0.7874015748031497
        },
        {
          "duration": 0.3958333333333339,
          "durationTicks": 95,
          "midi": 35,
          "name": "B1",
          "ticks": 3552,
          "time": 14.8,
          "velocity": 0.7874015748031497
        },
        {
          "duration": 0.19583333333333464,
          "durationTicks": 47,
          "midi": 38,
          "name": "D2",
          "ticks": 3648,
          "time": 15.200000000000001,
          "velocity": 0.7874015748031497
        },
        {
          "duration": 0.19583333333333464,
          "durationTicks": 47,
          "midi": 35,
          "name": "B1",
          "ticks": 3696,
          "time": 15.4,
          "velocity": 0.7874015748031497
        },
        {
          "duration": 0.19583333333333286,
          "durationTicks": 47,
          "midi": 30,
          "name": "F#1",
          "ticks": 3744,
          "time": 15.600000000000001,
          "velocity": 0.7874015748031497
        },
        {
          "duration": 0.595833333333335,
          "durationTicks": 143,
          "midi": 28,
          "name": "E1",
          "ticks": 3792,
          "time": 15.8,
          "velocity": 0.7874015748031497
        },
        {
          "duration": 0.39583333333333215,
          "durationTicks": 95,
          "midi": 35,
          "name": "B1",
          "ticks": 3936,
          "time": 16.400000000000002,
          "velocity": 0.7874015748031497
        },
        {
          "duration": 0.19583333333333286,
          "durationTicks": 47,
          "midi": 28,
          "name": "E1",
          "ticks": 4032,
          "time": 16.8,
          "velocity": 0.7874015748031497
        },
        {
          "duration": 0.1958333333333364,
          "durationTicks": 47,
          "midi": 35,
          "name": "B1",
          "ticks": 4080,
          "time": 17,
          "velocity": 0.7874015748031497
        },
        {
          "duration": 0.1958333333333364,
          "durationTicks": 47,
          "midi": 34,
          "name": "A#1",
          "ticks": 4128,
          "time": 17.2,
          "velocity": 0.7874015748031497
        },
        {
          "duration": 0.5958333333333314,
          "durationTicks": 143,
          "midi": 33,
          "name": "A1",
          "ticks": 4176,
          "time": 17.400000000000002,
          "velocity": 0.7874015748031497
        },
        {
          "duration": 0.1958333333333364,
          "durationTicks": 47,
          "midi": 28,
          "name": "E1",
          "ticks": 4368,
          "time": 18.2,
          "velocity": 0.7874015748031497
        },
        {
          "duration": 0.19583333333333286,
          "durationTicks": 47,
          "midi": 33,
          "name": "A1",
          "ticks": 4416,
          "time": 18.400000000000002,
          "velocity": 0.7874015748031497
        },
        {
          "duration": 0.19583333333333286,
          "durationTicks": 47,
          "midi": 28,
          "name": "E1",
          "ticks": 4464,
          "time": 18.6,
          "velocity": 0.7874015748031497
        },
        {
          "duration": 0.19583333333333286,
          "durationTicks": 47,
          "midi": 29,
          "name": "F1",
          "ticks": 4512,
          "time": 18.8,
          "velocity": 0.7874015748031497
        },
        {
          "duration": 0.595833333333335,
          "durationTicks": 143,
          "midi": 30,
          "name": "F#1",
          "ticks": 4560,
          "time": 19,
          "velocity": 0.7874015748031497
        },
        {
          "duration": 0.3958333333333357,
          "durationTicks": 95,
          "midi": 33,
          "name": "A1",
          "ticks": 4704,
          "time": 19.6,
          "velocity": 0.7874015748031497
        },
        {
          "duration": 0.1958333333333364,
          "durationTicks": 47,
          "midi": 30,
          "name": "F#1",
          "ticks": 4800,
          "time": 20,
          "velocity": 0.7874015748031497
        },
        {
          "duration": 0.19583333333333286,
          "durationTicks": 47,
          "midi": 33,
          "name": "A1",
          "ticks": 4848,
          "time": 20.200000000000003,
          "velocity": 0.7874015748031497
        },
        {
          "duration": 0.19583333333333286,
          "durationTicks": 47,
          "midi": 37,
          "name": "C#2",
          "ticks": 4896,
          "time": 20.400000000000002,
          "velocity": 0.7874015748031497
        },
        {
          "duration": 0.595833333333335,
          "durationTicks": 143,
          "midi": 38,
          "name": "D2",
          "ticks": 4944,
          "time": 20.6,
          "velocity": 0.7874015748031497
        },
        {
          "duration": 0.39583333333333215,
          "durationTicks": 95,
          "midi": 35,
          "name": "B1",
          "ticks": 5088,
          "time": 21.200000000000003,
          "velocity": 0.7874015748031497
        },
        {
          "duration": 0.19583333333333286,
          "durationTicks": 47,
          "midi": 38,
          "name": "D2",
          "ticks": 5184,
          "time": 21.6,
          "velocity": 0.7874015748031497
        },
        {
          "duration": 0.1958333333333364,
          "durationTicks": 47,
          "midi": 35,
          "name": "B1",
          "ticks": 5232,
          "time": 21.8,
          "velocity": 0.7874015748031497
        },
        {
          "duration": 0.1958333333333364,
          "durationTicks": 47,
          "midi": 30,
          "name": "F#1",
          "ticks": 5280,
          "time": 22,
          "velocity": 0.7874015748031497
        },
        {
          "duration": 0.5958333333333314,
          "durationTicks": 143,
          "midi": 28,
          "name": "E1",
          "ticks": 5328,
          "time": 22.200000000000003,
          "velocity": 0.7874015748031497
        },
        {
          "duration": 0.3958333333333357,
          "durationTicks": 95,
          "midi": 35,
          "name": "B1",
          "ticks": 5472,
          "time": 22.8,
          "velocity": 0.7874015748031497
        },
        {
          "duration": 0.19583333333333286,
          "durationTicks": 47,
          "midi": 28,
          "name": "E1",
          "ticks": 5568,
          "time": 23.200000000000003,
          "velocity": 0.7874015748031497
        },
        {
          "duration": 0.19583333333333286,
          "durationTicks": 47,
          "midi": 35,
          "name": "B1",
          "ticks": 5616,
          "time": 23.400000000000002,
          "velocity": 0.7874015748031497
        },
        {
          "duration": 0.19583333333333286,
          "durationTicks": 47,
          "midi": 34,
          "name": "A#1",
          "ticks": 5664,
          "time": 23.6,
          "velocity": 0.7874015748031497
        },
        {
          "duration": 0.595833333333335,
          "durationTicks": 143,
          "midi": 33,
          "name": "A1",
          "ticks": 5712,
          "time": 23.8,
          "velocity": 0.7874015748031497
        },
        {
          "duration": 0.1958333333333293,
          "durationTicks": 47,
          "midi": 28,
          "name": "E1",
          "ticks": 7536,
          "time": 31.400000000000002,
          "velocity": 0.7874015748031497
        },
        {
          "duration": 0.19583333333333286,
          "durationTicks": 47,
          "midi": 29,
          "name": "F1",
          "ticks": 7584,
          "time": 31.6,
          "velocity": 0.7874015748031497
        },
        {
          "duration": 0.595833333333335,
          "durationTicks": 143,
          "midi": 30,
          "name": "F#1",
          "ticks": 7632,
          "time": 31.8,
          "velocity": 0.7874015748031497
        },
        {
          "duration": 0.3958333333333357,
          "durationTicks": 95,
          "midi": 33,
          "name": "A1",
          "ticks": 7776,
          "time": 32.4,
          "velocity": 0.7874015748031497
        },
        {
          "duration": 0.19583333333332575,
          "durationTicks": 47,
          "midi": 30,
          "name": "F#1",
          "ticks": 7872,
          "time": 32.800000000000004,
          "velocity": 0.7874015748031497
        },
        {
          "duration": 0.19583333333333286,
          "durationTicks": 47,
          "midi": 33,
          "name": "A1",
          "ticks": 7920,
          "time": 33,
          "velocity": 0.7874015748031497
        },
        {
          "duration": 0.19583333333333286,
          "durationTicks": 47,
          "midi": 37,
          "name": "C#2",
          "ticks": 7968,
          "time": 33.2,
          "velocity": 0.7874015748031497
        },
        {
          "duration": 0.5958333333333314,
          "durationTicks": 143,
          "midi": 38,
          "name": "D2",
          "ticks": 8016,
          "time": 33.4,
          "velocity": 0.7874015748031497
        },
        {
          "duration": 0.3958333333333357,
          "durationTicks": 95,
          "midi": 35,
          "name": "B1",
          "ticks": 8160,
          "time": 34,
          "velocity": 0.7874015748031497
        },
        {
          "duration": 0.19583333333333286,
          "durationTicks": 47,
          "midi": 38,
          "name": "D2",
          "ticks": 8256,
          "time": 34.4,
          "velocity": 0.7874015748031497
        },
        {
          "duration": 0.19583333333333286,
          "durationTicks": 47,
          "midi": 35,
          "name": "B1",
          "ticks": 8304,
          "time": 34.6,
          "velocity": 0.7874015748031497
        },
        {
          "duration": 0.19583333333332575,
          "durationTicks": 47,
          "midi": 30,
          "name": "F#1",
          "ticks": 8352,
          "time": 34.800000000000004,
          "velocity": 0.7874015748031497
        },
        {
          "duration": 0.5958333333333314,
          "durationTicks": 143,
          "midi": 28,
          "name": "E1",
          "ticks": 8400,
          "time": 35,
          "velocity": 0.7874015748031497
        },
        {
          "duration": 0.3958333333333286,
          "durationTicks": 95,
          "midi": 35,
          "name": "B1",
          "ticks": 8544,
          "time": 35.6,
          "velocity": 0.7874015748031497
        },
        {
          "duration": 0.19583333333333286,
          "durationTicks": 47,
          "midi": 28,
          "name": "E1",
          "ticks": 8640,
          "time": 36,
          "velocity": 0.7874015748031497
        },
        {
          "duration": 0.19583333333333286,
          "durationTicks": 47,
          "midi": 35,
          "name": "B1",
          "ticks": 8688,
          "time": 36.2,
          "velocity": 0.7874015748031497
        },
        {
          "duration": 0.19583333333333286,
          "durationTicks": 47,
          "midi": 34,
          "name": "A#1",
          "ticks": 8736,
          "time": 36.4,
          "velocity": 0.7874015748031497
        },
        {
          "duration": 0.5958333333333314,
          "durationTicks": 143,
          "midi": 33,
          "name": "A1",
          "ticks": 8784,
          "time": 36.6,
          "velocity": 0.7874015748031497
        },
        {
          "duration": 0.3958333333333357,
          "durationTicks": 95,
          "midi": 27,
          "name": "D#1",
          "ticks": 9600,
          "time": 40,
          "velocity": 0.7874015748031497
        },
        {
          "duration": 0.3958333333333286,
          "durationTicks": 95,
          "midi": 30,
          "name": "F#1",
          "ticks": 9696,
          "time": 40.400000000000006,
          "velocity": 0.7874015748031497
        },
        {
          "duration": 0.19583333333333286,
          "durationTicks": 47,
          "midi": 27,
          "name": "D#1",
          "ticks": 9792,
          "time": 40.800000000000004,
          "velocity": 0.7874015748031497
        },
        {
          "duration": 0.19583333333333286,
          "durationTicks": 47,
          "midi": 30,
          "name": "F#1",
          "ticks": 9840,
          "time": 41,
          "velocity": 0.7874015748031497
        },
        {
          "duration": 0.19583333333333286,
          "durationTicks": 47,
          "midi": 34,
          "name": "A#1",
          "ticks": 9888,
          "time": 41.2,
          "velocity": 0.7874015748031497
        },
        {
          "duration": 0.5958333333333314,
          "durationTicks": 143,
          "midi": 35,
          "name": "B1",
          "ticks": 9936,
          "time": 41.400000000000006,
          "velocity": 0.7874015748031497
        },
        {
          "duration": 0.3958333333333357,
          "durationTicks": 95,
          "midi": 32,
          "name": "G#1",
          "ticks": 10080,
          "time": 42,
          "velocity": 0.7874015748031497
        },
        {
          "duration": 0.19583333333332575,
          "durationTicks": 47,
          "midi": 35,
          "name": "B1",
          "ticks": 10176,
          "time": 42.400000000000006,
          "velocity": 0.7874015748031497
        },
        {
          "duration": 0.19583333333333286,
          "durationTicks": 47,
          "midi": 32,
          "name": "G#1",
          "ticks": 10224,
          "time": 42.6,
          "velocity": 0.7874015748031497
        },
        {
          "duration": 0.19583333333333286,
          "durationTicks": 47,
          "midi": 27,
          "name": "D#1",
          "ticks": 10272,
          "time": 42.800000000000004,
          "velocity": 0.7874015748031497
        },
        {
          "duration": 0.5958333333333314,
          "durationTicks": 143,
          "midi": 25,
          "name": "C#1",
          "ticks": 10320,
          "time": 43,
          "velocity": 0.7874015748031497
        },
        {
          "duration": 0.3958333333333357,
          "durationTicks": 95,
          "midi": 32,
          "name": "G#1",
          "ticks": 10464,
          "time": 43.6,
          "velocity": 0.7874015748031497
        },
        {
          "duration": 0.19583333333333286,
          "durationTicks": 47,
          "midi": 25,
          "name": "C#1",
          "ticks": 10560,
          "time": 44,
          "velocity": 0.7874015748031497
        },
        {
          "duration": 0.19583333333333286,
          "durationTicks": 47,
          "midi": 32,
          "name": "G#1",
          "ticks": 10608,
          "time": 44.2,
          "velocity": 0.7874015748031497
        },
        {
          "duration": 0.19583333333332575,
          "durationTicks": 47,
          "midi": 31,
          "name": "G1",
          "ticks": 10656,
          "time": 44.400000000000006,
          "velocity": 0.7874015748031497
        },
        {
          "duration": 0.5958333333333314,
          "durationTicks": 143,
          "midi": 30,
          "name": "F#1",
          "ticks": 10704,
          "time": 44.6,
          "velocity": 0.7874015748031497
        },
        {
          "duration": 0.19583333333332575,
          "durationTicks": 47,
          "midi": 25,
          "name": "C#1",
          "ticks": 10896,
          "time": 45.400000000000006,
          "velocity": 0.7874015748031497
        },
        {
          "duration": 0.19583333333333286,
          "durationTicks": 47,
          "midi": 30,
          "name": "F#1",
          "ticks": 10944,
          "time": 45.6,
          "velocity": 0.7874015748031497
        },
        {
          "duration": 0.19583333333333286,
          "durationTicks": 47,
          "midi": 25,
          "name": "C#1",
          "ticks": 10992,
          "time": 45.800000000000004,
          "velocity": 0.7874015748031497
        },
        {
          "duration": 0.19583333333333286,
          "durationTicks": 47,
          "midi": 26,
          "name": "D1",
          "ticks": 11040,
          "time": 46,
          "velocity": 0.7874015748031497
        },
        {
          "duration": 0.5958333333333314,
          "durationTicks": 143,
          "midi": 27,
          "name": "D#1",
          "ticks": 11088,
          "time": 46.2,
          "velocity": 0.7874015748031497
        },
        {
          "duration": 0.3958333333333286,
          "durationTicks": 95,
          "midi": 30,
          "name": "F#1",
          "ticks": 11232,
          "time": 46.800000000000004,
          "velocity": 0.7874015748031497
        },
        {
          "duration": 0.19583333333333286,
          "durationTicks": 47,
          "midi": 27,
          "name": "D#1",
          "ticks": 11328,
          "time": 47.2,
          "velocity": 0.7874015748031497
        },
        {
          "duration": 0.19583333333332575,
          "durationTicks": 47,
          "midi": 30,
          "name": "F#1",
          "ticks": 11376,
          "time": 47.400000000000006,
          "velocity": 0.7874015748031497
        },
        {
          "duration": 0.19583333333333286,
          "durationTicks": 47,
          "midi": 34,
          "name": "A#1",
          "ticks": 11424,
          "time": 47.6,
          "velocity": 0.7874015748031497
        },
        {
          "duration": 0.5958333333333314,
          "durationTicks": 143,
          "midi": 35,
          "name": "B1",
          "ticks": 11472,
          "time": 47.800000000000004,
          "velocity": 0.7874015748031497
        },
        {
          "duration": 0.3958333333333286,
          "durationTicks": 95,
          "midi": 32,
          "name": "G#1",
          "ticks": 11616,
          "time": 48.400000000000006,
          "velocity": 0.7874015748031497
        },
        {
          "duration": 0.19583333333333286,
          "durationTicks": 47,
          "midi": 35,
          "name": "B1",
          "ticks": 11712,
          "time": 48.800000000000004,
          "velocity": 0.7874015748031497
        },
        {
          "duration": 0.19583333333333286,
          "durationTicks": 47,
          "midi": 32,
          "name": "G#1",
          "ticks": 11760,
          "time": 49,
          "velocity": 0.7874015748031497
        },
        {
          "duration": 0.19583333333333286,
          "durationTicks": 47,
          "midi": 27,
          "name": "D#1",
          "ticks": 11808,
          "time": 49.2,
          "velocity": 0.7874015748031497
        },
        {
          "duration": 0.5958333333333314,
          "durationTicks": 143,
          "midi": 25,
          "name": "C#1",
          "ticks": 11856,
          "time": 49.400000000000006,
          "velocity": 0.7874015748031497
        },
        {
          "duration": 0.3958333333333357,
          "durationTicks": 95,
          "midi": 32,
          "name": "G#1",
          "ticks": 12000,
          "time": 50,
          "velocity": 0.7874015748031497
        },
        {
          "duration": 0.19583333333332575,
          "durationTicks": 47,
          "midi": 25,
          "name": "C#1",
          "ticks": 12096,
          "time": 50.400000000000006,
          "velocity": 0.7874015748031497
        },
        {
          "duration": 0.19583333333333286,
          "durationTicks": 47,
          "midi": 32,
          "name": "G#1",
          "ticks": 12144,
          "time": 50.6,
          "velocity": 0.7874015748031497
        },
        {
          "duration": 0.19583333333333286,
          "durationTicks": 47,
          "midi": 31,
          "name": "G1",
          "ticks": 12192,
          "time": 50.800000000000004,
          "velocity": 0.7874015748031497
        },
        {
          "duration": 3.395833333333343,
          "durationTicks": 815,
          "midi": 30,
          "name": "F#1",
          "ticks": 12240,
          "time": 51,
          "velocity": 0.7874015748031497
        }
      ]
    }
  ]
}
