{
  "header": {
    "keySignatures": [],
    "meta": [],
    "name": "",
    "ppq": 384,
    "tempos": [{ "bpm": 100, "ticks": 0 }],
    "timeSignatures": [{ "ticks": 0, "timeSignature": [1, 4], "measures": 0 }]
  },
  "tracks": [
    {
      "channel": 0,
      "controlChanges": {},
      "pitchBends": [],
      "instrument": {
        "family": "piano",
        "number": 0,
        "name": "acoustic grand piano"
      },
      "name": "Electric Piano",
      "notes": [
        {
          "duration": 0.15,
          "durationTicks": 96,
          "midi": 60,
          "name": "C4",
          "ticks": 0,
          "time": 0,
          "velocity": 0.3937007874015748
        },
        {
          "duration": 0.15,
          "durationTicks": 96,
          "midi": 61,
          "name": "C#4",
          "ticks": 96,
          "time": 0.15,
          "velocity": 0.3937007874015748
        },
        {
          "duration": 0.14999999999999997,
          "durationTicks": 96,
          "midi": 62,
          "name": "D4",
          "ticks": 192,
          "time": 0.3,
          "velocity": 0.3937007874015748
        },
        {
          "duration": 0.15000000000000002,
          "durationTicks": 96,
          "midi": 63,
          "name": "D#4",
          "ticks": 288,
          "time": 0.44999999999999996,
          "velocity": 0.3937007874015748
        },
        {
          "duration": 0.15000000000000002,
          "durationTicks": 96,
          "midi": 64,
          "name": "E4",
          "ticks": 384,
          "time": 0.6,
          "velocity": 0.3937007874015748
        },
        {
          "duration": 0.1499999999999999,
          "durationTicks": 96,
          "midi": 65,
          "name": "F4",
          "ticks": 480,
          "time": 0.75,
          "velocity": 0.3937007874015748
        },
        {
          "duration": 0.15000000000000013,
          "durationTicks": 96,
          "midi": 66,
          "name": "F#4",
          "ticks": 576,
          "time": 0.8999999999999999,
          "velocity": 0.3937007874015748
        },
        {
          "duration": 0.1499999999999999,
          "durationTicks": 96,
          "midi": 67,
          "name": "G4",
          "ticks": 672,
          "time": 1.05,
          "velocity": 0.3937007874015748
        },
        {
          "duration": 0.1499999999999999,
          "durationTicks": 96,
          "midi": 68,
          "name": "G#4",
          "ticks": 768,
          "time": 1.2,
          "velocity": 0.3937007874015748
        },
        {
          "duration": 0.15000000000000013,
          "durationTicks": 96,
          "midi": 69,
          "name": "A4",
          "ticks": 864,
          "time": 1.3499999999999999,
          "velocity": 0.3937007874015748
        },
        {
          "duration": 0.1499999999999999,
          "durationTicks": 96,
          "midi": 70,
          "name": "A#4",
          "ticks": 960,
          "time": 1.5,
          "velocity": 0.3937007874015748
        },
        {
          "duration": 0.1499999999999999,
          "durationTicks": 96,
          "midi": 70,
          "name": "A#4",
          "ticks": 1056,
          "time": 1.65,
          "velocity": 0.3937007874015748
        },
        {
          "duration": 0.15000000000000013,
          "durationTicks": 96,
          "midi": 69,
          "name": "A4",
          "ticks": 1152,
          "time": 1.7999999999999998,
          "velocity": 0.3937007874015748
        },
        {
          "duration": 0.15000000000000013,
          "durationTicks": 96,
          "midi": 68,
          "name": "G#4",
          "ticks": 1248,
          "time": 1.95,
          "velocity": 0.3937007874015748
        },
        {
          "duration": 0.1499999999999999,
          "durationTicks": 96,
          "midi": 67,
          "name": "G4",
          "ticks": 1344,
          "time": 2.1,
          "velocity": 0.3937007874015748
        },
        {
          "duration": 0.1499999999999999,
          "durationTicks": 96,
          "midi": 66,
          "name": "F#4",
          "ticks": 1440,
          "time": 2.25,
          "velocity": 0.3937007874015748
        },
        {
          "duration": 0.1499999999999999,
          "durationTicks": 96,
          "midi": 65,
          "name": "F4",
          "ticks": 1536,
          "time": 2.4,
          "velocity": 0.3937007874015748
        },
        {
          "duration": 0.1499999999999999,
          "durationTicks": 96,
          "midi": 64,
          "name": "E4",
          "ticks": 1632,
          "time": 2.55,
          "velocity": 0.3937007874015748
        },
        {
          "duration": 0.15000000000000036,
          "durationTicks": 96,
          "midi": 63,
          "name": "D#4",
          "ticks": 1728,
          "time": 2.6999999999999997,
          "velocity": 0.3937007874015748
        },
        {
          "duration": 0.1499999999999999,
          "durationTicks": 96,
          "midi": 62,
          "name": "D4",
          "ticks": 1824,
          "time": 2.85,
          "velocity": 0.3937007874015748
        },
        {
          "duration": 0.1499999999999999,
          "durationTicks": 96,
          "midi": 61,
          "name": "C#4",
          "ticks": 1920,
          "time": 3,
          "velocity": 0.3937007874015748
        },
        {
          "duration": 0.1499999999999999,
          "durationTicks": 96,
          "midi": 60,
          "name": "C4",
          "ticks": 2016,
          "time": 3.15,
          "velocity": 0.3937007874015748
        }
      ],
      "endOfTrackTicks": 2112
    }
  ]
}
